<svg width="376" height="402" viewBox="0 0 376 402" fill="none" xmlns="http://www.w3.org/2000/svg">
<rect width="376" height="402" rx="16" fill="#D4FFD0"/>
<path d="M23.3097 111.727V119H22.429V112.651H22.3864L20.6108 113.83V112.935L22.429 111.727H23.3097ZM27.8161 119.099C27.5178 119.095 27.2195 119.038 26.9212 118.929C26.6229 118.82 26.3506 118.637 26.1044 118.379C25.8582 118.118 25.6605 117.767 25.5114 117.324C25.3622 116.879 25.2876 116.32 25.2876 115.648C25.2876 115.004 25.348 114.433 25.4688 113.936C25.5895 113.437 25.7647 113.016 25.9943 112.675C26.224 112.332 26.5009 112.072 26.8253 111.894C27.152 111.717 27.5201 111.628 27.9297 111.628C28.3369 111.628 28.6991 111.71 29.0163 111.873C29.3359 112.034 29.5964 112.259 29.7976 112.548C29.9988 112.836 30.129 113.169 30.1882 113.545H29.3217C29.2412 113.219 29.085 112.948 28.853 112.732C28.621 112.517 28.3132 112.409 27.9297 112.409C27.3662 112.409 26.9223 112.654 26.598 113.144C26.276 113.634 26.1139 114.322 26.1115 115.207H26.1683C26.3009 115.006 26.4583 114.835 26.6406 114.692C26.8253 114.548 27.0289 114.437 27.2514 114.359C27.474 114.281 27.7095 114.241 27.9581 114.241C28.3748 114.241 28.7559 114.346 29.1016 114.554C29.4472 114.76 29.7242 115.045 29.9325 115.41C30.1409 115.772 30.245 116.188 30.245 116.656C30.245 117.106 30.1444 117.518 29.9432 117.892C29.742 118.264 29.459 118.56 29.0945 118.78C28.7322 118.998 28.3061 119.104 27.8161 119.099ZM27.8161 118.318C28.1143 118.318 28.3819 118.244 28.6186 118.094C28.8577 117.945 29.0459 117.745 29.1832 117.494C29.3229 117.243 29.3928 116.964 29.3928 116.656C29.3928 116.356 29.3253 116.082 29.1903 115.836C29.0578 115.587 28.8743 115.39 28.6399 115.243C28.4079 115.096 28.1428 115.023 27.8445 115.023C27.6196 115.023 27.41 115.068 27.2159 115.158C27.0218 115.245 26.8513 115.366 26.7045 115.52C26.5601 115.674 26.4465 115.85 26.3636 116.049C26.2808 116.246 26.2393 116.453 26.2393 116.67C26.2393 116.959 26.3068 117.229 26.4418 117.48C26.5791 117.731 26.7661 117.933 27.0028 118.087C27.242 118.241 27.513 118.318 27.8161 118.318ZM33.9142 119.099C33.4976 119.099 33.1223 119.017 32.7885 118.851C32.4547 118.685 32.1872 118.458 31.986 118.169C31.7847 117.88 31.6747 117.551 31.6557 117.182H32.508C32.5411 117.511 32.6903 117.783 32.9554 117.999C33.223 118.212 33.5426 118.318 33.9142 118.318C34.2125 118.318 34.4777 118.248 34.7097 118.109C34.9441 117.969 35.1275 117.777 35.2601 117.533C35.3951 117.287 35.4625 117.009 35.4625 116.699C35.4625 116.382 35.3927 116.099 35.253 115.85C35.1157 115.599 34.9263 115.402 34.6848 115.257C34.4434 115.113 34.1676 115.039 33.8574 115.037C33.6349 115.035 33.4064 115.069 33.1721 115.14C32.9377 115.209 32.7447 115.297 32.5932 115.406L31.7694 115.307L32.2097 111.727H35.9881V112.509H32.9483L32.6926 114.653H32.7353C32.8844 114.535 33.0714 114.437 33.2963 114.359C33.5212 114.281 33.7556 114.241 33.9995 114.241C34.4445 114.241 34.8411 114.348 35.1891 114.561C35.5395 114.772 35.8141 115.061 36.013 115.428C36.2142 115.795 36.3148 116.214 36.3148 116.685C36.3148 117.149 36.2106 117.563 36.0023 117.928C35.7963 118.29 35.5123 118.576 35.15 118.787C34.7878 118.995 34.3759 119.099 33.9142 119.099Z" fill="#6D7280"/>
<line x1="20.5" y1="122.5" x2="355.5" y2="122.5" stroke="#D2D5DA" stroke-linecap="round" stroke-dasharray="4 4"/>
<path d="M23.0824 201.099C22.5947 201.099 22.1638 201.013 21.7898 200.84C21.4181 200.665 21.1281 200.425 20.9197 200.119C20.7114 199.812 20.6084 199.461 20.6108 199.068C20.6084 198.76 20.6688 198.476 20.7919 198.216C20.915 197.953 21.0831 197.734 21.2962 197.559C21.5116 197.381 21.7519 197.269 22.017 197.222V197.179C21.669 197.089 21.392 196.894 21.1861 196.593C20.9801 196.29 20.8783 195.946 20.8807 195.56C20.8783 195.19 20.9718 194.86 21.1612 194.569C21.3506 194.278 21.611 194.048 21.9425 193.88C22.2763 193.712 22.6563 193.628 23.0824 193.628C23.5038 193.628 23.8802 193.712 24.2116 193.88C24.5431 194.048 24.8035 194.278 24.9929 194.569C25.1847 194.86 25.2817 195.19 25.2841 195.56C25.2817 195.946 25.1764 196.29 24.968 196.593C24.7621 196.894 24.4886 197.089 24.1477 197.179V197.222C24.4105 197.269 24.6473 197.381 24.858 197.559C25.0687 197.734 25.2367 197.953 25.3622 198.216C25.4877 198.476 25.5516 198.76 25.554 199.068C25.5516 199.461 25.4451 199.812 25.2344 200.119C25.026 200.425 24.736 200.665 24.3643 200.84C23.995 201.013 23.5677 201.099 23.0824 201.099ZM23.0824 200.318C23.4115 200.318 23.6955 200.265 23.9347 200.158C24.1738 200.052 24.3584 199.902 24.4886 199.707C24.6188 199.513 24.6851 199.286 24.6875 199.026C24.6851 198.751 24.6141 198.508 24.4744 198.298C24.3348 198.087 24.1442 197.921 23.9027 197.8C23.6636 197.68 23.3902 197.619 23.0824 197.619C22.7723 197.619 22.4953 197.68 22.2514 197.8C22.0099 197.921 21.8194 198.087 21.6797 198.298C21.5424 198.508 21.4749 198.751 21.4773 199.026C21.4749 199.286 21.5376 199.513 21.6655 199.707C21.7957 199.902 21.9815 200.052 22.223 200.158C22.4645 200.265 22.7509 200.318 23.0824 200.318ZM23.0824 196.866C23.3428 196.866 23.5736 196.814 23.7749 196.71C23.9785 196.606 24.1383 196.46 24.2543 196.273C24.3703 196.086 24.4295 195.867 24.4318 195.616C24.4295 195.37 24.3714 195.156 24.2578 194.974C24.1442 194.789 23.9867 194.647 23.7855 194.548C23.5843 194.446 23.3499 194.395 23.0824 194.395C22.8101 194.395 22.5722 194.446 22.3686 194.548C22.165 194.647 22.0076 194.789 21.8963 194.974C21.785 195.156 21.7306 195.37 21.733 195.616C21.7306 195.867 21.7862 196.086 21.8999 196.273C22.0159 196.46 22.1757 196.606 22.3793 196.71C22.5829 196.814 22.8172 196.866 23.0824 196.866ZM29.3723 201.099C28.9036 201.099 28.4857 201.019 28.1188 200.858C27.7542 200.697 27.4642 200.473 27.2488 200.187C27.0357 199.898 26.9197 199.563 26.9007 199.182H27.7956C27.8146 199.416 27.8951 199.619 28.0371 199.789C28.1792 199.957 28.365 200.087 28.5946 200.18C28.8243 200.272 29.0788 200.318 29.3581 200.318C29.6706 200.318 29.9476 200.264 30.1891 200.155C30.4306 200.046 30.62 199.894 30.7573 199.7C30.8946 199.506 30.9632 199.281 30.9632 199.026C30.9632 198.758 30.897 198.522 30.7644 198.319C30.6318 198.113 30.4377 197.952 30.182 197.836C29.9263 197.72 29.6138 197.662 29.2445 197.662H28.6621V196.881H29.2445C29.5333 196.881 29.7866 196.829 30.0044 196.724C30.2246 196.62 30.3962 196.473 30.5194 196.284C30.6448 196.095 30.7076 195.872 30.7076 195.616C30.7076 195.37 30.6531 195.156 30.5442 194.974C30.4353 194.791 30.2814 194.649 30.0826 194.548C29.8861 194.446 29.6541 194.395 29.3865 194.395C29.1356 194.395 28.8989 194.441 28.6763 194.533C28.4561 194.623 28.2762 194.755 28.1365 194.928C27.9969 195.098 27.9211 195.304 27.9093 195.545H27.057C27.0712 195.164 27.186 194.83 27.4015 194.544C27.6169 194.255 27.8986 194.03 28.2466 193.869C28.597 193.708 28.9817 193.628 29.4007 193.628C29.8506 193.628 30.2364 193.719 30.5584 193.901C30.8804 194.081 31.1278 194.319 31.3006 194.615C31.4734 194.911 31.5598 195.231 31.5598 195.574C31.5598 195.983 31.4521 196.333 31.2367 196.621C31.0236 196.91 30.7336 197.11 30.3667 197.222V197.278C30.8259 197.354 31.1846 197.549 31.4426 197.864C31.7007 198.177 31.8297 198.564 31.8297 199.026C31.8297 199.421 31.722 199.776 31.5066 200.091C31.2935 200.403 31.0023 200.65 30.633 200.83C30.2637 201.009 29.8435 201.099 29.3723 201.099Z" fill="#6D7280"/>
<line x1="20.5" y1="204.5" x2="355.5" y2="204.5" stroke="#D2D5DA" stroke-linecap="round" stroke-dasharray="4 4"/>
<path d="M23.125 283.099C22.59 283.099 22.1342 282.954 21.7578 282.663C21.3814 282.369 21.0938 281.944 20.8949 281.388C20.696 280.829 20.5966 280.154 20.5966 279.364C20.5966 278.578 20.696 277.906 20.8949 277.35C21.0961 276.791 21.3849 276.365 21.7614 276.072C22.1402 275.776 22.5947 275.628 23.125 275.628C23.6553 275.628 24.1087 275.776 24.4851 276.072C24.8639 276.365 25.1527 276.791 25.3516 277.35C25.5528 277.906 25.6534 278.578 25.6534 279.364C25.6534 280.154 25.554 280.829 25.3551 281.388C25.1562 281.944 24.8686 282.369 24.4922 282.663C24.1158 282.954 23.66 283.099 23.125 283.099ZM23.125 282.318C23.6553 282.318 24.0672 282.062 24.3608 281.551C24.6544 281.04 24.8011 280.311 24.8011 279.364C24.8011 278.734 24.7337 278.198 24.5987 277.755C24.4661 277.312 24.2744 276.975 24.0234 276.743C23.7749 276.511 23.4754 276.395 23.125 276.395C22.5994 276.395 22.1887 276.654 21.8928 277.173C21.5968 277.689 21.4489 278.419 21.4489 279.364C21.4489 279.993 21.5152 280.528 21.6477 280.969C21.7803 281.409 21.9709 281.744 22.2195 281.974C22.4704 282.203 22.7723 282.318 23.125 282.318ZM29.375 283.099C28.84 283.099 28.3842 282.954 28.0078 282.663C27.6314 282.369 27.3438 281.944 27.1449 281.388C26.946 280.829 26.8466 280.154 26.8466 279.364C26.8466 278.578 26.946 277.906 27.1449 277.35C27.3461 276.791 27.6349 276.365 28.0114 276.072C28.3902 275.776 28.8447 275.628 29.375 275.628C29.9053 275.628 30.3587 275.776 30.7351 276.072C31.1139 276.365 31.4027 276.791 31.6016 277.35C31.8028 277.906 31.9034 278.578 31.9034 279.364C31.9034 280.154 31.804 280.829 31.6051 281.388C31.4062 281.944 31.1186 282.369 30.7422 282.663C30.3658 282.954 29.91 283.099 29.375 283.099ZM29.375 282.318C29.9053 282.318 30.3172 282.062 30.6108 281.551C30.9044 281.04 31.0511 280.311 31.0511 279.364C31.0511 278.734 30.9837 278.198 30.8487 277.755C30.7161 277.312 30.5244 276.975 30.2734 276.743C30.0249 276.511 29.7254 276.395 29.375 276.395C28.8494 276.395 28.4387 276.654 28.1428 277.173C27.8468 277.689 27.6989 278.419 27.6989 279.364C27.6989 279.993 27.7652 280.528 27.8977 280.969C28.0303 281.409 28.2209 281.744 28.4695 281.974C28.7204 282.203 29.0223 282.318 29.375 282.318Z" fill="#6D7280"/>
<line x1="20.5" y1="286.5" x2="355.5" y2="286.5" stroke="#D2D5DA" stroke-linecap="round" stroke-dasharray="4 4"/>
<path d="M121.21 310.099C120.741 310.099 120.324 310.019 119.957 309.858C119.592 309.697 119.302 309.473 119.087 309.187C118.874 308.898 118.758 308.563 118.739 308.182H119.634C119.652 308.416 119.733 308.619 119.875 308.789C120.017 308.957 120.203 309.087 120.433 309.18C120.662 309.272 120.917 309.318 121.196 309.318C121.509 309.318 121.786 309.264 122.027 309.155C122.268 309.046 122.458 308.894 122.595 308.7C122.732 308.506 122.801 308.281 122.801 308.026C122.801 307.758 122.735 307.522 122.602 307.319C122.47 307.113 122.276 306.952 122.02 306.836C121.764 306.72 121.452 306.662 121.082 306.662H120.5V305.881H121.082C121.371 305.881 121.625 305.829 121.842 305.724C122.063 305.62 122.234 305.473 122.357 305.284C122.483 305.095 122.545 304.872 122.545 304.616C122.545 304.37 122.491 304.156 122.382 303.974C122.273 303.791 122.119 303.649 121.92 303.548C121.724 303.446 121.492 303.395 121.224 303.395C120.973 303.395 120.737 303.441 120.514 303.533C120.294 303.623 120.114 303.755 119.974 303.928C119.835 304.098 119.759 304.304 119.747 304.545H118.895C118.909 304.164 119.024 303.83 119.239 303.544C119.455 303.255 119.737 303.03 120.085 302.869C120.435 302.708 120.82 302.628 121.239 302.628C121.688 302.628 122.074 302.719 122.396 302.901C122.718 303.081 122.966 303.319 123.138 303.615C123.311 303.911 123.398 304.231 123.398 304.574C123.398 304.983 123.29 305.333 123.075 305.621C122.862 305.91 122.571 306.11 122.205 306.222V306.278C122.664 306.354 123.022 306.549 123.281 306.864C123.539 307.177 123.668 307.564 123.668 308.026C123.668 308.421 123.56 308.776 123.344 309.091C123.131 309.403 122.84 309.65 122.471 309.83C122.102 310.009 121.681 310.099 121.21 310.099ZM127.577 310.099C127.109 310.099 126.691 310.019 126.324 309.858C125.959 309.697 125.669 309.473 125.454 309.187C125.241 308.898 125.125 308.563 125.106 308.182H126.001C126.02 308.416 126.1 308.619 126.242 308.789C126.384 308.957 126.57 309.087 126.8 309.18C127.029 309.272 127.284 309.318 127.563 309.318C127.876 309.318 128.153 309.264 128.394 309.155C128.636 309.046 128.825 308.894 128.962 308.7C129.1 308.506 129.168 308.281 129.168 308.026C129.168 307.758 129.102 307.522 128.969 307.319C128.837 307.113 128.643 306.952 128.387 306.836C128.131 306.72 127.819 306.662 127.45 306.662H126.867V305.881H127.45C127.738 305.881 127.992 305.829 128.21 305.724C128.43 305.62 128.601 305.473 128.724 305.284C128.85 305.095 128.913 304.872 128.913 304.616C128.913 304.37 128.858 304.156 128.749 303.974C128.64 303.791 128.487 303.649 128.288 303.548C128.091 303.446 127.859 303.395 127.592 303.395C127.341 303.395 127.104 303.441 126.881 303.533C126.661 303.623 126.481 303.755 126.342 303.928C126.202 304.098 126.126 304.304 126.114 304.545H125.262C125.276 304.164 125.391 303.83 125.607 303.544C125.822 303.255 126.104 303.03 126.452 302.869C126.802 302.708 127.187 302.628 127.606 302.628C128.056 302.628 128.442 302.719 128.763 302.901C129.085 303.081 129.333 303.319 129.506 303.615C129.679 303.911 129.765 304.231 129.765 304.574C129.765 304.983 129.657 305.333 129.442 305.621C129.229 305.91 128.939 306.11 128.572 306.222V306.278C129.031 306.354 129.39 306.549 129.648 306.864C129.906 307.177 130.035 307.564 130.035 308.026C130.035 308.421 129.927 308.776 129.712 309.091C129.499 309.403 129.207 309.65 128.838 309.83C128.469 310.009 128.049 310.099 127.577 310.099Z" fill="#6D7280"/>
<path d="M280.31 302.727V310H279.429V303.651H279.386L277.611 304.83V303.935L279.429 302.727H280.31ZM284.859 310.099C284.39 310.099 283.972 310.019 283.605 309.858C283.241 309.697 282.951 309.473 282.735 309.187C282.522 308.898 282.406 308.563 282.387 308.182H283.282C283.301 308.416 283.381 308.619 283.523 308.789C283.665 308.957 283.851 309.087 284.081 309.18C284.311 309.272 284.565 309.318 284.844 309.318C285.157 309.318 285.434 309.264 285.675 309.155C285.917 309.046 286.106 308.894 286.244 308.7C286.381 308.506 286.45 308.281 286.45 308.026C286.45 307.758 286.383 307.522 286.251 307.319C286.118 307.113 285.924 306.952 285.668 306.836C285.413 306.72 285.1 306.662 284.731 306.662H284.148V305.881H284.731C285.02 305.881 285.273 305.829 285.491 305.724C285.711 305.62 285.883 305.473 286.006 305.284C286.131 305.095 286.194 304.872 286.194 304.616C286.194 304.37 286.139 304.156 286.031 303.974C285.922 303.791 285.768 303.649 285.569 303.548C285.372 303.446 285.14 303.395 284.873 303.395C284.622 303.395 284.385 303.441 284.163 303.533C283.942 303.623 283.763 303.755 283.623 303.928C283.483 304.098 283.407 304.304 283.396 304.545H282.543C282.558 304.164 282.672 303.83 282.888 303.544C283.103 303.255 283.385 303.03 283.733 302.869C284.083 302.708 284.468 302.628 284.887 302.628C285.337 302.628 285.723 302.719 286.045 302.901C286.367 303.081 286.614 303.319 286.787 303.615C286.96 303.911 287.046 304.231 287.046 304.574C287.046 304.983 286.938 305.333 286.723 305.621C286.51 305.91 286.22 306.11 285.853 306.222V306.278C286.312 306.354 286.671 306.549 286.929 306.864C287.187 307.177 287.316 307.564 287.316 308.026C287.316 308.421 287.208 308.776 286.993 309.091C286.78 309.403 286.489 309.65 286.119 309.83C285.75 310.009 285.33 310.099 284.859 310.099ZM288.768 310V309.361L291.169 306.733C291.451 306.425 291.683 306.158 291.865 305.93C292.047 305.701 292.182 305.485 292.27 305.284C292.36 305.08 292.405 304.867 292.405 304.645C292.405 304.389 292.343 304.168 292.22 303.981C292.099 303.794 291.934 303.649 291.723 303.548C291.512 303.446 291.276 303.395 291.013 303.395C290.733 303.395 290.49 303.453 290.281 303.569C290.075 303.683 289.915 303.842 289.802 304.048C289.691 304.254 289.635 304.496 289.635 304.773H288.797C288.797 304.347 288.895 303.973 289.092 303.651C289.288 303.329 289.556 303.078 289.894 302.898C290.235 302.718 290.617 302.628 291.041 302.628C291.467 302.628 291.845 302.718 292.174 302.898C292.503 303.078 292.761 303.32 292.948 303.626C293.135 303.931 293.229 304.271 293.229 304.645C293.229 304.912 293.18 305.174 293.083 305.43C292.988 305.683 292.823 305.966 292.586 306.278C292.352 306.589 292.026 306.967 291.609 307.415L289.976 309.162V309.219H293.357V310H288.768Z" fill="#6D7280"/>
<path d="M28.992 37.92L27.552 35.984C27.1253 36.0693 26.7093 36.112 26.304 36.112C25.248 36.112 24.2773 35.8667 23.392 35.376C22.5173 34.8853 21.8187 34.2027 21.296 33.328C20.784 32.4427 20.528 31.4507 20.528 30.352C20.528 29.2533 20.784 28.2667 21.296 27.392C21.8187 26.5173 22.5173 25.8347 23.392 25.344C24.2773 24.8533 25.248 24.608 26.304 24.608C27.36 24.608 28.3253 24.8533 29.2 25.344C30.0853 25.8347 30.7787 26.5173 31.28 27.392C31.792 28.2667 32.048 29.2533 32.048 30.352C32.048 31.312 31.8507 32.192 31.456 32.992C31.072 33.7813 30.5333 34.4373 29.84 34.96L32.304 37.92H28.992ZM23.328 30.352C23.328 31.344 23.5947 32.1387 24.128 32.736C24.672 33.3227 25.3973 33.616 26.304 33.616C27.2 33.616 27.9147 33.3173 28.448 32.72C28.992 32.1227 29.264 31.3333 29.264 30.352C29.264 29.36 28.992 28.5707 28.448 27.984C27.9147 27.3867 27.2 27.088 26.304 27.088C25.3973 27.088 24.672 27.3813 24.128 27.968C23.5947 28.5547 23.328 29.3493 23.328 30.352ZM35.9694 24.768V31.488C35.9694 32.16 36.1347 32.6773 36.4654 33.04C36.796 33.4027 37.2814 33.584 37.9214 33.584C38.5614 33.584 39.052 33.4027 39.3934 33.04C39.7347 32.6773 39.9054 32.16 39.9054 31.488V24.768H42.6414V31.472C42.6414 32.4747 42.428 33.3227 42.0014 34.016C41.5747 34.7093 40.9987 35.232 40.2734 35.584C39.5587 35.936 38.7587 36.112 37.8734 36.112C36.988 36.112 36.1934 35.9413 35.4894 35.6C34.796 35.248 34.2467 34.7253 33.8414 34.032C33.436 33.328 33.2334 32.4747 33.2334 31.472V24.768H35.9694ZM51.2346 34.016H47.0426L46.3706 36H43.5066L47.5706 24.768H50.7386L54.8026 36H51.9066L51.2346 34.016ZM50.5306 31.904L49.1386 27.792L47.7626 31.904H50.5306ZM65.7675 36H63.0315L58.4555 29.072V36H55.7195V24.768H58.4555L63.0315 31.728V24.768H65.7675V36ZM75.5108 24.768V26.96H72.5348V36H69.7988V26.96H66.8228V24.768H75.5108ZM79.2999 24.768V36H76.5639V24.768H79.2999ZM85.1706 24.768C86.3546 24.768 87.3893 25.0027 88.2746 25.472C89.16 25.9413 89.8426 26.6027 90.3226 27.456C90.8133 28.2987 91.0586 29.2747 91.0586 30.384C91.0586 31.4827 90.8133 32.4587 90.3226 33.312C89.8426 34.1653 89.1546 34.8267 88.2586 35.296C87.3733 35.7653 86.344 36 85.1706 36H80.9626V24.768H85.1706ZM84.9946 33.632C86.0293 33.632 86.8346 33.3493 87.4106 32.784C87.9866 32.2187 88.2746 31.4187 88.2746 30.384C88.2746 29.3493 87.9866 28.544 87.4106 27.968C86.8346 27.392 86.0293 27.104 84.9946 27.104H83.6986V33.632H84.9946ZM99.2596 34.016H95.0676L94.3956 36H91.5316L95.5956 24.768H98.7636L102.828 36H99.9316L99.2596 34.016ZM98.5556 31.904L97.1636 27.792L95.7876 31.904H98.5556ZM107.953 24.768C109.137 24.768 110.171 25.0027 111.057 25.472C111.942 25.9413 112.625 26.6027 113.105 27.456C113.595 28.2987 113.841 29.2747 113.841 30.384C113.841 31.4827 113.595 32.4587 113.105 33.312C112.625 34.1653 111.937 34.8267 111.041 35.296C110.155 35.7653 109.126 36 107.953 36H103.745V24.768H107.953ZM107.777 33.632C108.811 33.632 109.617 33.3493 110.193 32.784C110.769 32.2187 111.057 31.4187 111.057 30.384C111.057 29.3493 110.769 28.544 110.193 27.968C109.617 27.392 108.811 27.104 107.777 27.104H106.481V33.632H107.777ZM117.786 26.96V29.232H121.45V31.344H117.786V33.808H121.93V36H115.05V24.768H121.93V26.96H117.786ZM130.664 24.768C131.848 24.768 132.883 25.0027 133.768 25.472C134.654 25.9413 135.336 26.6027 135.816 27.456C136.307 28.2987 136.552 29.2747 136.552 30.384C136.552 31.4827 136.307 32.4587 135.816 33.312C135.336 34.1653 134.648 34.8267 133.752 35.296C132.867 35.7653 131.838 36 130.664 36H126.456V24.768H130.664ZM130.488 33.632C131.523 33.632 132.328 33.3493 132.904 32.784C133.48 32.2187 133.768 31.4187 133.768 30.384C133.768 29.3493 133.48 28.544 132.904 27.968C132.328 27.392 131.523 27.104 130.488 27.104H129.192V33.632H130.488ZM140.497 26.96V29.232H144.161V31.344H140.497V33.808H144.641V36H137.761V24.768H144.641V26.96H140.497ZM157.248 24.768V26.96H154.272V36H151.536V26.96H148.56V24.768H157.248ZM163.613 36.112C162.557 36.112 161.587 35.8667 160.701 35.376C159.827 34.8853 159.128 34.2027 158.605 33.328C158.093 32.4427 157.837 31.4507 157.837 30.352C157.837 29.2533 158.093 28.2667 158.605 27.392C159.128 26.5173 159.827 25.8347 160.701 25.344C161.587 24.8533 162.557 24.608 163.613 24.608C164.669 24.608 165.635 24.8533 166.509 25.344C167.395 25.8347 168.088 26.5173 168.589 27.392C169.101 28.2667 169.357 29.2533 169.357 30.352C169.357 31.4507 169.101 32.4427 168.589 33.328C168.077 34.2027 167.384 34.8853 166.509 35.376C165.635 35.8667 164.669 36.112 163.613 36.112ZM163.613 33.616C164.509 33.616 165.224 33.3173 165.757 32.72C166.301 32.1227 166.573 31.3333 166.573 30.352C166.573 29.36 166.301 28.5707 165.757 27.984C165.224 27.3867 164.509 27.088 163.613 27.088C162.707 27.088 161.981 27.3813 161.437 27.968C160.904 28.5547 160.637 29.3493 160.637 30.352C160.637 31.344 160.904 32.1387 161.437 32.736C161.981 33.3227 162.707 33.616 163.613 33.616ZM178.64 24.768V26.96H175.664V36H172.928V26.96H169.952V24.768H178.64ZM186.685 34.016H182.493L181.821 36H178.957L183.021 24.768H186.189L190.253 36H187.357L186.685 34.016ZM185.981 31.904L184.589 27.792L183.213 31.904H185.981ZM193.906 33.888H197.49V36H191.17V24.768H193.906V33.888ZM205.753 24.768C206.937 24.768 207.972 25.0027 208.857 25.472C209.742 25.9413 210.425 26.6027 210.905 27.456C211.396 28.2987 211.641 29.2747 211.641 30.384C211.641 31.4827 211.396 32.4587 210.905 33.312C210.425 34.1653 209.737 34.8267 208.841 35.296C207.956 35.7653 206.926 36 205.753 36H201.545V24.768H205.753ZM205.577 33.632C206.612 33.632 207.417 33.3493 207.993 32.784C208.569 32.2187 208.857 31.4187 208.857 30.384C208.857 29.3493 208.569 28.544 207.993 27.968C207.417 27.392 206.612 27.104 205.577 27.104H204.281V33.632H205.577ZM215.586 26.96V29.232H219.25V31.344H215.586V33.808H219.73V36H212.85V24.768H219.73V26.96H215.586ZM232.817 28.384C232.817 29.0347 232.668 29.632 232.369 30.176C232.07 30.7093 231.612 31.1413 230.993 31.472C230.374 31.8027 229.606 31.968 228.689 31.968H226.993V36H224.257V24.768H228.689C229.585 24.768 230.342 24.9227 230.961 25.232C231.58 25.5413 232.044 25.968 232.353 26.512C232.662 27.056 232.817 27.68 232.817 28.384ZM228.481 29.792C229.004 29.792 229.393 29.6693 229.649 29.424C229.905 29.1787 230.033 28.832 230.033 28.384C230.033 27.936 229.905 27.5893 229.649 27.344C229.393 27.0987 229.004 26.976 228.481 26.976H226.993V29.792H228.481ZM236.609 24.768V31.488C236.609 32.16 236.775 32.6773 237.105 33.04C237.436 33.4027 237.921 33.584 238.561 33.584C239.201 33.584 239.692 33.4027 240.033 33.04C240.375 32.6773 240.545 32.16 240.545 31.488V24.768H243.281V31.472C243.281 32.4747 243.068 33.3227 242.641 34.016C242.215 34.7093 241.639 35.232 240.913 35.584C240.199 35.936 239.399 36.112 238.513 36.112C237.628 36.112 236.833 35.9413 236.129 35.6C235.436 35.248 234.887 34.7253 234.481 34.032C234.076 33.328 233.873 32.4747 233.873 31.472V24.768H236.609ZM253.443 28.384C253.443 29.0347 253.293 29.632 252.995 30.176C252.696 30.7093 252.237 31.1413 251.619 31.472C251 31.8027 250.232 31.968 249.315 31.968H247.619V36H244.883V24.768H249.315C250.211 24.768 250.968 24.9227 251.587 25.232C252.205 25.5413 252.669 25.968 252.979 26.512C253.288 27.056 253.443 27.68 253.443 28.384ZM249.107 29.792C249.629 29.792 250.019 29.6693 250.275 29.424C250.531 29.1787 250.659 28.832 250.659 28.384C250.659 27.936 250.531 27.5893 250.275 27.344C250.019 27.0987 249.629 26.976 249.107 26.976H247.619V29.792H249.107ZM257.235 24.768V31.488C257.235 32.16 257.4 32.6773 257.731 33.04C258.062 33.4027 258.547 33.584 259.187 33.584C259.827 33.584 260.318 33.4027 260.659 33.04C261 32.6773 261.171 32.16 261.171 31.488V24.768H263.907V31.472C263.907 32.4747 263.694 33.3227 263.267 34.016C262.84 34.7093 262.264 35.232 261.539 35.584C260.824 35.936 260.024 36.112 259.139 36.112C258.254 36.112 257.459 35.9413 256.755 35.6C256.062 35.248 255.512 34.7253 255.107 34.032C254.702 33.328 254.499 32.4747 254.499 31.472V24.768H257.235ZM275.556 36H272.82L268.244 29.072V36H265.508V24.768H268.244L272.82 31.728V24.768H275.556V36ZM286.948 24.768V36H284.212V31.376H279.956V36H277.22V24.768H279.956V29.168H284.212V24.768H286.948ZM291.339 26.96V29.232H295.003V31.344H291.339V33.808H295.483V36H288.603V24.768H295.483V26.96H291.339ZM299.675 24.768V36H296.939V24.768H299.675ZM307.066 36L304.73 31.76H304.074V36H301.338V24.768H305.93C306.815 24.768 307.567 24.9227 308.186 25.232C308.815 25.5413 309.284 25.968 309.594 26.512C309.903 27.0453 310.058 27.6427 310.058 28.304C310.058 29.0507 309.844 29.7173 309.418 30.304C309.002 30.8907 308.383 31.3067 307.562 31.552L310.154 36H307.066ZM304.074 29.824H305.77C306.271 29.824 306.644 29.7013 306.89 29.456C307.146 29.2107 307.274 28.864 307.274 28.416C307.274 27.9893 307.146 27.6533 306.89 27.408C306.644 27.1627 306.271 27.04 305.77 27.04H304.074V29.824ZM318.447 34.016H314.255L313.583 36H310.719L314.783 24.768H317.951L322.015 36H319.119L318.447 34.016ZM317.743 31.904L316.351 27.792L314.975 31.904H317.743ZM326.996 36.112C326.175 36.112 325.439 35.9787 324.788 35.712C324.137 35.4453 323.615 35.0507 323.22 34.528C322.836 34.0053 322.633 33.376 322.612 32.64H325.524C325.567 33.056 325.711 33.376 325.956 33.6C326.201 33.8133 326.521 33.92 326.916 33.92C327.321 33.92 327.641 33.8293 327.876 33.648C328.111 33.456 328.228 33.1947 328.228 32.864C328.228 32.5867 328.132 32.3573 327.94 32.176C327.759 31.9947 327.529 31.8453 327.252 31.728C326.985 31.6107 326.601 31.4773 326.1 31.328C325.375 31.104 324.783 30.88 324.324 30.656C323.865 30.432 323.471 30.1013 323.14 29.664C322.809 29.2267 322.644 28.656 322.644 27.952C322.644 26.9067 323.023 26.0907 323.78 25.504C324.537 24.9067 325.524 24.608 326.74 24.608C327.977 24.608 328.975 24.9067 329.732 25.504C330.489 26.0907 330.895 26.912 330.948 27.968H327.988C327.967 27.6053 327.833 27.3227 327.588 27.12C327.343 26.9067 327.028 26.8 326.644 26.8C326.313 26.8 326.047 26.8907 325.844 27.072C325.641 27.2427 325.54 27.4933 325.54 27.824C325.54 28.1867 325.711 28.4693 326.052 28.672C326.393 28.8747 326.927 29.0933 327.652 29.328C328.377 29.5733 328.964 29.808 329.412 30.032C329.871 30.256 330.265 30.5813 330.596 31.008C330.927 31.4347 331.092 31.984 331.092 32.656C331.092 33.296 330.927 33.8773 330.596 34.4C330.276 34.9227 329.807 35.3387 329.188 35.648C328.569 35.9573 327.839 36.112 326.996 36.112Z" fill="#586F55"/>
<path d="M20.81 64.87V60.1H29.12V82H23.78V64.87H20.81ZM42.8593 66.01C42.6993 65.27 42.4193 64.72 42.0193 64.36C41.6193 63.98 41.0493 63.79 40.3093 63.79C39.1693 63.79 38.3493 64.29 37.8493 65.29C37.3493 66.27 37.0893 67.83 37.0693 69.97C37.5093 69.27 38.1393 68.72 38.9593 68.32C39.7993 67.92 40.7193 67.72 41.7193 67.72C43.6793 67.72 45.2493 68.34 46.4293 69.58C47.6293 70.82 48.2293 72.55 48.2293 74.77C48.2293 76.23 47.9293 77.51 47.3293 78.61C46.7493 79.71 45.8893 80.57 44.7493 81.19C43.6293 81.81 42.2993 82.12 40.7593 82.12C37.6793 82.12 35.5393 81.16 34.3393 79.24C33.1393 77.3 32.5393 74.52 32.5393 70.9C32.5393 67.1 33.1693 64.28 34.4293 62.44C35.7093 60.58 37.7493 59.65 40.5493 59.65C42.0493 59.65 43.3093 59.95 44.3293 60.55C45.3693 61.13 46.1493 61.9 46.6693 62.86C47.2093 63.82 47.5293 64.87 47.6293 66.01H42.8593ZM40.4893 71.77C39.6293 71.77 38.9093 72.03 38.3293 72.55C37.7693 73.05 37.4893 73.77 37.4893 74.71C37.4893 75.67 37.7493 76.42 38.2693 76.96C38.8093 77.5 39.5693 77.77 40.5493 77.77C41.4293 77.77 42.1193 77.51 42.6193 76.99C43.1393 76.45 43.3993 75.72 43.3993 74.8C43.3993 73.86 43.1493 73.12 42.6493 72.58C42.1493 72.04 41.4293 71.77 40.4893 71.77ZM65.9509 64.57H56.5909V68.71C56.9909 68.27 57.5509 67.91 58.2709 67.63C58.9909 67.35 59.7709 67.21 60.6109 67.21C62.1109 67.21 63.3509 67.55 64.3309 68.23C65.3309 68.91 66.0609 69.79 66.5209 70.87C66.9809 71.95 67.2109 73.12 67.2109 74.38C67.2109 76.72 66.5509 78.58 65.2309 79.96C63.9109 81.32 62.0509 82 59.6509 82C58.0509 82 56.6609 81.73 55.4809 81.19C54.3009 80.63 53.3909 79.86 52.7509 78.88C52.1109 77.9 51.7609 76.77 51.7009 75.49H56.7109C56.8309 76.11 57.1209 76.63 57.5809 77.05C58.0409 77.45 58.6709 77.65 59.4709 77.65C60.4109 77.65 61.1109 77.35 61.5709 76.75C62.0309 76.15 62.2609 75.35 62.2609 74.35C62.2609 73.37 62.0209 72.62 61.5409 72.1C61.0609 71.58 60.3609 71.32 59.4409 71.32C58.7609 71.32 58.2009 71.49 57.7609 71.83C57.3209 72.15 57.0309 72.58 56.8909 73.12H51.9409V60.07H65.9509V64.57Z" fill="#586F55"/>
<rect x="20" y="336" width="16" height="16" rx="8" fill="#466A43"/>
<path d="M57.5753 342.129H56.0241C55.9645 341.798 55.8535 341.506 55.6911 341.254C55.5286 341.002 55.3298 340.789 55.0945 340.613C54.8591 340.437 54.5956 340.305 54.304 340.215C54.0156 340.126 53.709 340.081 53.3842 340.081C52.7976 340.081 52.2723 340.228 51.8082 340.523C51.3475 340.818 50.983 341.251 50.7145 341.821C50.4493 342.391 50.3168 343.087 50.3168 343.909C50.3168 344.738 50.4493 345.437 50.7145 346.007C50.983 346.577 51.3492 347.008 51.8132 347.3C52.2772 347.591 52.7992 347.737 53.3793 347.737C53.7008 347.737 54.0057 347.694 54.294 347.608C54.5857 347.518 54.8492 347.388 55.0845 347.215C55.3198 347.043 55.5187 346.832 55.6811 346.584C55.8468 346.332 55.9612 346.044 56.0241 345.719L57.5753 345.724C57.4924 346.224 57.3317 346.685 57.093 347.106C56.8577 347.523 56.5545 347.885 56.1832 348.19C55.8153 348.491 55.3944 348.725 54.9205 348.891C54.4465 349.056 53.9295 349.139 53.3693 349.139C52.4877 349.139 51.7022 348.93 51.0128 348.513C50.3234 348.092 49.7798 347.49 49.3821 346.708C48.9877 345.926 48.7905 344.993 48.7905 343.909C48.7905 342.822 48.9893 341.889 49.3871 341.11C49.7848 340.328 50.3284 339.728 51.0178 339.31C51.7071 338.889 52.491 338.679 53.3693 338.679C53.9096 338.679 54.4134 338.757 54.8807 338.913C55.3513 339.065 55.7739 339.29 56.1484 339.589C56.523 339.884 56.8329 340.245 57.0781 340.673C57.3234 341.097 57.4891 341.582 57.5753 342.129ZM62.2308 349.154C61.5149 349.154 60.8902 348.99 60.3565 348.662C59.8229 348.334 59.4086 347.875 59.1136 347.285C58.8187 346.695 58.6712 346.005 58.6712 345.217C58.6712 344.424 58.8187 343.732 59.1136 343.138C59.4086 342.545 59.8229 342.085 60.3565 341.756C60.8902 341.428 61.5149 341.264 62.2308 341.264C62.9467 341.264 63.5715 341.428 64.1051 341.756C64.6387 342.085 65.053 342.545 65.348 343.138C65.643 343.732 65.7905 344.424 65.7905 345.217C65.7905 346.005 65.643 346.695 65.348 347.285C65.053 347.875 64.6387 348.334 64.1051 348.662C63.5715 348.99 62.9467 349.154 62.2308 349.154ZM62.2358 347.906C62.6998 347.906 63.0843 347.784 63.3892 347.538C63.6941 347.293 63.9195 346.967 64.0653 346.559C64.2145 346.151 64.2891 345.702 64.2891 345.212C64.2891 344.724 64.2145 344.277 64.0653 343.869C63.9195 343.458 63.6941 343.129 63.3892 342.88C63.0843 342.631 62.6998 342.507 62.2358 342.507C61.7685 342.507 61.3807 342.631 61.0725 342.88C60.7675 343.129 60.5405 343.458 60.3913 343.869C60.2455 344.277 60.1726 344.724 60.1726 345.212C60.1726 345.702 60.2455 346.151 60.3913 346.559C60.5405 346.967 60.7675 347.293 61.0725 347.538C61.3807 347.784 61.7685 347.906 62.2358 347.906ZM68.6563 344.466V349H67.1698V341.364H68.5966V342.607H68.6911C68.8667 342.202 69.1418 341.877 69.5164 341.632C69.8942 341.387 70.3698 341.264 70.9432 341.264C71.4636 341.264 71.9193 341.374 72.3104 341.592C72.7015 341.808 73.0047 342.129 73.2202 342.557C73.4356 342.984 73.5433 343.513 73.5433 344.143V349H72.0568V344.322C72.0568 343.768 71.9127 343.336 71.6243 343.024C71.336 342.709 70.9399 342.552 70.4361 342.552C70.0914 342.552 69.7848 342.626 69.5164 342.776C69.2512 342.925 69.0407 343.143 68.885 343.432C68.7325 343.717 68.6563 344.062 68.6563 344.466ZM78.8216 341.364V342.557H74.6504V341.364H78.8216ZM75.769 339.534H77.2555V346.758C77.2555 347.046 77.2986 347.263 77.3848 347.409C77.471 347.552 77.582 347.649 77.7179 347.702C77.8571 347.752 78.0079 347.777 78.1703 347.777C78.2896 347.777 78.394 347.769 78.4835 347.752C78.573 347.736 78.6426 347.722 78.6923 347.712L78.9608 348.94C78.8746 348.973 78.752 349.007 78.5929 349.04C78.4338 349.076 78.2349 349.096 77.9963 349.099C77.6052 349.106 77.2406 349.036 76.9025 348.891C76.5645 348.745 76.291 348.519 76.0822 348.214C75.8734 347.91 75.769 347.527 75.769 347.066V339.534ZM82.4082 349.169C81.9243 349.169 81.4868 349.08 81.0957 348.901C80.7046 348.718 80.3947 348.455 80.166 348.11C79.9407 347.765 79.828 347.343 79.828 346.842C79.828 346.411 79.9108 346.057 80.0766 345.778C80.2423 345.5 80.466 345.28 80.7477 345.117C81.0294 344.955 81.3443 344.832 81.6923 344.749C82.0403 344.666 82.395 344.603 82.7562 344.56C83.2136 344.507 83.5848 344.464 83.8699 344.431C84.1549 344.395 84.3621 344.337 84.4913 344.257C84.6206 344.178 84.6852 344.048 84.6852 343.869V343.835C84.6852 343.4 84.5626 343.064 84.3173 342.825C84.0754 342.587 83.7141 342.467 83.2335 342.467C82.733 342.467 82.3386 342.578 82.0503 342.8C81.7652 343.019 81.568 343.263 81.4587 343.531L80.0616 343.213C80.2274 342.749 80.4693 342.375 80.7875 342.089C81.109 341.801 81.4785 341.592 81.8962 341.463C82.3138 341.33 82.7529 341.264 83.2136 341.264C83.5186 341.264 83.8417 341.301 84.1831 341.374C84.5278 341.443 84.8493 341.572 85.1476 341.761C85.4492 341.95 85.6961 342.22 85.8883 342.572C86.0806 342.92 86.1767 343.372 86.1767 343.929V349H84.725V347.956H84.6653C84.5692 348.148 84.425 348.337 84.2328 348.523C84.0406 348.708 83.7936 348.862 83.492 348.985C83.1904 349.108 82.8292 349.169 82.4082 349.169ZM82.7314 347.976C83.1424 347.976 83.4937 347.895 83.7854 347.732C84.0803 347.57 84.3041 347.358 84.4565 347.096C84.6123 346.831 84.6902 346.547 84.6902 346.246V345.261C84.6372 345.314 84.5344 345.364 84.382 345.411C84.2328 345.454 84.0621 345.492 83.8699 345.525C83.6776 345.555 83.4904 345.583 83.3081 345.609C83.1258 345.633 82.9733 345.652 82.8507 345.669C82.5624 345.705 82.2989 345.767 82.0602 345.853C81.8249 345.939 81.636 346.063 81.4935 346.226C81.3543 346.385 81.2847 346.597 81.2847 346.862C81.2847 347.23 81.4205 347.509 81.6923 347.697C81.9641 347.883 82.3105 347.976 82.7314 347.976ZM87.8766 349V341.364H89.3035V342.607H89.3979C89.557 342.186 89.8172 341.857 90.1785 341.622C90.5397 341.384 90.9723 341.264 91.4761 341.264C91.9865 341.264 92.414 341.384 92.7587 341.622C93.1067 341.861 93.3636 342.189 93.5293 342.607H93.6089C93.7912 342.199 94.0812 341.874 94.4789 341.632C94.8766 341.387 95.3506 341.264 95.9008 341.264C96.5935 341.264 97.1586 341.481 97.5961 341.915C98.0369 342.35 98.2573 343.004 98.2573 343.879V349H96.7708V344.018C96.7708 343.501 96.6299 343.127 96.3482 342.895C96.0665 342.663 95.7301 342.547 95.339 342.547C94.8551 342.547 94.4789 342.696 94.2104 342.994C93.942 343.289 93.8077 343.669 93.8077 344.133V349H92.3262V343.924C92.3262 343.51 92.1969 343.177 91.9384 342.925C91.6799 342.673 91.3435 342.547 90.9292 342.547C90.6475 342.547 90.3873 342.621 90.1486 342.771C89.9133 342.916 89.7227 343.12 89.5769 343.382C89.4344 343.644 89.3631 343.947 89.3631 344.292V349H87.8766ZM99.9697 349V341.364H101.456V349H99.9697ZM100.72 340.185C100.462 340.185 100.24 340.099 100.054 339.927C99.8719 339.751 99.7808 339.542 99.7808 339.3C99.7808 339.055 99.8719 338.846 100.054 338.674C100.24 338.498 100.462 338.411 100.72 338.411C100.979 338.411 101.199 338.498 101.382 338.674C101.567 338.846 101.66 339.055 101.66 339.3C101.66 339.542 101.567 339.751 101.382 339.927C101.199 340.099 100.979 340.185 100.72 340.185ZM104.663 344.466V349H103.176V341.364H104.603V342.607H104.697C104.873 342.202 105.148 341.877 105.523 341.632C105.9 341.387 106.376 341.264 106.949 341.264C107.47 341.264 107.926 341.374 108.317 341.592C108.708 341.808 109.011 342.129 109.226 342.557C109.442 342.984 109.55 343.513 109.55 344.143V349H108.063V344.322C108.063 343.768 107.919 343.336 107.631 343.024C107.342 342.709 106.946 342.552 106.442 342.552C106.098 342.552 105.791 342.626 105.523 342.776C105.257 342.925 105.047 343.143 104.891 343.432C104.739 343.717 104.663 344.062 104.663 344.466ZM113.485 349.169C113.002 349.169 112.564 349.08 112.173 348.901C111.782 348.718 111.472 348.455 111.243 348.11C111.018 347.765 110.905 347.343 110.905 346.842C110.905 346.411 110.988 346.057 111.154 345.778C111.32 345.5 111.543 345.28 111.825 345.117C112.107 344.955 112.422 344.832 112.77 344.749C113.118 344.666 113.472 344.603 113.834 344.56C114.291 344.507 114.662 344.464 114.947 344.431C115.232 344.395 115.439 344.337 115.569 344.257C115.698 344.178 115.762 344.048 115.762 343.869V343.835C115.762 343.4 115.64 343.064 115.395 342.825C115.153 342.587 114.791 342.467 114.311 342.467C113.81 342.467 113.416 342.578 113.128 342.8C112.843 343.019 112.645 343.263 112.536 343.531L111.139 343.213C111.305 342.749 111.547 342.375 111.865 342.089C112.186 341.801 112.556 341.592 112.973 341.463C113.391 341.33 113.83 341.264 114.291 341.264C114.596 341.264 114.919 341.301 115.26 341.374C115.605 341.443 115.927 341.572 116.225 341.761C116.526 341.95 116.773 342.22 116.966 342.572C117.158 342.92 117.254 343.372 117.254 343.929V349H115.802V347.956H115.743C115.646 348.148 115.502 348.337 115.31 348.523C115.118 348.708 114.871 348.862 114.569 348.985C114.268 349.108 113.906 349.169 113.485 349.169ZM113.809 347.976C114.22 347.976 114.571 347.895 114.863 347.732C115.158 347.57 115.381 347.358 115.534 347.096C115.69 346.831 115.767 346.547 115.767 346.246V345.261C115.714 345.314 115.612 345.364 115.459 345.411C115.31 345.454 115.139 345.492 114.947 345.525C114.755 345.555 114.568 345.583 114.385 345.609C114.203 345.633 114.051 345.652 113.928 345.669C113.64 345.705 113.376 345.767 113.137 345.853C112.902 345.939 112.713 346.063 112.571 346.226C112.432 346.385 112.362 346.597 112.362 346.862C112.362 347.23 112.498 347.509 112.77 347.697C113.041 347.883 113.388 347.976 113.809 347.976ZM121.813 349.149C121.196 349.149 120.646 348.992 120.162 348.677C119.681 348.359 119.304 347.906 119.028 347.32C118.757 346.73 118.621 346.022 118.621 345.197C118.621 344.371 118.758 343.665 119.033 343.079C119.312 342.492 119.693 342.043 120.177 341.732C120.661 341.42 121.209 341.264 121.823 341.264C122.296 341.264 122.678 341.344 122.966 341.503C123.258 341.659 123.483 341.841 123.642 342.05C123.805 342.259 123.93 342.442 124.02 342.602H124.109V338.818H125.596V349H124.144V347.812H124.02C123.93 347.974 123.801 348.16 123.632 348.369C123.466 348.577 123.238 348.76 122.946 348.915C122.654 349.071 122.277 349.149 121.813 349.149ZM122.141 347.881C122.568 347.881 122.93 347.769 123.224 347.543C123.523 347.315 123.748 346.998 123.901 346.594C124.056 346.189 124.134 345.719 124.134 345.182C124.134 344.652 124.058 344.187 123.906 343.79C123.753 343.392 123.529 343.082 123.234 342.86C122.939 342.638 122.575 342.527 122.141 342.527C121.693 342.527 121.32 342.643 121.022 342.875C120.724 343.107 120.498 343.424 120.346 343.825C120.197 344.226 120.122 344.678 120.122 345.182C120.122 345.692 120.198 346.151 120.351 346.559C120.503 346.967 120.729 347.29 121.027 347.528C121.329 347.764 121.7 347.881 122.141 347.881ZM129.66 349.169C129.176 349.169 128.738 349.08 128.347 348.901C127.956 348.718 127.646 348.455 127.418 348.11C127.192 347.765 127.08 347.343 127.08 346.842C127.08 346.411 127.162 346.057 127.328 345.778C127.494 345.5 127.718 345.28 127.999 345.117C128.281 344.955 128.596 344.832 128.944 344.749C129.292 344.666 129.647 344.603 130.008 344.56C130.465 344.507 130.836 344.464 131.122 344.431C131.407 344.395 131.614 344.337 131.743 344.257C131.872 344.178 131.937 344.048 131.937 343.869V343.835C131.937 343.4 131.814 343.064 131.569 342.825C131.327 342.587 130.966 342.467 130.485 342.467C129.985 342.467 129.59 342.578 129.302 342.8C129.017 343.019 128.82 343.263 128.71 343.531L127.313 343.213C127.479 342.749 127.721 342.375 128.039 342.089C128.361 341.801 128.73 341.592 129.148 341.463C129.565 341.33 130.005 341.264 130.465 341.264C130.77 341.264 131.093 341.301 131.435 341.374C131.779 341.443 132.101 341.572 132.399 341.761C132.701 341.95 132.948 342.22 133.14 342.572C133.332 342.92 133.428 343.372 133.428 343.929V349H131.977V347.956H131.917C131.821 348.148 131.677 348.337 131.484 348.523C131.292 348.708 131.045 348.862 130.744 348.985C130.442 349.108 130.081 349.169 129.66 349.169ZM129.983 347.976C130.394 347.976 130.745 347.895 131.037 347.732C131.332 347.57 131.556 347.358 131.708 347.096C131.864 346.831 131.942 346.547 131.942 346.246V345.261C131.889 345.314 131.786 345.364 131.634 345.411C131.484 345.454 131.314 345.492 131.122 345.525C130.929 345.555 130.742 345.583 130.56 345.609C130.377 345.633 130.225 345.652 130.102 345.669C129.814 345.705 129.55 345.767 129.312 345.853C129.077 345.939 128.888 346.063 128.745 346.226C128.606 346.385 128.536 346.597 128.536 346.862C128.536 347.23 128.672 347.509 128.944 347.697C129.216 347.883 129.562 347.976 129.983 347.976ZM140.851 343.228L139.503 343.467C139.447 343.294 139.357 343.13 139.235 342.974C139.115 342.819 138.953 342.691 138.748 342.592C138.542 342.492 138.285 342.442 137.977 342.442C137.556 342.442 137.205 342.537 136.923 342.726C136.641 342.911 136.5 343.152 136.5 343.447C136.5 343.702 136.595 343.907 136.784 344.063C136.973 344.219 137.278 344.347 137.699 344.446L138.912 344.724C139.614 344.887 140.138 345.137 140.483 345.475C140.827 345.813 141 346.252 141 346.793C141 347.25 140.867 347.658 140.602 348.016C140.34 348.37 139.974 348.649 139.503 348.851C139.036 349.053 138.494 349.154 137.878 349.154C137.022 349.154 136.325 348.972 135.785 348.607C135.244 348.239 134.913 347.717 134.79 347.041L136.227 346.822C136.316 347.197 136.5 347.48 136.779 347.673C137.057 347.862 137.42 347.956 137.868 347.956C138.355 347.956 138.744 347.855 139.036 347.653C139.328 347.447 139.473 347.197 139.473 346.902C139.473 346.663 139.384 346.463 139.205 346.3C139.029 346.138 138.759 346.015 138.395 345.933L137.102 345.649C136.389 345.487 135.862 345.228 135.521 344.874C135.183 344.519 135.014 344.07 135.014 343.526C135.014 343.076 135.14 342.681 135.392 342.343C135.644 342.005 135.992 341.741 136.436 341.553C136.88 341.36 137.389 341.264 137.962 341.264C138.787 341.264 139.437 341.443 139.911 341.801C140.385 342.156 140.698 342.631 140.851 343.228Z" fill="#4B5563"/>
<path d="M327.979 349V347.886L331.425 344.317C331.793 343.929 332.096 343.589 332.335 343.298C332.576 343.003 332.757 342.723 332.876 342.457C332.996 342.192 333.055 341.911 333.055 341.612C333.055 341.274 332.976 340.982 332.817 340.737C332.658 340.489 332.441 340.298 332.165 340.165C331.89 340.03 331.58 339.962 331.236 339.962C330.871 339.962 330.553 340.036 330.281 340.185C330.009 340.335 329.801 340.545 329.655 340.817C329.509 341.089 329.436 341.407 329.436 341.771H327.969C327.969 341.152 328.112 340.61 328.397 340.146C328.682 339.682 329.073 339.322 329.57 339.067C330.067 338.808 330.633 338.679 331.266 338.679C331.905 338.679 332.469 338.807 332.956 339.062C333.446 339.314 333.829 339.658 334.104 340.096C334.379 340.53 334.517 341.021 334.517 341.567C334.517 341.945 334.446 342.315 334.303 342.676C334.164 343.037 333.92 343.44 333.572 343.884C333.224 344.325 332.741 344.86 332.121 345.49L330.097 347.608V347.683H334.681V349H327.979ZM339.83 349.169C339.045 349.166 338.373 348.959 337.817 348.548C337.26 348.137 336.834 347.538 336.539 346.753C336.244 345.967 336.096 345.021 336.096 343.914C336.096 342.81 336.244 341.867 336.539 341.085C336.837 340.303 337.265 339.706 337.822 339.295C338.382 338.884 339.051 338.679 339.83 338.679C340.609 338.679 341.277 338.886 341.834 339.3C342.39 339.711 342.816 340.308 343.111 341.09C343.41 341.869 343.559 342.81 343.559 343.914C343.559 345.024 343.411 345.972 343.116 346.758C342.821 347.54 342.395 348.138 341.839 348.553C341.282 348.964 340.612 349.169 339.83 349.169ZM339.83 347.842C340.519 347.842 341.058 347.505 341.446 346.832C341.837 346.16 342.033 345.187 342.033 343.914C342.033 343.069 341.943 342.355 341.764 341.771C341.588 341.185 341.335 340.741 341.003 340.439C340.675 340.134 340.284 339.982 339.83 339.982C339.144 339.982 338.605 340.32 338.214 340.996C337.823 341.672 337.626 342.645 337.623 343.914C337.623 344.763 337.711 345.48 337.886 346.067C338.065 346.65 338.319 347.093 338.647 347.394C338.975 347.692 339.369 347.842 339.83 347.842ZM350.357 347.091V346.554C350.357 346.17 350.437 345.818 350.596 345.5C350.758 345.179 350.993 344.922 351.302 344.729C351.613 344.534 351.989 344.436 352.43 344.436C352.881 344.436 353.259 344.532 353.564 344.724C353.869 344.917 354.099 345.174 354.255 345.495C354.414 345.817 354.493 346.17 354.493 346.554V347.091C354.493 347.475 354.414 347.828 354.255 348.15C354.096 348.468 353.862 348.725 353.554 348.92C353.249 349.113 352.874 349.209 352.43 349.209C351.983 349.209 351.605 349.113 351.297 348.92C350.988 348.725 350.755 348.468 350.596 348.15C350.437 347.828 350.357 347.475 350.357 347.091ZM351.515 346.554V347.091C351.515 347.376 351.583 347.634 351.719 347.866C351.855 348.098 352.092 348.214 352.43 348.214C352.765 348.214 352.999 348.098 353.131 347.866C353.264 347.634 353.33 347.376 353.33 347.091V346.554C353.33 346.269 353.265 346.01 353.136 345.778C353.01 345.546 352.775 345.43 352.43 345.43C352.099 345.43 351.863 345.546 351.724 345.778C351.585 346.01 351.515 346.269 351.515 346.554ZM345.236 341.264V340.727C345.236 340.343 345.316 339.99 345.475 339.668C345.637 339.347 345.873 339.09 346.181 338.898C346.492 338.705 346.869 338.609 347.309 338.609C347.76 338.609 348.138 338.705 348.443 338.898C348.748 339.09 348.978 339.347 349.134 339.668C349.29 339.99 349.368 340.343 349.368 340.727V341.264C349.368 341.649 349.288 342.002 349.129 342.323C348.973 342.641 348.741 342.898 348.433 343.094C348.128 343.286 347.754 343.382 347.309 343.382C346.859 343.382 346.479 343.286 346.171 343.094C345.866 342.898 345.634 342.641 345.475 342.323C345.316 342.002 345.236 341.649 345.236 341.264ZM346.4 340.727V341.264C346.4 341.549 346.466 341.808 346.599 342.04C346.734 342.272 346.971 342.388 347.309 342.388C347.641 342.388 347.873 342.272 348.006 342.04C348.141 341.808 348.209 341.549 348.209 341.264V340.727C348.209 340.442 348.145 340.184 348.015 339.952C347.886 339.72 347.651 339.604 347.309 339.604C346.978 339.604 346.743 339.72 346.604 339.952C346.468 340.184 346.4 340.442 346.4 340.727ZM345.709 349L352.709 338.818H353.897L346.897 349H345.709Z" fill="black"/>
<rect x="20" y="364" width="16" height="16" rx="8" fill="#8BCA79"/>
<path d="M54.6719 369.493C54.6188 369.022 54.4001 368.658 54.0156 368.399C53.6312 368.137 53.1473 368.006 52.5639 368.006C52.1463 368.006 51.785 368.073 51.4801 368.205C51.1752 368.335 50.9382 368.513 50.7692 368.742C50.6035 368.968 50.5206 369.224 50.5206 369.513C50.5206 369.755 50.5769 369.964 50.6896 370.139C50.8056 370.315 50.9564 370.462 51.142 370.582C51.331 370.698 51.5331 370.795 51.7486 370.875C51.964 370.951 52.1712 371.014 52.37 371.064L53.3643 371.322C53.6892 371.402 54.0223 371.51 54.3636 371.646C54.705 371.781 55.0215 371.96 55.3132 372.183C55.6049 372.405 55.8402 372.68 56.0192 373.008C56.2015 373.336 56.2926 373.729 56.2926 374.186C56.2926 374.763 56.1435 375.275 55.8452 375.722C55.5502 376.17 55.121 376.523 54.5575 376.781C53.9974 377.04 53.3196 377.169 52.5241 377.169C51.7618 377.169 51.1023 377.048 50.5455 376.806C49.9886 376.564 49.5528 376.221 49.2379 375.777C48.9231 375.33 48.7491 374.799 48.7159 374.186H50.2571C50.2869 374.554 50.4063 374.861 50.6151 375.106C50.8272 375.348 51.0973 375.528 51.4254 375.648C51.7569 375.764 52.1198 375.822 52.5142 375.822C52.9484 375.822 53.3345 375.754 53.6726 375.618C54.014 375.479 54.2824 375.286 54.478 375.041C54.6735 374.793 54.7713 374.503 54.7713 374.171C54.7713 373.87 54.6851 373.623 54.5128 373.43C54.3438 373.238 54.1134 373.079 53.8217 372.953C53.5334 372.827 53.2069 372.716 52.8423 372.62L51.6392 372.292C50.8239 372.07 50.1776 371.743 49.7003 371.312C49.2263 370.882 48.9893 370.312 48.9893 369.602C48.9893 369.016 49.1484 368.504 49.4666 368.066C49.7848 367.629 50.2157 367.289 50.7592 367.047C51.3028 366.802 51.916 366.679 52.5987 366.679C53.2881 366.679 53.8963 366.8 54.4233 367.042C54.9536 367.284 55.3712 367.617 55.6761 368.041C55.9811 368.462 56.1402 368.946 56.1534 369.493H54.6719ZM59.9514 377.169C59.4675 377.169 59.03 377.08 58.6389 376.901C58.2478 376.718 57.9379 376.455 57.7092 376.11C57.4838 375.765 57.3711 375.343 57.3711 374.842C57.3711 374.411 57.454 374.057 57.6197 373.778C57.7854 373.5 58.0091 373.28 58.2908 373.117C58.5726 372.955 58.8874 372.832 59.2354 372.749C59.5835 372.666 59.9381 372.603 60.2994 372.56C60.7568 372.507 61.128 372.464 61.413 372.431C61.698 372.395 61.9052 372.337 62.0345 372.257C62.1637 372.178 62.2283 372.048 62.2283 371.869V371.835C62.2283 371.4 62.1057 371.064 61.8604 370.825C61.6185 370.587 61.2572 370.467 60.7766 370.467C60.2762 370.467 59.8818 370.578 59.5934 370.8C59.3084 371.019 59.1112 371.263 59.0018 371.531L57.6048 371.213C57.7705 370.749 58.0124 370.375 58.3306 370.089C58.6521 369.801 59.0217 369.592 59.4393 369.463C59.8569 369.33 60.2961 369.264 60.7568 369.264C61.0617 369.264 61.3848 369.301 61.7262 369.374C62.0709 369.443 62.3924 369.572 62.6907 369.761C62.9923 369.95 63.2392 370.22 63.4315 370.572C63.6237 370.92 63.7198 371.372 63.7198 371.929V377H62.2681V375.956H62.2085C62.1123 376.148 61.9682 376.337 61.7759 376.523C61.5837 376.708 61.3368 376.862 61.0352 376.985C60.7336 377.108 60.3723 377.169 59.9514 377.169ZM60.2745 375.976C60.6855 375.976 61.0368 375.895 61.3285 375.732C61.6235 375.57 61.8472 375.358 61.9997 375.096C62.1554 374.831 62.2333 374.547 62.2333 374.246V373.261C62.1803 373.314 62.0775 373.364 61.9251 373.411C61.7759 373.454 61.6052 373.492 61.413 373.525C61.2208 373.555 61.0335 373.583 60.8512 373.609C60.6689 373.633 60.5165 373.652 60.3938 373.669C60.1055 373.705 59.842 373.767 59.6033 373.853C59.368 373.939 59.1791 374.063 59.0366 374.226C58.8974 374.385 58.8278 374.597 58.8278 374.862C58.8278 375.23 58.9637 375.509 59.2354 375.697C59.5072 375.883 59.8536 375.976 60.2745 375.976ZM70.2571 373.833V369.364H71.7486V377H70.2869V375.678H70.2074C70.0317 376.085 69.75 376.425 69.3622 376.697C68.9778 376.965 68.4988 377.099 67.9254 377.099C67.4349 377.099 67.0007 376.992 66.6229 376.776C66.2484 376.558 65.9534 376.234 65.7379 375.807C65.5258 375.379 65.4198 374.851 65.4198 374.221V369.364H66.9063V374.042C66.9063 374.562 67.0504 374.977 67.3388 375.285C67.6271 375.593 68.0017 375.747 68.4624 375.747C68.7408 375.747 69.0175 375.678 69.2926 375.538C69.571 375.399 69.8014 375.189 69.9837 374.907C70.1693 374.625 70.2604 374.267 70.2571 373.833ZM76.3246 377.149C75.7081 377.149 75.1579 376.992 74.674 376.677C74.1934 376.359 73.8156 375.906 73.5405 375.32C73.2687 374.73 73.1328 374.022 73.1328 373.197C73.1328 372.371 73.2704 371.665 73.5455 371.079C73.8239 370.492 74.205 370.043 74.6889 369.732C75.1728 369.42 75.7214 369.264 76.3345 369.264C76.8085 369.264 77.1897 369.344 77.478 369.503C77.7697 369.659 77.995 369.841 78.1541 370.05C78.3165 370.259 78.4425 370.442 78.532 370.602H78.6215V366.818H80.108V377H78.6563V375.812H78.532C78.4425 375.974 78.3132 376.16 78.1442 376.369C77.9785 376.577 77.7498 376.76 77.4581 376.915C77.1665 377.071 76.7886 377.149 76.3246 377.149ZM76.6527 375.881C77.0803 375.881 77.4415 375.769 77.7365 375.543C78.0348 375.315 78.2602 374.998 78.4127 374.594C78.5684 374.189 78.6463 373.719 78.6463 373.182C78.6463 372.652 78.5701 372.187 78.4176 371.79C78.2652 371.392 78.0415 371.082 77.7465 370.86C77.4515 370.638 77.0869 370.527 76.6527 370.527C76.2053 370.527 75.8324 370.643 75.5341 370.875C75.2358 371.107 75.0104 371.424 74.858 371.825C74.7088 372.226 74.6343 372.678 74.6343 373.182C74.6343 373.692 74.7105 374.151 74.8629 374.559C75.0154 374.967 75.2408 375.29 75.5391 375.528C75.8407 375.764 76.2119 375.881 76.6527 375.881ZM84.1719 377.169C83.688 377.169 83.2505 377.08 82.8594 376.901C82.4683 376.718 82.1584 376.455 81.9297 376.11C81.7043 375.765 81.5916 375.343 81.5916 374.842C81.5916 374.411 81.6745 374.057 81.8402 373.778C82.0059 373.5 82.2297 373.28 82.5114 373.117C82.7931 372.955 83.108 372.832 83.456 372.749C83.804 372.666 84.1586 372.603 84.5199 372.56C84.9773 372.507 85.3485 372.464 85.6336 372.431C85.9186 372.395 86.1257 372.337 86.255 372.257C86.3843 372.178 86.4489 372.048 86.4489 371.869V371.835C86.4489 371.4 86.3263 371.064 86.081 370.825C85.839 370.587 85.4778 370.467 84.9972 370.467C84.4967 370.467 84.1023 370.578 83.814 370.8C83.5289 371.019 83.3317 371.263 83.2223 371.531L81.8253 371.213C81.991 370.749 82.233 370.375 82.5512 370.089C82.8727 369.801 83.2422 369.592 83.6598 369.463C84.0774 369.33 84.5166 369.264 84.9773 369.264C85.2822 369.264 85.6054 369.301 85.9468 369.374C86.2915 369.443 86.613 369.572 86.9113 369.761C87.2129 369.95 87.4598 370.22 87.652 370.572C87.8443 370.92 87.9404 371.372 87.9404 371.929V377H86.4887V375.956H86.429C86.3329 376.148 86.1887 376.337 85.9965 376.523C85.8042 376.708 85.5573 376.862 85.2557 376.985C84.9541 377.108 84.5928 377.169 84.1719 377.169ZM84.4951 375.976C84.906 375.976 85.2574 375.895 85.549 375.732C85.844 375.57 86.0677 375.358 86.2202 375.096C86.376 374.831 86.4539 374.547 86.4539 374.246V373.261C86.4008 373.314 86.2981 373.364 86.1456 373.411C85.9965 373.454 85.8258 373.492 85.6336 373.525C85.4413 373.555 85.2541 373.583 85.0718 373.609C84.8895 373.633 84.737 373.652 84.6144 373.669C84.326 373.705 84.0625 373.767 83.8239 373.853C83.5886 373.939 83.3997 374.063 83.2571 374.226C83.1179 374.385 83.0483 374.597 83.0483 374.862C83.0483 375.23 83.1842 375.509 83.456 375.697C83.7278 375.883 84.0741 375.976 84.4951 375.976ZM84.4404 368.344L85.6037 366.053H87.1698L85.6286 368.344H84.4404ZM95.8995 369.364L93.1304 377H91.5395L88.7653 369.364H90.3612L92.2951 375.24H92.3747L94.3037 369.364H95.8995ZM100.048 377.154C99.2956 377.154 98.6477 376.993 98.1041 376.672C97.5638 376.347 97.1462 375.891 96.8512 375.305C96.5596 374.715 96.4137 374.024 96.4137 373.232C96.4137 372.449 96.5596 371.76 96.8512 371.163C97.1462 370.567 97.5572 370.101 98.0842 369.766C98.6145 369.432 99.2343 369.264 99.9436 369.264C100.374 369.264 100.792 369.335 101.196 369.478C101.601 369.621 101.964 369.844 102.285 370.149C102.607 370.454 102.86 370.85 103.046 371.337C103.231 371.821 103.324 372.41 103.324 373.102V373.629H97.2539V372.516H101.868C101.868 372.125 101.788 371.778 101.629 371.477C101.47 371.172 101.246 370.931 100.958 370.756C100.673 370.58 100.338 370.492 99.9535 370.492C99.5359 370.492 99.1713 370.595 98.8598 370.8C98.5515 371.003 98.3129 371.268 98.1439 371.596C97.9781 371.921 97.8953 372.274 97.8953 372.655V373.525C97.8953 374.035 97.9848 374.469 98.1637 374.827C98.346 375.185 98.5996 375.459 98.9244 375.648C99.2492 375.833 99.6287 375.926 100.063 375.926C100.345 375.926 100.601 375.886 100.833 375.807C101.066 375.724 101.266 375.601 101.435 375.439C101.604 375.277 101.733 375.076 101.823 374.837L103.23 375.091C103.117 375.505 102.915 375.868 102.623 376.18C102.335 376.488 101.972 376.728 101.534 376.901C101.1 377.07 100.605 377.154 100.048 377.154ZM104.694 377V369.364H106.18V377H104.694ZM105.444 368.185C105.186 368.185 104.964 368.099 104.778 367.927C104.596 367.751 104.505 367.542 104.505 367.3C104.505 367.055 104.596 366.846 104.778 366.674C104.964 366.498 105.186 366.411 105.444 366.411C105.703 366.411 105.923 366.498 106.106 366.674C106.291 366.846 106.384 367.055 106.384 367.3C106.384 367.542 106.291 367.751 106.106 367.927C105.923 368.099 105.703 368.185 105.444 368.185ZM113.622 371.228L112.275 371.467C112.219 371.294 112.129 371.13 112.006 370.974C111.887 370.819 111.725 370.691 111.519 370.592C111.314 370.492 111.057 370.442 110.749 370.442C110.328 370.442 109.976 370.537 109.695 370.726C109.413 370.911 109.272 371.152 109.272 371.447C109.272 371.702 109.367 371.907 109.555 372.063C109.744 372.219 110.049 372.347 110.47 372.446L111.683 372.724C112.386 372.887 112.91 373.137 113.254 373.475C113.599 373.813 113.771 374.252 113.771 374.793C113.771 375.25 113.639 375.658 113.374 376.016C113.112 376.37 112.746 376.649 112.275 376.851C111.808 377.053 111.266 377.154 110.649 377.154C109.794 377.154 109.096 376.972 108.556 376.607C108.016 376.239 107.684 375.717 107.562 375.041L108.999 374.822C109.088 375.197 109.272 375.48 109.55 375.673C109.829 375.862 110.192 375.956 110.639 375.956C111.126 375.956 111.516 375.855 111.808 375.653C112.099 375.447 112.245 375.197 112.245 374.902C112.245 374.663 112.156 374.463 111.977 374.3C111.801 374.138 111.531 374.015 111.166 373.933L109.874 373.649C109.161 373.487 108.634 373.228 108.293 372.874C107.955 372.519 107.786 372.07 107.786 371.526C107.786 371.076 107.912 370.681 108.163 370.343C108.415 370.005 108.763 369.741 109.207 369.553C109.652 369.36 110.16 369.264 110.734 369.264C111.559 369.264 112.209 369.443 112.683 369.801C113.157 370.156 113.47 370.631 113.622 371.228Z" fill="#4B5563"/>
<path d="M331.42 377.139C330.707 377.139 330.077 377.017 329.531 376.771C328.987 376.526 328.561 376.188 328.253 375.757C327.945 375.326 327.792 374.836 327.795 374.286C327.792 373.855 327.88 373.459 328.059 373.097C328.241 372.733 328.488 372.429 328.8 372.188C329.111 371.942 329.459 371.786 329.844 371.72V371.661C329.337 371.538 328.931 371.266 328.626 370.845C328.321 370.424 328.17 369.94 328.173 369.393C328.17 368.873 328.308 368.409 328.586 368.001C328.868 367.59 329.254 367.267 329.744 367.032C330.235 366.797 330.793 366.679 331.42 366.679C332.04 366.679 332.593 366.798 333.08 367.037C333.571 367.272 333.957 367.595 334.239 368.006C334.52 368.414 334.663 368.876 334.666 369.393C334.663 369.94 334.507 370.424 334.199 370.845C333.891 371.266 333.49 371.538 332.996 371.661V371.72C333.377 371.786 333.72 371.942 334.025 372.188C334.333 372.429 334.578 372.733 334.761 373.097C334.946 373.459 335.041 373.855 335.044 374.286C335.041 374.836 334.885 375.326 334.577 375.757C334.268 376.188 333.841 376.526 333.294 376.771C332.75 377.017 332.126 377.139 331.42 377.139ZM331.42 375.881C331.841 375.881 332.205 375.812 332.513 375.673C332.822 375.53 333.06 375.333 333.229 375.081C333.398 374.826 333.485 374.527 333.488 374.186C333.485 373.831 333.392 373.518 333.21 373.246C333.031 372.975 332.787 372.761 332.479 372.605C332.17 372.449 331.817 372.371 331.42 372.371C331.019 372.371 330.662 372.449 330.351 372.605C330.039 372.761 329.794 372.975 329.615 373.246C329.436 373.518 329.348 373.831 329.352 374.186C329.348 374.527 329.429 374.826 329.595 375.081C329.764 375.333 330.004 375.53 330.316 375.673C330.628 375.812 330.996 375.881 331.42 375.881ZM331.42 371.143C331.758 371.143 332.058 371.076 332.32 370.94C332.581 370.804 332.787 370.615 332.936 370.373C333.089 370.131 333.166 369.848 333.17 369.523C333.166 369.205 333.09 368.926 332.941 368.688C332.795 368.449 332.591 368.265 332.33 368.136C332.068 368.003 331.764 367.937 331.42 367.937C331.068 367.937 330.76 368.003 330.495 368.136C330.233 368.265 330.029 368.449 329.884 368.688C329.738 368.926 329.666 369.205 329.67 369.523C329.666 369.848 329.739 370.131 329.888 370.373C330.038 370.615 330.243 370.804 330.505 370.94C330.77 371.076 331.075 371.143 331.42 371.143ZM340.09 377.169C339.304 377.166 338.633 376.959 338.076 376.548C337.52 376.137 337.094 375.538 336.799 374.753C336.504 373.967 336.356 373.021 336.356 371.914C336.356 370.81 336.504 369.867 336.799 369.085C337.097 368.303 337.525 367.706 338.081 367.295C338.641 366.884 339.311 366.679 340.09 366.679C340.869 366.679 341.537 366.886 342.093 367.3C342.65 367.711 343.076 368.308 343.371 369.09C343.669 369.869 343.819 370.81 343.819 371.914C343.819 373.024 343.671 373.972 343.376 374.758C343.081 375.54 342.655 376.138 342.098 376.553C341.542 376.964 340.872 377.169 340.09 377.169ZM340.09 375.842C340.779 375.842 341.318 375.505 341.706 374.832C342.097 374.16 342.292 373.187 342.292 371.914C342.292 371.069 342.203 370.355 342.024 369.771C341.848 369.185 341.595 368.741 341.263 368.439C340.935 368.134 340.544 367.982 340.09 367.982C339.404 367.982 338.865 368.32 338.474 368.996C338.083 369.672 337.886 370.645 337.882 371.914C337.882 372.763 337.97 373.48 338.146 374.067C338.325 374.65 338.578 375.093 338.907 375.394C339.235 375.692 339.629 375.842 340.09 375.842ZM350.617 375.091V374.554C350.617 374.17 350.696 373.818 350.855 373.5C351.018 373.179 351.253 372.922 351.561 372.729C351.873 372.534 352.249 372.436 352.69 372.436C353.141 372.436 353.519 372.532 353.824 372.724C354.128 372.917 354.359 373.174 354.515 373.495C354.674 373.817 354.753 374.17 354.753 374.554V375.091C354.753 375.475 354.674 375.828 354.515 376.15C354.355 376.468 354.122 376.725 353.814 376.92C353.509 377.113 353.134 377.209 352.69 377.209C352.243 377.209 351.865 377.113 351.556 376.92C351.248 376.725 351.015 376.468 350.855 376.15C350.696 375.828 350.617 375.475 350.617 375.091ZM351.775 374.554V375.091C351.775 375.376 351.843 375.634 351.979 375.866C352.115 376.098 352.352 376.214 352.69 376.214C353.025 376.214 353.258 376.098 353.391 375.866C353.524 375.634 353.59 375.376 353.59 375.091V374.554C353.59 374.269 353.525 374.01 353.396 373.778C353.27 373.546 353.035 373.43 352.69 373.43C352.359 373.43 352.123 373.546 351.984 373.778C351.845 374.01 351.775 374.269 351.775 374.554ZM345.496 369.264V368.727C345.496 368.343 345.576 367.99 345.735 367.668C345.897 367.347 346.132 367.09 346.441 366.898C346.752 366.705 347.128 366.609 347.569 366.609C348.02 366.609 348.398 366.705 348.703 366.898C349.008 367.09 349.238 367.347 349.394 367.668C349.55 367.99 349.628 368.343 349.628 368.727V369.264C349.628 369.649 349.548 370.002 349.389 370.323C349.233 370.641 349.001 370.898 348.693 371.094C348.388 371.286 348.013 371.382 347.569 371.382C347.119 371.382 346.739 371.286 346.431 371.094C346.126 370.898 345.894 370.641 345.735 370.323C345.576 370.002 345.496 369.649 345.496 369.264ZM346.659 368.727V369.264C346.659 369.549 346.726 369.808 346.858 370.04C346.994 370.272 347.231 370.388 347.569 370.388C347.901 370.388 348.133 370.272 348.265 370.04C348.401 369.808 348.469 369.549 348.469 369.264V368.727C348.469 368.442 348.404 368.184 348.275 367.952C348.146 367.72 347.911 367.604 347.569 367.604C347.238 367.604 347.003 367.72 346.863 367.952C346.727 368.184 346.659 368.442 346.659 368.727ZM345.968 377L352.968 366.818H354.157L347.157 377H345.968Z" fill="black"/>
<g style="mix-blend-mode:multiply">
<rect x="58" y="123" width="134" height="164" fill="#F3F4F6"/>
</g>
<g style="mix-blend-mode:multiply">
<rect x="58" y="244" width="134" height="43" fill="#586F55"/>
</g>
<g style="mix-blend-mode:multiply">
<rect x="222" y="123" width="134" height="164" fill="#F3F4F6"/>
</g>
<g style="mix-blend-mode:multiply">
<rect x="222" y="150" width="134" height="137" fill="#AFD399"/>
</g>
</svg>
