<svg width="291" height="396" viewBox="0 0 291 396" fill="none" xmlns="http://www.w3.org/2000/svg">
<g filter="url(#filter0_d_218_177)">
<rect x="8" y="7" width="275" height="380" rx="16" fill="#D4FFD0"/>
</g>
<path d="M39.712 37.312H45.104V39.328H39.712V37.312ZM39.904 41.92H46V44H37.328V32.8H45.792V34.88H39.904V41.92ZM50.7455 44.128C50.0095 44.128 49.3002 44.0427 48.6175 43.872C47.9455 43.6907 47.4122 43.4667 47.0175 43.2L47.8495 41.408C48.2442 41.6533 48.7082 41.856 49.2415 42.016C49.7855 42.1653 50.3188 42.24 50.8415 42.24C51.4175 42.24 51.8228 42.1707 52.0575 42.032C52.3028 41.8933 52.4255 41.7013 52.4255 41.456C52.4255 41.2533 52.3295 41.104 52.1375 41.008C51.9562 40.9013 51.7108 40.8213 51.4015 40.768C51.0922 40.7147 50.7508 40.6613 50.3775 40.608C50.0148 40.5547 49.6468 40.4853 49.2735 40.4C48.9002 40.304 48.5588 40.1653 48.2495 39.984C47.9402 39.8027 47.6895 39.5573 47.4975 39.248C47.3162 38.9387 47.2255 38.5387 47.2255 38.048C47.2255 37.504 47.3802 37.024 47.6895 36.608C48.0095 36.192 48.4682 35.8667 49.0655 35.632C49.6628 35.3867 50.3775 35.264 51.2095 35.264C51.7962 35.264 52.3935 35.328 53.0015 35.456C53.6095 35.584 54.1162 35.7707 54.5215 36.016L53.6895 37.792C53.2735 37.5467 52.8522 37.3813 52.4255 37.296C52.0095 37.2 51.6042 37.152 51.2095 37.152C50.6548 37.152 50.2495 37.2267 49.9935 37.376C49.7375 37.5253 49.6095 37.7173 49.6095 37.952C49.6095 38.1653 49.7002 38.3253 49.8815 38.432C50.0735 38.5387 50.3242 38.624 50.6335 38.688C50.9428 38.752 51.2788 38.8107 51.6415 38.864C52.0148 38.9067 52.3882 38.976 52.7615 39.072C53.1348 39.168 53.4708 39.3067 53.7695 39.488C54.0788 39.6587 54.3295 39.8987 54.5215 40.208C54.7135 40.5067 54.8095 40.9013 54.8095 41.392C54.8095 41.9253 54.6495 42.4 54.3295 42.816C54.0095 43.2213 53.5455 43.5413 52.9375 43.776C52.3402 44.0107 51.6095 44.128 50.7455 44.128ZM59.8795 44.128C58.8662 44.128 58.0768 43.872 57.5115 43.36C56.9462 42.8373 56.6635 42.064 56.6635 41.04V33.488H59.1595V41.008C59.1595 41.3707 59.2555 41.6533 59.4475 41.856C59.6395 42.048 59.9008 42.144 60.2315 42.144C60.6262 42.144 60.9622 42.0373 61.2395 41.824L61.9115 43.584C61.6555 43.7653 61.3462 43.904 60.9835 44C60.6315 44.0853 60.2635 44.128 59.8795 44.128ZM55.3355 37.504V35.584H61.3035V37.504H55.3355ZM68.6026 44V42.32L68.4426 41.952V38.944C68.4426 38.4107 68.2773 37.9947 67.9466 37.696C67.6266 37.3973 67.1306 37.248 66.4586 37.248C66 37.248 65.5466 37.3227 65.0986 37.472C64.6613 37.6107 64.288 37.8027 63.9786 38.048L63.0826 36.304C63.552 35.9733 64.1173 35.7173 64.7786 35.536C65.44 35.3547 66.112 35.264 66.7946 35.264C68.1066 35.264 69.1253 35.5733 69.8506 36.192C70.576 36.8107 70.9386 37.776 70.9386 39.088V44H68.6026ZM65.9786 44.128C65.3066 44.128 64.7306 44.016 64.2506 43.792C63.7706 43.5573 63.4026 43.2427 63.1466 42.848C62.8906 42.4533 62.7626 42.0107 62.7626 41.52C62.7626 41.008 62.8853 40.56 63.1306 40.176C63.3866 39.792 63.7866 39.4933 64.3306 39.28C64.8746 39.056 65.584 38.944 66.4586 38.944H68.7466V40.4H66.7306C66.144 40.4 65.7386 40.496 65.5146 40.688C65.3013 40.88 65.1946 41.12 65.1946 41.408C65.1946 41.728 65.3173 41.984 65.5626 42.176C65.8186 42.3573 66.1653 42.448 66.6026 42.448C67.0186 42.448 67.392 42.352 67.7226 42.16C68.0533 41.9573 68.2933 41.664 68.4426 41.28L68.8266 42.432C68.6453 42.9867 68.3146 43.408 67.8346 43.696C67.3546 43.984 66.736 44.128 65.9786 44.128ZM76.7276 44.128C75.7143 44.128 74.925 43.872 74.3596 43.36C73.7943 42.8373 73.5116 42.064 73.5116 41.04V33.488H76.0076V41.008C76.0076 41.3707 76.1036 41.6533 76.2956 41.856C76.4876 42.048 76.749 42.144 77.0796 42.144C77.4743 42.144 77.8103 42.0373 78.0876 41.824L78.7596 43.584C78.5036 43.7653 78.1943 43.904 77.8316 44C77.4796 44.0853 77.1116 44.128 76.7276 44.128ZM72.1836 37.504V35.584H78.1516V37.504H72.1836ZM80.1707 44V35.392H82.6667V44H80.1707ZM79.9627 34.288L82.1227 31.984H84.8107L81.9147 34.288H79.9627ZM87.8893 44.128C87.1533 44.128 86.4439 44.0427 85.7613 43.872C85.0893 43.6907 84.5559 43.4667 84.1613 43.2L84.9933 41.408C85.3879 41.6533 85.8519 41.856 86.3853 42.016C86.9293 42.1653 87.4626 42.24 87.9853 42.24C88.5613 42.24 88.9666 42.1707 89.2013 42.032C89.4466 41.8933 89.5693 41.7013 89.5693 41.456C89.5693 41.2533 89.4733 41.104 89.2813 41.008C89.0999 40.9013 88.8546 40.8213 88.5453 40.768C88.2359 40.7147 87.8946 40.6613 87.5213 40.608C87.1586 40.5547 86.7906 40.4853 86.4173 40.4C86.0439 40.304 85.7026 40.1653 85.3933 39.984C85.0839 39.8027 84.8333 39.5573 84.6413 39.248C84.4599 38.9387 84.3693 38.5387 84.3693 38.048C84.3693 37.504 84.5239 37.024 84.8333 36.608C85.1533 36.192 85.6119 35.8667 86.2093 35.632C86.8066 35.3867 87.5213 35.264 88.3533 35.264C88.9399 35.264 89.5373 35.328 90.1453 35.456C90.7533 35.584 91.2599 35.7707 91.6653 36.016L90.8333 37.792C90.4173 37.5467 89.9959 37.3813 89.5693 37.296C89.1533 37.2 88.7479 37.152 88.3533 37.152C87.7986 37.152 87.3933 37.2267 87.1373 37.376C86.8813 37.5253 86.7533 37.7173 86.7533 37.952C86.7533 38.1653 86.8439 38.3253 87.0253 38.432C87.2173 38.5387 87.4679 38.624 87.7773 38.688C88.0866 38.752 88.4226 38.8107 88.7853 38.864C89.1586 38.9067 89.5319 38.976 89.9053 39.072C90.2786 39.168 90.6146 39.3067 90.9133 39.488C91.2226 39.6587 91.4733 39.8987 91.6653 40.208C91.8573 40.5067 91.9533 40.9013 91.9533 41.392C91.9533 41.9253 91.7933 42.4 91.4733 42.816C91.1533 43.2213 90.6893 43.5413 90.0813 43.776C89.4839 44.0107 88.7533 44.128 87.8893 44.128ZM97.0233 44.128C96.0099 44.128 95.2206 43.872 94.6552 43.36C94.0899 42.8373 93.8072 42.064 93.8072 41.04V33.488H96.3032V41.008C96.3032 41.3707 96.3992 41.6533 96.5912 41.856C96.7833 42.048 97.0446 42.144 97.3752 42.144C97.7699 42.144 98.1059 42.0373 98.3832 41.824L99.0553 43.584C98.7992 43.7653 98.4899 43.904 98.1273 44C97.7752 44.0853 97.4072 44.128 97.0233 44.128ZM92.4792 37.504V35.584H98.4472V37.504H92.4792ZM100.466 44V35.392H102.962V44H100.466ZM101.714 34.192C101.256 34.192 100.882 34.0587 100.594 33.792C100.306 33.5253 100.162 33.1947 100.162 32.8C100.162 32.4053 100.306 32.0747 100.594 31.808C100.882 31.5413 101.256 31.408 101.714 31.408C102.173 31.408 102.546 31.536 102.834 31.792C103.122 32.0373 103.266 32.3573 103.266 32.752C103.266 33.168 103.122 33.5147 102.834 33.792C102.557 34.0587 102.184 34.192 101.714 34.192ZM109.449 44.128C108.521 44.128 107.694 43.9413 106.969 43.568C106.244 43.184 105.673 42.656 105.257 41.984C104.852 41.312 104.649 40.5493 104.649 39.696C104.649 38.832 104.852 38.0693 105.257 37.408C105.673 36.736 106.244 36.2133 106.969 35.84C107.694 35.456 108.521 35.264 109.449 35.264C110.356 35.264 111.145 35.456 111.817 35.84C112.489 36.2133 112.985 36.752 113.305 37.456L111.369 38.496C111.145 38.0907 110.862 37.792 110.521 37.6C110.19 37.408 109.828 37.312 109.433 37.312C109.006 37.312 108.622 37.408 108.281 37.6C107.94 37.792 107.668 38.064 107.465 38.416C107.273 38.768 107.177 39.1947 107.177 39.696C107.177 40.1973 107.273 40.624 107.465 40.976C107.668 41.328 107.94 41.6 108.281 41.792C108.622 41.984 109.006 42.08 109.433 42.08C109.828 42.08 110.19 41.9893 110.521 41.808C110.862 41.616 111.145 41.312 111.369 40.896L113.305 41.952C112.985 42.6453 112.489 43.184 111.817 43.568C111.145 43.9413 110.356 44.128 109.449 44.128ZM120.032 44V42.32L119.872 41.952V38.944C119.872 38.4107 119.707 37.9947 119.376 37.696C119.056 37.3973 118.56 37.248 117.888 37.248C117.429 37.248 116.976 37.3227 116.528 37.472C116.091 37.6107 115.717 37.8027 115.408 38.048L114.512 36.304C114.981 35.9733 115.547 35.7173 116.208 35.536C116.869 35.3547 117.541 35.264 118.224 35.264C119.536 35.264 120.555 35.5733 121.28 36.192C122.005 36.8107 122.368 37.776 122.368 39.088V44H120.032ZM117.408 44.128C116.736 44.128 116.16 44.016 115.68 43.792C115.2 43.5573 114.832 43.2427 114.576 42.848C114.32 42.4533 114.192 42.0107 114.192 41.52C114.192 41.008 114.315 40.56 114.56 40.176C114.816 39.792 115.216 39.4933 115.76 39.28C116.304 39.056 117.013 38.944 117.888 38.944H120.176V40.4H118.16C117.573 40.4 117.168 40.496 116.944 40.688C116.731 40.88 116.624 41.12 116.624 41.408C116.624 41.728 116.747 41.984 116.992 42.176C117.248 42.3573 117.595 42.448 118.032 42.448C118.448 42.448 118.821 42.352 119.152 42.16C119.483 41.9573 119.723 41.664 119.872 41.28L120.256 42.432C120.075 42.9867 119.744 43.408 119.264 43.696C118.784 43.984 118.165 44.128 117.408 44.128ZM134.762 44.192C133.877 44.192 133.061 44.0533 132.314 43.776C131.578 43.488 130.933 43.0827 130.378 42.56C129.834 42.0373 129.408 41.424 129.098 40.72C128.8 40.016 128.65 39.2427 128.65 38.4C128.65 37.5573 128.8 36.784 129.098 36.08C129.408 35.376 129.84 34.7627 130.394 34.24C130.949 33.7173 131.6 33.3173 132.346 33.04C133.093 32.752 133.914 32.608 134.81 32.608C135.802 32.608 136.693 32.7733 137.482 33.104C138.282 33.4347 138.954 33.9147 139.498 34.544L137.834 36.08C137.429 35.6533 136.986 35.3387 136.506 35.136C136.026 34.9227 135.504 34.816 134.938 34.816C134.394 34.816 133.898 34.9013 133.45 35.072C133.002 35.2427 132.613 35.488 132.282 35.808C131.962 36.128 131.712 36.5067 131.53 36.944C131.36 37.3813 131.274 37.8667 131.274 38.4C131.274 38.9227 131.36 39.4027 131.53 39.84C131.712 40.2773 131.962 40.6613 132.282 40.992C132.613 41.312 132.997 41.5573 133.434 41.728C133.882 41.8987 134.373 41.984 134.906 41.984C135.418 41.984 135.914 41.904 136.394 41.744C136.885 41.5733 137.36 41.2907 137.818 40.896L139.29 42.768C138.682 43.2267 137.973 43.5787 137.162 43.824C136.362 44.0693 135.562 44.192 134.762 44.192ZM136.922 42.432V38.224H139.29V42.768L136.922 42.432ZM145.804 44.128C144.823 44.128 143.959 43.936 143.212 43.552C142.476 43.168 141.905 42.6453 141.5 41.984C141.095 41.312 140.892 40.5493 140.892 39.696C140.892 38.832 141.089 38.0693 141.484 37.408C141.889 36.736 142.439 36.2133 143.132 35.84C143.825 35.456 144.609 35.264 145.484 35.264C146.327 35.264 147.084 35.4453 147.756 35.808C148.439 36.16 148.977 36.672 149.372 37.344C149.767 38.0053 149.964 38.8 149.964 39.728C149.964 39.824 149.959 39.936 149.948 40.064C149.937 40.1813 149.927 40.2933 149.916 40.4H142.924V38.944H148.604L147.644 39.376C147.644 38.928 147.553 38.5387 147.372 38.208C147.191 37.8773 146.94 37.6213 146.62 37.44C146.3 37.248 145.927 37.152 145.5 37.152C145.073 37.152 144.695 37.248 144.364 37.44C144.044 37.6213 143.793 37.8827 143.612 38.224C143.431 38.5547 143.34 38.9493 143.34 39.408V39.792C143.34 40.2613 143.441 40.6773 143.644 41.04C143.857 41.392 144.151 41.664 144.524 41.856C144.908 42.0373 145.356 42.128 145.868 42.128C146.327 42.128 146.727 42.0587 147.068 41.92C147.42 41.7813 147.74 41.5733 148.028 41.296L149.356 42.736C148.961 43.184 148.465 43.5307 147.868 43.776C147.271 44.0107 146.583 44.128 145.804 44.128ZM151.636 44V35.392H154.02V37.824L153.684 37.12C153.94 36.512 154.35 36.0533 154.916 35.744C155.481 35.424 156.169 35.264 156.98 35.264V37.568C156.873 37.5573 156.777 37.552 156.692 37.552C156.606 37.5413 156.516 37.536 156.42 37.536C155.737 37.536 155.182 37.7333 154.756 38.128C154.34 38.512 154.132 39.1147 154.132 39.936V44H151.636ZM163.191 44V42.32L163.031 41.952V38.944C163.031 38.4107 162.866 37.9947 162.535 37.696C162.215 37.3973 161.719 37.248 161.047 37.248C160.589 37.248 160.135 37.3227 159.687 37.472C159.25 37.6107 158.877 37.8027 158.567 38.048L157.671 36.304C158.141 35.9733 158.706 35.7173 159.367 35.536C160.029 35.3547 160.701 35.264 161.383 35.264C162.695 35.264 163.714 35.5733 164.439 36.192C165.165 36.8107 165.527 37.776 165.527 39.088V44H163.191ZM160.567 44.128C159.895 44.128 159.319 44.016 158.839 43.792C158.359 43.5573 157.991 43.2427 157.735 42.848C157.479 42.4533 157.351 42.0107 157.351 41.52C157.351 41.008 157.474 40.56 157.719 40.176C157.975 39.792 158.375 39.4933 158.919 39.28C159.463 39.056 160.173 38.944 161.047 38.944H163.335V40.4H161.319C160.733 40.4 160.327 40.496 160.103 40.688C159.89 40.88 159.783 41.12 159.783 41.408C159.783 41.728 159.906 41.984 160.151 42.176C160.407 42.3573 160.754 42.448 161.191 42.448C161.607 42.448 161.981 42.352 162.311 42.16C162.642 41.9573 162.882 41.664 163.031 41.28L163.415 42.432C163.234 42.9867 162.903 43.408 162.423 43.696C161.943 43.984 161.325 44.128 160.567 44.128ZM167.796 44V32.128H170.292V44H167.796Z" fill="#586F55"/>
<path d="M42.0664 347.145H39.8926L39.8809 346.072H41.7793C42.0996 346.072 42.3711 346.025 42.5938 345.932C42.8203 345.834 42.9922 345.695 43.1094 345.516C43.2266 345.332 43.2852 345.111 43.2852 344.854C43.2852 344.568 43.2305 344.336 43.1211 344.156C43.0117 343.977 42.8438 343.846 42.6172 343.764C42.3945 343.682 42.1094 343.641 41.7617 343.641H40.3379V351H38.8672V342.469H41.7617C42.2305 342.469 42.6484 342.514 43.0156 342.604C43.3867 342.693 43.7012 342.834 43.959 343.025C44.2207 343.213 44.418 343.451 44.5508 343.74C44.6875 344.029 44.7559 344.373 44.7559 344.771C44.7559 345.123 44.6719 345.445 44.5039 345.738C44.3359 346.027 44.0879 346.264 43.7598 346.447C43.4316 346.631 43.0234 346.74 42.5352 346.775L42.0664 347.145ZM42.002 351H39.4297L40.0918 349.834H42.002C42.334 349.834 42.6113 349.779 42.834 349.67C43.0566 349.557 43.2227 349.402 43.332 349.207C43.4453 349.008 43.502 348.775 43.502 348.51C43.502 348.232 43.4531 347.992 43.3555 347.789C43.2578 347.582 43.1035 347.424 42.8926 347.314C42.6816 347.201 42.4062 347.145 42.0664 347.145H40.4141L40.4258 346.072H42.5762L42.9102 346.477C43.3789 346.492 43.7637 346.596 44.0645 346.787C44.3691 346.979 44.5957 347.227 44.7441 347.531C44.8926 347.836 44.9668 348.164 44.9668 348.516C44.9668 349.059 44.8477 349.514 44.6094 349.881C44.375 350.248 44.0371 350.527 43.5957 350.719C43.1543 350.906 42.623 351 42.002 351ZM49.8828 349.729V346.705C49.8828 346.479 49.8418 346.283 49.7598 346.119C49.6777 345.955 49.5527 345.828 49.3848 345.738C49.2207 345.648 49.0137 345.604 48.7637 345.604C48.5332 345.604 48.334 345.643 48.166 345.721C47.998 345.799 47.8672 345.904 47.7734 346.037C47.6797 346.17 47.6328 346.32 47.6328 346.488H46.2266C46.2266 346.238 46.2871 345.996 46.4082 345.762C46.5293 345.527 46.7051 345.318 46.9355 345.135C47.166 344.951 47.4414 344.807 47.7617 344.701C48.082 344.596 48.4414 344.543 48.8398 344.543C49.3164 344.543 49.7383 344.623 50.1055 344.783C50.4766 344.943 50.7676 345.186 50.9785 345.51C51.1934 345.83 51.3008 346.232 51.3008 346.717V349.535C51.3008 349.824 51.3203 350.084 51.3594 350.314C51.4023 350.541 51.4629 350.738 51.541 350.906V351H50.0938C50.0273 350.848 49.9746 350.654 49.9355 350.42C49.9004 350.182 49.8828 349.951 49.8828 349.729ZM50.0879 347.145L50.0996 348.018H49.0859C48.8242 348.018 48.5938 348.043 48.3945 348.094C48.1953 348.141 48.0293 348.211 47.8965 348.305C47.7637 348.398 47.6641 348.512 47.5977 348.645C47.5312 348.777 47.498 348.928 47.498 349.096C47.498 349.264 47.5371 349.418 47.6152 349.559C47.6934 349.695 47.8066 349.803 47.9551 349.881C48.1074 349.959 48.291 349.998 48.5059 349.998C48.7949 349.998 49.0469 349.939 49.2617 349.822C49.4805 349.701 49.6523 349.555 49.7773 349.383C49.9023 349.207 49.9688 349.041 49.9766 348.885L50.4336 349.512C50.3867 349.672 50.3066 349.844 50.1934 350.027C50.0801 350.211 49.9316 350.387 49.748 350.555C49.5684 350.719 49.3516 350.854 49.0977 350.959C48.8477 351.064 48.5586 351.117 48.2305 351.117C47.8164 351.117 47.4473 351.035 47.123 350.871C46.7988 350.703 46.5449 350.479 46.3613 350.197C46.1777 349.912 46.0859 349.59 46.0859 349.23C46.0859 348.895 46.1484 348.598 46.2734 348.34C46.4023 348.078 46.5898 347.859 46.8359 347.684C47.0859 347.508 47.3906 347.375 47.75 347.285C48.1094 347.191 48.5195 347.145 48.9805 347.145H50.0879ZM54.2891 344.66V351H52.8711V344.66H54.2891ZM52.7773 342.996C52.7773 342.781 52.8477 342.604 52.9883 342.463C53.1328 342.318 53.332 342.246 53.5859 342.246C53.8359 342.246 54.0332 342.318 54.1777 342.463C54.3223 342.604 54.3945 342.781 54.3945 342.996C54.3945 343.207 54.3223 343.383 54.1777 343.523C54.0332 343.664 53.8359 343.734 53.5859 343.734C53.332 343.734 53.1328 343.664 52.9883 343.523C52.8477 343.383 52.7773 343.207 52.7773 342.996ZM56.9141 344.66L58.1211 346.764L59.3516 344.66H60.9043L58.9824 347.771L60.9805 351H59.4277L58.1387 348.809L56.8496 351H55.291L57.2832 347.771L55.3672 344.66H56.9141ZM61.4375 347.9V347.766C61.4375 347.309 61.5039 346.885 61.6367 346.494C61.7695 346.1 61.9609 345.758 62.2109 345.469C62.4648 345.176 62.7734 344.949 63.1367 344.789C63.5039 344.625 63.918 344.543 64.3789 344.543C64.8438 344.543 65.2578 344.625 65.6211 344.789C65.9883 344.949 66.2988 345.176 66.5527 345.469C66.8066 345.758 67 346.1 67.1328 346.494C67.2656 346.885 67.332 347.309 67.332 347.766V347.9C67.332 348.357 67.2656 348.781 67.1328 349.172C67 349.562 66.8066 349.904 66.5527 350.197C66.2988 350.486 65.9902 350.713 65.627 350.877C65.2637 351.037 64.8516 351.117 64.3906 351.117C63.9258 351.117 63.5098 351.037 63.1426 350.877C62.7793 350.713 62.4707 350.486 62.2168 350.197C61.9629 349.904 61.7695 349.562 61.6367 349.172C61.5039 348.781 61.4375 348.357 61.4375 347.9ZM62.8496 347.766V347.9C62.8496 348.186 62.8789 348.455 62.9375 348.709C62.9961 348.963 63.0879 349.186 63.2129 349.377C63.3379 349.568 63.498 349.719 63.6934 349.828C63.8887 349.938 64.1211 349.992 64.3906 349.992C64.6523 349.992 64.8789 349.938 65.0703 349.828C65.2656 349.719 65.4258 349.568 65.5508 349.377C65.6758 349.186 65.7676 348.963 65.8262 348.709C65.8887 348.455 65.9199 348.186 65.9199 347.9V347.766C65.9199 347.484 65.8887 347.219 65.8262 346.969C65.7676 346.715 65.6738 346.49 65.5449 346.295C65.4199 346.1 65.2598 345.947 65.0645 345.838C64.873 345.725 64.6445 345.668 64.3789 345.668C64.1133 345.668 63.8828 345.725 63.6875 345.838C63.4961 345.947 63.3379 346.1 63.2129 346.295C63.0879 346.49 62.9961 346.715 62.9375 346.969C62.8789 347.219 62.8496 347.484 62.8496 347.766Z" fill="#696D6E"/>
<path d="M235.51 343.605L232.961 351H231.42L234.631 342.469H235.615L235.51 343.605ZM237.643 351L235.088 343.605L234.977 342.469H235.967L239.189 351H237.643ZM237.52 347.836V349.002H232.879V347.836H237.52ZM241.516 342V351H240.098V342H241.516ZM245.969 344.66V345.691H242.395V344.66H245.969ZM243.426 343.107H244.838V349.248C244.838 349.443 244.865 349.594 244.92 349.699C244.979 349.801 245.059 349.869 245.16 349.904C245.262 349.939 245.381 349.957 245.518 349.957C245.615 349.957 245.709 349.951 245.799 349.939C245.889 349.928 245.961 349.916 246.016 349.904L246.021 350.982C245.904 351.018 245.768 351.049 245.611 351.076C245.459 351.104 245.283 351.117 245.084 351.117C244.76 351.117 244.473 351.061 244.223 350.947C243.973 350.83 243.777 350.641 243.637 350.379C243.496 350.117 243.426 349.77 243.426 349.336V343.107ZM246.648 347.9V347.766C246.648 347.309 246.715 346.885 246.848 346.494C246.98 346.1 247.172 345.758 247.422 345.469C247.676 345.176 247.984 344.949 248.348 344.789C248.715 344.625 249.129 344.543 249.59 344.543C250.055 344.543 250.469 344.625 250.832 344.789C251.199 344.949 251.51 345.176 251.764 345.469C252.018 345.758 252.211 346.1 252.344 346.494C252.477 346.885 252.543 347.309 252.543 347.766V347.9C252.543 348.357 252.477 348.781 252.344 349.172C252.211 349.562 252.018 349.904 251.764 350.197C251.51 350.486 251.201 350.713 250.838 350.877C250.475 351.037 250.062 351.117 249.602 351.117C249.137 351.117 248.721 351.037 248.354 350.877C247.99 350.713 247.682 350.486 247.428 350.197C247.174 349.904 246.98 349.562 246.848 349.172C246.715 348.781 246.648 348.357 246.648 347.9ZM248.061 347.766V347.9C248.061 348.186 248.09 348.455 248.148 348.709C248.207 348.963 248.299 349.186 248.424 349.377C248.549 349.568 248.709 349.719 248.904 349.828C249.1 349.938 249.332 349.992 249.602 349.992C249.863 349.992 250.09 349.938 250.281 349.828C250.477 349.719 250.637 349.568 250.762 349.377C250.887 349.186 250.979 348.963 251.037 348.709C251.1 348.455 251.131 348.186 251.131 347.9V347.766C251.131 347.484 251.1 347.219 251.037 346.969C250.979 346.715 250.885 346.49 250.756 346.295C250.631 346.1 250.471 345.947 250.275 345.838C250.084 345.725 249.855 345.668 249.59 345.668C249.324 345.668 249.094 345.725 248.898 345.838C248.707 345.947 248.549 346.1 248.424 346.295C248.299 346.49 248.207 346.715 248.148 346.969C248.09 347.219 248.061 347.484 248.061 347.766Z" fill="#696D6E"/>
<path d="M44.0703 314.396C44.0703 314.218 44.043 314.058 43.9883 313.917C43.9382 313.771 43.8424 313.639 43.7012 313.521C43.5599 313.397 43.3617 313.277 43.1064 313.158C42.8512 313.04 42.5208 312.917 42.1152 312.789C41.6641 312.643 41.2357 312.479 40.8301 312.297C40.429 312.115 40.0736 311.903 39.7637 311.661C39.4583 311.415 39.2168 311.13 39.0391 310.807C38.8659 310.483 38.7793 310.107 38.7793 309.679C38.7793 309.264 38.8704 308.888 39.0527 308.551C39.235 308.209 39.4902 307.917 39.8184 307.676C40.1465 307.43 40.5339 307.241 40.9805 307.108C41.4316 306.976 41.9261 306.91 42.4639 306.91C43.1976 306.91 43.8379 307.042 44.3848 307.307C44.9316 307.571 45.3555 307.933 45.6562 308.394C45.9616 308.854 46.1143 309.38 46.1143 309.973H44.0771C44.0771 309.681 44.0156 309.426 43.8926 309.207C43.7741 308.984 43.5918 308.808 43.3457 308.681C43.1042 308.553 42.7988 308.489 42.4297 308.489C42.0742 308.489 41.778 308.544 41.541 308.653C41.304 308.758 41.1263 308.902 41.0078 309.084C40.8893 309.262 40.8301 309.462 40.8301 309.686C40.8301 309.854 40.8711 310.007 40.9531 310.144C41.0397 310.28 41.1673 310.408 41.3359 310.526C41.5046 310.645 41.7119 310.757 41.958 310.861C42.2041 310.966 42.4889 311.069 42.8125 311.169C43.3548 311.333 43.8311 311.518 44.2412 311.723C44.6559 311.928 45.0023 312.158 45.2803 312.413C45.5583 312.668 45.7679 312.958 45.9092 313.281C46.0505 313.605 46.1211 313.972 46.1211 314.382C46.1211 314.815 46.0368 315.202 45.8682 315.544C45.6995 315.886 45.4557 316.175 45.1367 316.412C44.8177 316.649 44.4372 316.829 43.9951 316.952C43.5531 317.075 43.0586 317.137 42.5117 317.137C42.0195 317.137 41.5342 317.073 41.0557 316.945C40.5771 316.813 40.1419 316.615 39.75 316.351C39.3626 316.086 39.0527 315.749 38.8203 315.339C38.5879 314.929 38.4717 314.443 38.4717 313.883H40.5293C40.5293 314.193 40.5771 314.455 40.6729 314.669C40.7686 314.883 40.903 315.056 41.0762 315.188C41.2539 315.321 41.4635 315.416 41.7051 315.476C41.9512 315.535 42.2201 315.564 42.5117 315.564C42.8672 315.564 43.1589 315.514 43.3867 315.414C43.6191 315.314 43.79 315.175 43.8994 314.997C44.0133 314.819 44.0703 314.619 44.0703 314.396ZM49.5186 309.604V317H47.543V309.604H49.5186ZM47.6045 308.708L48.9443 306.603H51.084L49.2041 308.708H47.6045ZM54.8438 309.604V310.998H50.5371V309.604H54.8438ZM51.6035 307.778H53.5723V314.771C53.5723 314.986 53.5996 315.15 53.6543 315.264C53.7135 315.378 53.8001 315.457 53.9141 315.503C54.028 315.544 54.1715 315.564 54.3447 315.564C54.4678 315.564 54.5771 315.56 54.6729 315.551C54.7731 315.537 54.8574 315.523 54.9258 315.51L54.9326 316.959C54.764 317.014 54.5817 317.057 54.3857 317.089C54.1898 317.121 53.9733 317.137 53.7363 317.137C53.3034 317.137 52.9251 317.066 52.6016 316.925C52.2826 316.779 52.0365 316.547 51.8633 316.228C51.6901 315.909 51.6035 315.489 51.6035 314.97V307.778ZM58.043 309.604V317H56.0674V309.604H58.043ZM55.9443 307.676C55.9443 307.389 56.0446 307.152 56.2451 306.965C56.4456 306.778 56.7145 306.685 57.0518 306.685C57.3844 306.685 57.651 306.778 57.8516 306.965C58.0566 307.152 58.1592 307.389 58.1592 307.676C58.1592 307.963 58.0566 308.2 57.8516 308.387C57.651 308.574 57.3844 308.667 57.0518 308.667C56.7145 308.667 56.4456 308.574 56.2451 308.387C56.0446 308.2 55.9443 307.963 55.9443 307.676ZM59.3555 313.377V313.233C59.3555 312.691 59.4329 312.192 59.5879 311.736C59.7428 311.276 59.9684 310.877 60.2646 310.54C60.5609 310.203 60.9255 309.941 61.3584 309.754C61.7913 309.562 62.2881 309.467 62.8486 309.467C63.4092 309.467 63.9082 309.562 64.3457 309.754C64.7832 309.941 65.1501 310.203 65.4463 310.54C65.7471 310.877 65.9749 311.276 66.1299 311.736C66.2848 312.192 66.3623 312.691 66.3623 313.233V313.377C66.3623 313.915 66.2848 314.414 66.1299 314.874C65.9749 315.33 65.7471 315.729 65.4463 316.07C65.1501 316.408 64.7855 316.67 64.3525 316.856C63.9196 317.043 63.4229 317.137 62.8623 317.137C62.3018 317.137 61.8027 317.043 61.3652 316.856C60.9323 316.67 60.5654 316.408 60.2646 316.07C59.9684 315.729 59.7428 315.33 59.5879 314.874C59.4329 314.414 59.3555 313.915 59.3555 313.377ZM61.3242 313.233V313.377C61.3242 313.687 61.3516 313.976 61.4062 314.245C61.4609 314.514 61.5475 314.751 61.666 314.956C61.7891 315.157 61.9486 315.314 62.1445 315.428C62.3405 315.542 62.5798 315.599 62.8623 315.599C63.1357 315.599 63.3704 315.542 63.5664 315.428C63.7624 315.314 63.9196 315.157 64.0381 314.956C64.1566 314.751 64.2432 314.514 64.2979 314.245C64.3571 313.976 64.3867 313.687 64.3867 313.377V313.233C64.3867 312.933 64.3571 312.65 64.2979 312.386C64.2432 312.117 64.1543 311.88 64.0312 311.675C63.9128 311.465 63.7555 311.301 63.5596 311.183C63.3636 311.064 63.1266 311.005 62.8486 311.005C62.5706 311.005 62.3337 311.064 62.1377 311.183C61.9463 311.301 61.7891 311.465 61.666 311.675C61.5475 311.88 61.4609 312.117 61.4062 312.386C61.3516 312.65 61.3242 312.933 61.3242 313.233ZM76.9512 313.698H78.9951C78.9541 314.368 78.7695 314.963 78.4414 315.482C78.1178 316.002 77.6644 316.408 77.0811 316.699C76.5023 316.991 75.805 317.137 74.9893 317.137C74.3512 317.137 73.7793 317.027 73.2734 316.809C72.7676 316.585 72.3346 316.266 71.9746 315.852C71.6191 315.437 71.348 314.936 71.1611 314.348C70.9743 313.76 70.8809 313.101 70.8809 312.372V311.682C70.8809 310.952 70.9766 310.294 71.168 309.706C71.3639 309.114 71.6419 308.61 72.002 308.195C72.3665 307.781 72.8018 307.462 73.3076 307.238C73.8135 307.015 74.3786 306.903 75.0029 306.903C75.8324 306.903 76.5319 307.054 77.1016 307.354C77.6758 307.655 78.1201 308.07 78.4346 308.599C78.7536 309.127 78.945 309.729 79.0088 310.403H76.958C76.9352 310.002 76.8555 309.663 76.7188 309.385C76.582 309.102 76.3747 308.89 76.0967 308.749C75.8232 308.603 75.4587 308.53 75.0029 308.53C74.6611 308.53 74.3626 308.594 74.1074 308.722C73.8522 308.849 73.638 309.043 73.4648 309.303C73.2917 309.562 73.1618 309.891 73.0752 310.287C72.9932 310.679 72.9521 311.139 72.9521 311.668V312.372C72.9521 312.887 72.9909 313.34 73.0684 313.732C73.1458 314.12 73.2643 314.448 73.4238 314.717C73.5879 314.981 73.7975 315.182 74.0527 315.318C74.3125 315.451 74.6247 315.517 74.9893 315.517C75.4176 315.517 75.7708 315.448 76.0488 315.312C76.3268 315.175 76.5387 314.972 76.6846 314.703C76.835 314.434 76.9238 314.099 76.9512 313.698Z" fill="#414D55"/>
<rect opacity="0.5" x="217.917" y="329.75" width="34.3333" height="4.5" rx="1.25" fill="#B8D2DE" fill-opacity="0.3" stroke="#586F55" stroke-width="1.5"/>
<rect opacity="0.5" x="173.125" y="329.75" width="34.3333" height="4.5" rx="1.25" fill="#B8D2DE" fill-opacity="0.3" stroke="#586F55" stroke-width="1.5"/>
<rect opacity="0.5" x="128.333" y="329.75" width="34.3333" height="4.5" rx="1.25" fill="#B8D2DE" fill-opacity="0.3" stroke="#586F55" stroke-width="1.5"/>
<rect x="82.7916" y="329" width="35.8333" height="6" rx="2" fill="#586F55"/>
<rect x="38" y="329" width="35.8333" height="6" rx="2" fill="#586F55"/>
<path d="M42.0664 280.145H39.8926L39.8809 279.072H41.7793C42.0996 279.072 42.3711 279.025 42.5938 278.932C42.8203 278.834 42.9922 278.695 43.1094 278.516C43.2266 278.332 43.2852 278.111 43.2852 277.854C43.2852 277.568 43.2305 277.336 43.1211 277.156C43.0117 276.977 42.8438 276.846 42.6172 276.764C42.3945 276.682 42.1094 276.641 41.7617 276.641H40.3379V284H38.8672V275.469H41.7617C42.2305 275.469 42.6484 275.514 43.0156 275.604C43.3867 275.693 43.7012 275.834 43.959 276.025C44.2207 276.213 44.418 276.451 44.5508 276.74C44.6875 277.029 44.7559 277.373 44.7559 277.771C44.7559 278.123 44.6719 278.445 44.5039 278.738C44.3359 279.027 44.0879 279.264 43.7598 279.447C43.4316 279.631 43.0234 279.74 42.5352 279.775L42.0664 280.145ZM42.002 284H39.4297L40.0918 282.834H42.002C42.334 282.834 42.6113 282.779 42.834 282.67C43.0566 282.557 43.2227 282.402 43.332 282.207C43.4453 282.008 43.502 281.775 43.502 281.51C43.502 281.232 43.4531 280.992 43.3555 280.789C43.2578 280.582 43.1035 280.424 42.8926 280.314C42.6816 280.201 42.4062 280.145 42.0664 280.145H40.4141L40.4258 279.072H42.5762L42.9102 279.477C43.3789 279.492 43.7637 279.596 44.0645 279.787C44.3691 279.979 44.5957 280.227 44.7441 280.531C44.8926 280.836 44.9668 281.164 44.9668 281.516C44.9668 282.059 44.8477 282.514 44.6094 282.881C44.375 283.248 44.0371 283.527 43.5957 283.719C43.1543 283.906 42.623 284 42.002 284ZM49.8828 282.729V279.705C49.8828 279.479 49.8418 279.283 49.7598 279.119C49.6777 278.955 49.5527 278.828 49.3848 278.738C49.2207 278.648 49.0137 278.604 48.7637 278.604C48.5332 278.604 48.334 278.643 48.166 278.721C47.998 278.799 47.8672 278.904 47.7734 279.037C47.6797 279.17 47.6328 279.32 47.6328 279.488H46.2266C46.2266 279.238 46.2871 278.996 46.4082 278.762C46.5293 278.527 46.7051 278.318 46.9355 278.135C47.166 277.951 47.4414 277.807 47.7617 277.701C48.082 277.596 48.4414 277.543 48.8398 277.543C49.3164 277.543 49.7383 277.623 50.1055 277.783C50.4766 277.943 50.7676 278.186 50.9785 278.51C51.1934 278.83 51.3008 279.232 51.3008 279.717V282.535C51.3008 282.824 51.3203 283.084 51.3594 283.314C51.4023 283.541 51.4629 283.738 51.541 283.906V284H50.0938C50.0273 283.848 49.9746 283.654 49.9355 283.42C49.9004 283.182 49.8828 282.951 49.8828 282.729ZM50.0879 280.145L50.0996 281.018H49.0859C48.8242 281.018 48.5938 281.043 48.3945 281.094C48.1953 281.141 48.0293 281.211 47.8965 281.305C47.7637 281.398 47.6641 281.512 47.5977 281.645C47.5312 281.777 47.498 281.928 47.498 282.096C47.498 282.264 47.5371 282.418 47.6152 282.559C47.6934 282.695 47.8066 282.803 47.9551 282.881C48.1074 282.959 48.291 282.998 48.5059 282.998C48.7949 282.998 49.0469 282.939 49.2617 282.822C49.4805 282.701 49.6523 282.555 49.7773 282.383C49.9023 282.207 49.9688 282.041 49.9766 281.885L50.4336 282.512C50.3867 282.672 50.3066 282.844 50.1934 283.027C50.0801 283.211 49.9316 283.387 49.748 283.555C49.5684 283.719 49.3516 283.854 49.0977 283.959C48.8477 284.064 48.5586 284.117 48.2305 284.117C47.8164 284.117 47.4473 284.035 47.123 283.871C46.7988 283.703 46.5449 283.479 46.3613 283.197C46.1777 282.912 46.0859 282.59 46.0859 282.23C46.0859 281.895 46.1484 281.598 46.2734 281.34C46.4023 281.078 46.5898 280.859 46.8359 280.684C47.0859 280.508 47.3906 280.375 47.75 280.285C48.1094 280.191 48.5195 280.145 48.9805 280.145H50.0879ZM54.2891 277.66V284H52.8711V277.66H54.2891ZM52.7773 275.996C52.7773 275.781 52.8477 275.604 52.9883 275.463C53.1328 275.318 53.332 275.246 53.5859 275.246C53.8359 275.246 54.0332 275.318 54.1777 275.463C54.3223 275.604 54.3945 275.781 54.3945 275.996C54.3945 276.207 54.3223 276.383 54.1777 276.523C54.0332 276.664 53.8359 276.734 53.5859 276.734C53.332 276.734 53.1328 276.664 52.9883 276.523C52.8477 276.383 52.7773 276.207 52.7773 275.996ZM56.9141 277.66L58.1211 279.764L59.3516 277.66H60.9043L58.9824 280.771L60.9805 284H59.4277L58.1387 281.809L56.8496 284H55.291L57.2832 280.771L55.3672 277.66H56.9141ZM61.4375 280.9V280.766C61.4375 280.309 61.5039 279.885 61.6367 279.494C61.7695 279.1 61.9609 278.758 62.2109 278.469C62.4648 278.176 62.7734 277.949 63.1367 277.789C63.5039 277.625 63.918 277.543 64.3789 277.543C64.8438 277.543 65.2578 277.625 65.6211 277.789C65.9883 277.949 66.2988 278.176 66.5527 278.469C66.8066 278.758 67 279.1 67.1328 279.494C67.2656 279.885 67.332 280.309 67.332 280.766V280.9C67.332 281.357 67.2656 281.781 67.1328 282.172C67 282.562 66.8066 282.904 66.5527 283.197C66.2988 283.486 65.9902 283.713 65.627 283.877C65.2637 284.037 64.8516 284.117 64.3906 284.117C63.9258 284.117 63.5098 284.037 63.1426 283.877C62.7793 283.713 62.4707 283.486 62.2168 283.197C61.9629 282.904 61.7695 282.562 61.6367 282.172C61.5039 281.781 61.4375 281.357 61.4375 280.9ZM62.8496 280.766V280.9C62.8496 281.186 62.8789 281.455 62.9375 281.709C62.9961 281.963 63.0879 282.186 63.2129 282.377C63.3379 282.568 63.498 282.719 63.6934 282.828C63.8887 282.938 64.1211 282.992 64.3906 282.992C64.6523 282.992 64.8789 282.938 65.0703 282.828C65.2656 282.719 65.4258 282.568 65.5508 282.377C65.6758 282.186 65.7676 281.963 65.8262 281.709C65.8887 281.455 65.9199 281.186 65.9199 280.9V280.766C65.9199 280.484 65.8887 280.219 65.8262 279.969C65.7676 279.715 65.6738 279.49 65.5449 279.295C65.4199 279.1 65.2598 278.947 65.0645 278.838C64.873 278.725 64.6445 278.668 64.3789 278.668C64.1133 278.668 63.8828 278.725 63.6875 278.838C63.4961 278.947 63.3379 279.1 63.2129 279.295C63.0879 279.49 62.9961 279.715 62.9375 279.969C62.8789 280.219 62.8496 280.484 62.8496 280.766Z" fill="#696D6E"/>
<path d="M235.51 276.605L232.961 284H231.42L234.631 275.469H235.615L235.51 276.605ZM237.643 284L235.088 276.605L234.977 275.469H235.967L239.189 284H237.643ZM237.52 280.836V282.002H232.879V280.836H237.52ZM241.516 275V284H240.098V275H241.516ZM245.969 277.66V278.691H242.395V277.66H245.969ZM243.426 276.107H244.838V282.248C244.838 282.443 244.865 282.594 244.92 282.699C244.979 282.801 245.059 282.869 245.16 282.904C245.262 282.939 245.381 282.957 245.518 282.957C245.615 282.957 245.709 282.951 245.799 282.939C245.889 282.928 245.961 282.916 246.016 282.904L246.021 283.982C245.904 284.018 245.768 284.049 245.611 284.076C245.459 284.104 245.283 284.117 245.084 284.117C244.76 284.117 244.473 284.061 244.223 283.947C243.973 283.83 243.777 283.641 243.637 283.379C243.496 283.117 243.426 282.77 243.426 282.336V276.107ZM246.648 280.9V280.766C246.648 280.309 246.715 279.885 246.848 279.494C246.98 279.1 247.172 278.758 247.422 278.469C247.676 278.176 247.984 277.949 248.348 277.789C248.715 277.625 249.129 277.543 249.59 277.543C250.055 277.543 250.469 277.625 250.832 277.789C251.199 277.949 251.51 278.176 251.764 278.469C252.018 278.758 252.211 279.1 252.344 279.494C252.477 279.885 252.543 280.309 252.543 280.766V280.9C252.543 281.357 252.477 281.781 252.344 282.172C252.211 282.562 252.018 282.904 251.764 283.197C251.51 283.486 251.201 283.713 250.838 283.877C250.475 284.037 250.062 284.117 249.602 284.117C249.137 284.117 248.721 284.037 248.354 283.877C247.99 283.713 247.682 283.486 247.428 283.197C247.174 282.904 246.98 282.562 246.848 282.172C246.715 281.781 246.648 281.357 246.648 280.9ZM248.061 280.766V280.9C248.061 281.186 248.09 281.455 248.148 281.709C248.207 281.963 248.299 282.186 248.424 282.377C248.549 282.568 248.709 282.719 248.904 282.828C249.1 282.938 249.332 282.992 249.602 282.992C249.863 282.992 250.09 282.938 250.281 282.828C250.477 282.719 250.637 282.568 250.762 282.377C250.887 282.186 250.979 281.963 251.037 281.709C251.1 281.455 251.131 281.186 251.131 280.9V280.766C251.131 280.484 251.1 280.219 251.037 279.969C250.979 279.715 250.885 279.49 250.756 279.295C250.631 279.1 250.471 278.947 250.275 278.838C250.084 278.725 249.855 278.668 249.59 278.668C249.324 278.668 249.094 278.725 248.898 278.838C248.707 278.947 248.549 279.1 248.424 279.295C248.299 279.49 248.207 279.715 248.148 279.969C248.09 280.219 248.061 280.484 248.061 280.766Z" fill="#696D6E"/>
<path d="M44.0703 247.396C44.0703 247.218 44.043 247.058 43.9883 246.917C43.9382 246.771 43.8424 246.639 43.7012 246.521C43.5599 246.397 43.3617 246.277 43.1064 246.158C42.8512 246.04 42.5208 245.917 42.1152 245.789C41.6641 245.643 41.2357 245.479 40.8301 245.297C40.429 245.115 40.0736 244.903 39.7637 244.661C39.4583 244.415 39.2168 244.13 39.0391 243.807C38.8659 243.483 38.7793 243.107 38.7793 242.679C38.7793 242.264 38.8704 241.888 39.0527 241.551C39.235 241.209 39.4902 240.917 39.8184 240.676C40.1465 240.43 40.5339 240.241 40.9805 240.108C41.4316 239.976 41.9261 239.91 42.4639 239.91C43.1976 239.91 43.8379 240.042 44.3848 240.307C44.9316 240.571 45.3555 240.933 45.6562 241.394C45.9616 241.854 46.1143 242.38 46.1143 242.973H44.0771C44.0771 242.681 44.0156 242.426 43.8926 242.207C43.7741 241.984 43.5918 241.808 43.3457 241.681C43.1042 241.553 42.7988 241.489 42.4297 241.489C42.0742 241.489 41.778 241.544 41.541 241.653C41.304 241.758 41.1263 241.902 41.0078 242.084C40.8893 242.262 40.8301 242.462 40.8301 242.686C40.8301 242.854 40.8711 243.007 40.9531 243.144C41.0397 243.28 41.1673 243.408 41.3359 243.526C41.5046 243.645 41.7119 243.757 41.958 243.861C42.2041 243.966 42.4889 244.069 42.8125 244.169C43.3548 244.333 43.8311 244.518 44.2412 244.723C44.6559 244.928 45.0023 245.158 45.2803 245.413C45.5583 245.668 45.7679 245.958 45.9092 246.281C46.0505 246.605 46.1211 246.972 46.1211 247.382C46.1211 247.815 46.0368 248.202 45.8682 248.544C45.6995 248.886 45.4557 249.175 45.1367 249.412C44.8177 249.649 44.4372 249.829 43.9951 249.952C43.5531 250.075 43.0586 250.137 42.5117 250.137C42.0195 250.137 41.5342 250.073 41.0557 249.945C40.5771 249.813 40.1419 249.615 39.75 249.351C39.3626 249.086 39.0527 248.749 38.8203 248.339C38.5879 247.929 38.4717 247.443 38.4717 246.883H40.5293C40.5293 247.193 40.5771 247.455 40.6729 247.669C40.7686 247.883 40.903 248.056 41.0762 248.188C41.2539 248.321 41.4635 248.416 41.7051 248.476C41.9512 248.535 42.2201 248.564 42.5117 248.564C42.8672 248.564 43.1589 248.514 43.3867 248.414C43.6191 248.314 43.79 248.175 43.8994 247.997C44.0133 247.819 44.0703 247.619 44.0703 247.396ZM49.5186 242.604V250H47.543V242.604H49.5186ZM47.6045 241.708L48.9443 239.603H51.084L49.2041 241.708H47.6045ZM54.8438 242.604V243.998H50.5371V242.604H54.8438ZM51.6035 240.778H53.5723V247.771C53.5723 247.986 53.5996 248.15 53.6543 248.264C53.7135 248.378 53.8001 248.457 53.9141 248.503C54.028 248.544 54.1715 248.564 54.3447 248.564C54.4678 248.564 54.5771 248.56 54.6729 248.551C54.7731 248.537 54.8574 248.523 54.9258 248.51L54.9326 249.959C54.764 250.014 54.5817 250.057 54.3857 250.089C54.1898 250.121 53.9733 250.137 53.7363 250.137C53.3034 250.137 52.9251 250.066 52.6016 249.925C52.2826 249.779 52.0365 249.547 51.8633 249.228C51.6901 248.909 51.6035 248.489 51.6035 247.97V240.778ZM58.043 242.604V250H56.0674V242.604H58.043ZM55.9443 240.676C55.9443 240.389 56.0446 240.152 56.2451 239.965C56.4456 239.778 56.7145 239.685 57.0518 239.685C57.3844 239.685 57.651 239.778 57.8516 239.965C58.0566 240.152 58.1592 240.389 58.1592 240.676C58.1592 240.963 58.0566 241.2 57.8516 241.387C57.651 241.574 57.3844 241.667 57.0518 241.667C56.7145 241.667 56.4456 241.574 56.2451 241.387C56.0446 241.2 55.9443 240.963 55.9443 240.676ZM59.3555 246.377V246.233C59.3555 245.691 59.4329 245.192 59.5879 244.736C59.7428 244.276 59.9684 243.877 60.2646 243.54C60.5609 243.203 60.9255 242.941 61.3584 242.754C61.7913 242.562 62.2881 242.467 62.8486 242.467C63.4092 242.467 63.9082 242.562 64.3457 242.754C64.7832 242.941 65.1501 243.203 65.4463 243.54C65.7471 243.877 65.9749 244.276 66.1299 244.736C66.2848 245.192 66.3623 245.691 66.3623 246.233V246.377C66.3623 246.915 66.2848 247.414 66.1299 247.874C65.9749 248.33 65.7471 248.729 65.4463 249.07C65.1501 249.408 64.7855 249.67 64.3525 249.856C63.9196 250.043 63.4229 250.137 62.8623 250.137C62.3018 250.137 61.8027 250.043 61.3652 249.856C60.9323 249.67 60.5654 249.408 60.2646 249.07C59.9684 248.729 59.7428 248.33 59.5879 247.874C59.4329 247.414 59.3555 246.915 59.3555 246.377ZM61.3242 246.233V246.377C61.3242 246.687 61.3516 246.976 61.4062 247.245C61.4609 247.514 61.5475 247.751 61.666 247.956C61.7891 248.157 61.9486 248.314 62.1445 248.428C62.3405 248.542 62.5798 248.599 62.8623 248.599C63.1357 248.599 63.3704 248.542 63.5664 248.428C63.7624 248.314 63.9196 248.157 64.0381 247.956C64.1566 247.751 64.2432 247.514 64.2979 247.245C64.3571 246.976 64.3867 246.687 64.3867 246.377V246.233C64.3867 245.933 64.3571 245.65 64.2979 245.386C64.2432 245.117 64.1543 244.88 64.0312 244.675C63.9128 244.465 63.7555 244.301 63.5596 244.183C63.3636 244.064 63.1266 244.005 62.8486 244.005C62.5706 244.005 62.3337 244.064 62.1377 244.183C61.9463 244.301 61.7891 244.465 61.666 244.675C61.5475 244.88 61.4609 245.117 61.4062 245.386C61.3516 245.65 61.3242 245.933 61.3242 246.233ZM75.0781 245.632H72.5215L72.5078 244.224H74.6543C75.0326 244.224 75.3424 244.176 75.584 244.08C75.8255 243.98 76.0055 243.836 76.124 243.649C76.2471 243.458 76.3086 243.226 76.3086 242.952C76.3086 242.642 76.2493 242.392 76.1309 242.2C76.0169 242.009 75.8369 241.87 75.5908 241.783C75.3493 241.697 75.0371 241.653 74.6543 241.653H73.2324V250H71.1816V240.047H74.6543C75.2331 240.047 75.7503 240.102 76.2061 240.211C76.6663 240.32 77.056 240.487 77.375 240.71C77.694 240.933 77.9378 241.216 78.1064 241.558C78.2751 241.895 78.3594 242.296 78.3594 242.761C78.3594 243.171 78.266 243.549 78.0791 243.896C77.8968 244.242 77.6074 244.524 77.2109 244.743C76.819 244.962 76.3063 245.083 75.6729 245.105L75.0781 245.632ZM74.9893 250H71.9609L72.7607 248.4H74.9893C75.3493 248.4 75.6432 248.343 75.8711 248.229C76.099 248.111 76.2676 247.951 76.377 247.751C76.4863 247.55 76.541 247.32 76.541 247.061C76.541 246.769 76.4909 246.516 76.3906 246.302C76.2949 246.088 76.14 245.924 75.9258 245.81C75.7116 245.691 75.429 245.632 75.0781 245.632H73.1025L73.1162 244.224H75.5771L76.0488 244.777C76.6549 244.768 77.1426 244.875 77.5117 245.099C77.8854 245.317 78.1566 245.602 78.3252 245.953C78.4984 246.304 78.585 246.68 78.585 247.081C78.585 247.719 78.446 248.257 78.168 248.694C77.89 249.127 77.4821 249.453 76.9443 249.672C76.4111 249.891 75.7594 250 74.9893 250Z" fill="#414D55"/>
<rect opacity="0.5" x="217.917" y="262.75" width="34.3333" height="4.5" rx="1.25" fill="#B8D2DE" fill-opacity="0.3" stroke="#586F55" stroke-width="1.5"/>
<rect x="172.375" y="262" width="35.8333" height="6" rx="2" fill="#586F55"/>
<rect x="127.583" y="262" width="35.8333" height="6" rx="2" fill="#586F55"/>
<rect x="82.7916" y="262" width="35.8333" height="6" rx="2" fill="#586F55"/>
<rect x="38" y="262" width="35.8333" height="6" rx="2" fill="#586F55"/>
<path d="M42.0664 213.145H39.8926L39.8809 212.072H41.7793C42.0996 212.072 42.3711 212.025 42.5938 211.932C42.8203 211.834 42.9922 211.695 43.1094 211.516C43.2266 211.332 43.2852 211.111 43.2852 210.854C43.2852 210.568 43.2305 210.336 43.1211 210.156C43.0117 209.977 42.8438 209.846 42.6172 209.764C42.3945 209.682 42.1094 209.641 41.7617 209.641H40.3379V217H38.8672V208.469H41.7617C42.2305 208.469 42.6484 208.514 43.0156 208.604C43.3867 208.693 43.7012 208.834 43.959 209.025C44.2207 209.213 44.418 209.451 44.5508 209.74C44.6875 210.029 44.7559 210.373 44.7559 210.771C44.7559 211.123 44.6719 211.445 44.5039 211.738C44.3359 212.027 44.0879 212.264 43.7598 212.447C43.4316 212.631 43.0234 212.74 42.5352 212.775L42.0664 213.145ZM42.002 217H39.4297L40.0918 215.834H42.002C42.334 215.834 42.6113 215.779 42.834 215.67C43.0566 215.557 43.2227 215.402 43.332 215.207C43.4453 215.008 43.502 214.775 43.502 214.51C43.502 214.232 43.4531 213.992 43.3555 213.789C43.2578 213.582 43.1035 213.424 42.8926 213.314C42.6816 213.201 42.4062 213.145 42.0664 213.145H40.4141L40.4258 212.072H42.5762L42.9102 212.477C43.3789 212.492 43.7637 212.596 44.0645 212.787C44.3691 212.979 44.5957 213.227 44.7441 213.531C44.8926 213.836 44.9668 214.164 44.9668 214.516C44.9668 215.059 44.8477 215.514 44.6094 215.881C44.375 216.248 44.0371 216.527 43.5957 216.719C43.1543 216.906 42.623 217 42.002 217ZM49.8828 215.729V212.705C49.8828 212.479 49.8418 212.283 49.7598 212.119C49.6777 211.955 49.5527 211.828 49.3848 211.738C49.2207 211.648 49.0137 211.604 48.7637 211.604C48.5332 211.604 48.334 211.643 48.166 211.721C47.998 211.799 47.8672 211.904 47.7734 212.037C47.6797 212.17 47.6328 212.32 47.6328 212.488H46.2266C46.2266 212.238 46.2871 211.996 46.4082 211.762C46.5293 211.527 46.7051 211.318 46.9355 211.135C47.166 210.951 47.4414 210.807 47.7617 210.701C48.082 210.596 48.4414 210.543 48.8398 210.543C49.3164 210.543 49.7383 210.623 50.1055 210.783C50.4766 210.943 50.7676 211.186 50.9785 211.51C51.1934 211.83 51.3008 212.232 51.3008 212.717V215.535C51.3008 215.824 51.3203 216.084 51.3594 216.314C51.4023 216.541 51.4629 216.738 51.541 216.906V217H50.0938C50.0273 216.848 49.9746 216.654 49.9355 216.42C49.9004 216.182 49.8828 215.951 49.8828 215.729ZM50.0879 213.145L50.0996 214.018H49.0859C48.8242 214.018 48.5938 214.043 48.3945 214.094C48.1953 214.141 48.0293 214.211 47.8965 214.305C47.7637 214.398 47.6641 214.512 47.5977 214.645C47.5312 214.777 47.498 214.928 47.498 215.096C47.498 215.264 47.5371 215.418 47.6152 215.559C47.6934 215.695 47.8066 215.803 47.9551 215.881C48.1074 215.959 48.291 215.998 48.5059 215.998C48.7949 215.998 49.0469 215.939 49.2617 215.822C49.4805 215.701 49.6523 215.555 49.7773 215.383C49.9023 215.207 49.9688 215.041 49.9766 214.885L50.4336 215.512C50.3867 215.672 50.3066 215.844 50.1934 216.027C50.0801 216.211 49.9316 216.387 49.748 216.555C49.5684 216.719 49.3516 216.854 49.0977 216.959C48.8477 217.064 48.5586 217.117 48.2305 217.117C47.8164 217.117 47.4473 217.035 47.123 216.871C46.7988 216.703 46.5449 216.479 46.3613 216.197C46.1777 215.912 46.0859 215.59 46.0859 215.23C46.0859 214.895 46.1484 214.598 46.2734 214.34C46.4023 214.078 46.5898 213.859 46.8359 213.684C47.0859 213.508 47.3906 213.375 47.75 213.285C48.1094 213.191 48.5195 213.145 48.9805 213.145H50.0879ZM54.2891 210.66V217H52.8711V210.66H54.2891ZM52.7773 208.996C52.7773 208.781 52.8477 208.604 52.9883 208.463C53.1328 208.318 53.332 208.246 53.5859 208.246C53.8359 208.246 54.0332 208.318 54.1777 208.463C54.3223 208.604 54.3945 208.781 54.3945 208.996C54.3945 209.207 54.3223 209.383 54.1777 209.523C54.0332 209.664 53.8359 209.734 53.5859 209.734C53.332 209.734 53.1328 209.664 52.9883 209.523C52.8477 209.383 52.7773 209.207 52.7773 208.996ZM56.9141 210.66L58.1211 212.764L59.3516 210.66H60.9043L58.9824 213.771L60.9805 217H59.4277L58.1387 214.809L56.8496 217H55.291L57.2832 213.771L55.3672 210.66H56.9141ZM61.4375 213.9V213.766C61.4375 213.309 61.5039 212.885 61.6367 212.494C61.7695 212.1 61.9609 211.758 62.2109 211.469C62.4648 211.176 62.7734 210.949 63.1367 210.789C63.5039 210.625 63.918 210.543 64.3789 210.543C64.8438 210.543 65.2578 210.625 65.6211 210.789C65.9883 210.949 66.2988 211.176 66.5527 211.469C66.8066 211.758 67 212.1 67.1328 212.494C67.2656 212.885 67.332 213.309 67.332 213.766V213.9C67.332 214.357 67.2656 214.781 67.1328 215.172C67 215.562 66.8066 215.904 66.5527 216.197C66.2988 216.486 65.9902 216.713 65.627 216.877C65.2637 217.037 64.8516 217.117 64.3906 217.117C63.9258 217.117 63.5098 217.037 63.1426 216.877C62.7793 216.713 62.4707 216.486 62.2168 216.197C61.9629 215.904 61.7695 215.562 61.6367 215.172C61.5039 214.781 61.4375 214.357 61.4375 213.9ZM62.8496 213.766V213.9C62.8496 214.186 62.8789 214.455 62.9375 214.709C62.9961 214.963 63.0879 215.186 63.2129 215.377C63.3379 215.568 63.498 215.719 63.6934 215.828C63.8887 215.938 64.1211 215.992 64.3906 215.992C64.6523 215.992 64.8789 215.938 65.0703 215.828C65.2656 215.719 65.4258 215.568 65.5508 215.377C65.6758 215.186 65.7676 214.963 65.8262 214.709C65.8887 214.455 65.9199 214.186 65.9199 213.9V213.766C65.9199 213.484 65.8887 213.219 65.8262 212.969C65.7676 212.715 65.6738 212.49 65.5449 212.295C65.4199 212.1 65.2598 211.947 65.0645 211.838C64.873 211.725 64.6445 211.668 64.3789 211.668C64.1133 211.668 63.8828 211.725 63.6875 211.838C63.4961 211.947 63.3379 212.1 63.2129 212.295C63.0879 212.49 62.9961 212.715 62.9375 212.969C62.8789 213.219 62.8496 213.484 62.8496 213.766Z" fill="#696D6E"/>
<path d="M235.51 209.605L232.961 217H231.42L234.631 208.469H235.615L235.51 209.605ZM237.643 217L235.088 209.605L234.977 208.469H235.967L239.189 217H237.643ZM237.52 213.836V215.002H232.879V213.836H237.52ZM241.516 208V217H240.098V208H241.516ZM245.969 210.66V211.691H242.395V210.66H245.969ZM243.426 209.107H244.838V215.248C244.838 215.443 244.865 215.594 244.92 215.699C244.979 215.801 245.059 215.869 245.16 215.904C245.262 215.939 245.381 215.957 245.518 215.957C245.615 215.957 245.709 215.951 245.799 215.939C245.889 215.928 245.961 215.916 246.016 215.904L246.021 216.982C245.904 217.018 245.768 217.049 245.611 217.076C245.459 217.104 245.283 217.117 245.084 217.117C244.76 217.117 244.473 217.061 244.223 216.947C243.973 216.83 243.777 216.641 243.637 216.379C243.496 216.117 243.426 215.77 243.426 215.336V209.107ZM246.648 213.9V213.766C246.648 213.309 246.715 212.885 246.848 212.494C246.98 212.1 247.172 211.758 247.422 211.469C247.676 211.176 247.984 210.949 248.348 210.789C248.715 210.625 249.129 210.543 249.59 210.543C250.055 210.543 250.469 210.625 250.832 210.789C251.199 210.949 251.51 211.176 251.764 211.469C252.018 211.758 252.211 212.1 252.344 212.494C252.477 212.885 252.543 213.309 252.543 213.766V213.9C252.543 214.357 252.477 214.781 252.344 215.172C252.211 215.562 252.018 215.904 251.764 216.197C251.51 216.486 251.201 216.713 250.838 216.877C250.475 217.037 250.062 217.117 249.602 217.117C249.137 217.117 248.721 217.037 248.354 216.877C247.99 216.713 247.682 216.486 247.428 216.197C247.174 215.904 246.98 215.562 246.848 215.172C246.715 214.781 246.648 214.357 246.648 213.9ZM248.061 213.766V213.9C248.061 214.186 248.09 214.455 248.148 214.709C248.207 214.963 248.299 215.186 248.424 215.377C248.549 215.568 248.709 215.719 248.904 215.828C249.1 215.938 249.332 215.992 249.602 215.992C249.863 215.992 250.09 215.938 250.281 215.828C250.477 215.719 250.637 215.568 250.762 215.377C250.887 215.186 250.979 214.963 251.037 214.709C251.1 214.455 251.131 214.186 251.131 213.9V213.766C251.131 213.484 251.1 213.219 251.037 212.969C250.979 212.715 250.885 212.49 250.756 212.295C250.631 212.1 250.471 211.947 250.275 211.838C250.084 211.725 249.855 211.668 249.59 211.668C249.324 211.668 249.094 211.725 248.898 211.838C248.707 211.947 248.549 212.1 248.424 212.295C248.299 212.49 248.207 212.715 248.148 212.969C248.09 213.219 248.061 213.484 248.061 213.766Z" fill="#696D6E"/>
<path d="M44.0703 180.396C44.0703 180.218 44.043 180.058 43.9883 179.917C43.9382 179.771 43.8424 179.639 43.7012 179.521C43.5599 179.397 43.3617 179.277 43.1064 179.158C42.8512 179.04 42.5208 178.917 42.1152 178.789C41.6641 178.643 41.2357 178.479 40.8301 178.297C40.429 178.115 40.0736 177.903 39.7637 177.661C39.4583 177.415 39.2168 177.13 39.0391 176.807C38.8659 176.483 38.7793 176.107 38.7793 175.679C38.7793 175.264 38.8704 174.888 39.0527 174.551C39.235 174.209 39.4902 173.917 39.8184 173.676C40.1465 173.43 40.5339 173.241 40.9805 173.108C41.4316 172.976 41.9261 172.91 42.4639 172.91C43.1976 172.91 43.8379 173.042 44.3848 173.307C44.9316 173.571 45.3555 173.933 45.6562 174.394C45.9616 174.854 46.1143 175.38 46.1143 175.973H44.0771C44.0771 175.681 44.0156 175.426 43.8926 175.207C43.7741 174.984 43.5918 174.808 43.3457 174.681C43.1042 174.553 42.7988 174.489 42.4297 174.489C42.0742 174.489 41.778 174.544 41.541 174.653C41.304 174.758 41.1263 174.902 41.0078 175.084C40.8893 175.262 40.8301 175.462 40.8301 175.686C40.8301 175.854 40.8711 176.007 40.9531 176.144C41.0397 176.28 41.1673 176.408 41.3359 176.526C41.5046 176.645 41.7119 176.757 41.958 176.861C42.2041 176.966 42.4889 177.069 42.8125 177.169C43.3548 177.333 43.8311 177.518 44.2412 177.723C44.6559 177.928 45.0023 178.158 45.2803 178.413C45.5583 178.668 45.7679 178.958 45.9092 179.281C46.0505 179.605 46.1211 179.972 46.1211 180.382C46.1211 180.815 46.0368 181.202 45.8682 181.544C45.6995 181.886 45.4557 182.175 45.1367 182.412C44.8177 182.649 44.4372 182.829 43.9951 182.952C43.5531 183.075 43.0586 183.137 42.5117 183.137C42.0195 183.137 41.5342 183.073 41.0557 182.945C40.5771 182.813 40.1419 182.615 39.75 182.351C39.3626 182.086 39.0527 181.749 38.8203 181.339C38.5879 180.929 38.4717 180.443 38.4717 179.883H40.5293C40.5293 180.193 40.5771 180.455 40.6729 180.669C40.7686 180.883 40.903 181.056 41.0762 181.188C41.2539 181.321 41.4635 181.416 41.7051 181.476C41.9512 181.535 42.2201 181.564 42.5117 181.564C42.8672 181.564 43.1589 181.514 43.3867 181.414C43.6191 181.314 43.79 181.175 43.8994 180.997C44.0133 180.819 44.0703 180.619 44.0703 180.396ZM49.5186 175.604V183H47.543V175.604H49.5186ZM47.6045 174.708L48.9443 172.603H51.084L49.2041 174.708H47.6045ZM54.8438 175.604V176.998H50.5371V175.604H54.8438ZM51.6035 173.778H53.5723V180.771C53.5723 180.986 53.5996 181.15 53.6543 181.264C53.7135 181.378 53.8001 181.457 53.9141 181.503C54.028 181.544 54.1715 181.564 54.3447 181.564C54.4678 181.564 54.5771 181.56 54.6729 181.551C54.7731 181.537 54.8574 181.523 54.9258 181.51L54.9326 182.959C54.764 183.014 54.5817 183.057 54.3857 183.089C54.1898 183.121 53.9733 183.137 53.7363 183.137C53.3034 183.137 52.9251 183.066 52.6016 182.925C52.2826 182.779 52.0365 182.547 51.8633 182.228C51.6901 181.909 51.6035 181.489 51.6035 180.97V173.778ZM58.043 175.604V183H56.0674V175.604H58.043ZM55.9443 173.676C55.9443 173.389 56.0446 173.152 56.2451 172.965C56.4456 172.778 56.7145 172.685 57.0518 172.685C57.3844 172.685 57.651 172.778 57.8516 172.965C58.0566 173.152 58.1592 173.389 58.1592 173.676C58.1592 173.963 58.0566 174.2 57.8516 174.387C57.651 174.574 57.3844 174.667 57.0518 174.667C56.7145 174.667 56.4456 174.574 56.2451 174.387C56.0446 174.2 55.9443 173.963 55.9443 173.676ZM59.3555 179.377V179.233C59.3555 178.691 59.4329 178.192 59.5879 177.736C59.7428 177.276 59.9684 176.877 60.2646 176.54C60.5609 176.203 60.9255 175.941 61.3584 175.754C61.7913 175.562 62.2881 175.467 62.8486 175.467C63.4092 175.467 63.9082 175.562 64.3457 175.754C64.7832 175.941 65.1501 176.203 65.4463 176.54C65.7471 176.877 65.9749 177.276 66.1299 177.736C66.2848 178.192 66.3623 178.691 66.3623 179.233V179.377C66.3623 179.915 66.2848 180.414 66.1299 180.874C65.9749 181.33 65.7471 181.729 65.4463 182.07C65.1501 182.408 64.7855 182.67 64.3525 182.856C63.9196 183.043 63.4229 183.137 62.8623 183.137C62.3018 183.137 61.8027 183.043 61.3652 182.856C60.9323 182.67 60.5654 182.408 60.2646 182.07C59.9684 181.729 59.7428 181.33 59.5879 180.874C59.4329 180.414 59.3555 179.915 59.3555 179.377ZM61.3242 179.233V179.377C61.3242 179.687 61.3516 179.976 61.4062 180.245C61.4609 180.514 61.5475 180.751 61.666 180.956C61.7891 181.157 61.9486 181.314 62.1445 181.428C62.3405 181.542 62.5798 181.599 62.8623 181.599C63.1357 181.599 63.3704 181.542 63.5664 181.428C63.7624 181.314 63.9196 181.157 64.0381 180.956C64.1566 180.751 64.2432 180.514 64.2979 180.245C64.3571 179.976 64.3867 179.687 64.3867 179.377V179.233C64.3867 178.933 64.3571 178.65 64.2979 178.386C64.2432 178.117 64.1543 177.88 64.0312 177.675C63.9128 177.465 63.7555 177.301 63.5596 177.183C63.3636 177.064 63.1266 177.005 62.8486 177.005C62.5706 177.005 62.3337 177.064 62.1377 177.183C61.9463 177.301 61.7891 177.465 61.666 177.675C61.5475 177.88 61.4609 178.117 61.4062 178.386C61.3516 178.65 61.3242 178.933 61.3242 179.233ZM75.2285 174.749L72.5215 183H70.3408L74.0391 173.047H75.4268L75.2285 174.749ZM77.4775 183L74.7637 174.749L74.5449 173.047H75.9463L79.665 183H77.4775ZM77.3545 179.295V180.901H72.0977V179.295H77.3545Z" fill="#414D55"/>
<rect opacity="0.5" x="217.917" y="195.75" width="34.3333" height="4.5" rx="1.25" fill="#B8D2DE" fill-opacity="0.3" stroke="#586F55" stroke-width="1.5"/>
<rect opacity="0.5" x="173.125" y="195.75" width="34.3333" height="4.5" rx="1.25" fill="#B8D2DE" fill-opacity="0.3" stroke="#586F55" stroke-width="1.5"/>
<rect x="127.583" y="195" width="35.8333" height="6" rx="2" fill="#586F55"/>
<rect x="82.7916" y="195" width="35.8333" height="6" rx="2" fill="#586F55"/>
<rect x="38" y="195" width="35.8333" height="6" rx="2" fill="#586F55"/>
<path d="M37.316 121V111.2H39.136V121H37.316ZM37.05 110.402L38.94 108.484H40.998L38.562 110.402H37.05ZM45.8607 113.44C46.458 113.44 46.99 113.557 47.4567 113.79C47.9327 114.023 48.306 114.383 48.5767 114.868C48.8474 115.344 48.9827 115.96 48.9827 116.716V121H47.2327V116.94C47.2327 116.277 47.074 115.783 46.7567 115.456C46.4487 115.129 46.0147 114.966 45.4547 114.966C45.044 114.966 44.68 115.05 44.3627 115.218C44.0454 115.386 43.798 115.638 43.6207 115.974C43.4527 116.301 43.3687 116.716 43.3687 117.22V121H41.6187V113.524H43.2847V115.54L42.9907 114.924C43.252 114.448 43.63 114.084 44.1247 113.832C44.6287 113.571 45.2074 113.44 45.8607 113.44ZM54.3804 121.098C53.6617 121.098 53.013 120.939 52.4344 120.622C51.865 120.295 51.417 119.847 51.0904 119.278C50.7637 118.709 50.6004 118.037 50.6004 117.262C50.6004 116.487 50.7637 115.815 51.0904 115.246C51.417 114.677 51.865 114.233 52.4344 113.916C53.013 113.599 53.6617 113.44 54.3804 113.44C55.0057 113.44 55.5657 113.58 56.0604 113.86C56.555 114.131 56.947 114.546 57.2364 115.106C57.5257 115.666 57.6704 116.385 57.6704 117.262C57.6704 118.13 57.5304 118.849 57.2504 119.418C56.9704 119.978 56.583 120.398 56.0884 120.678C55.5937 120.958 55.0244 121.098 54.3804 121.098ZM54.5904 119.6C55.0104 119.6 55.3837 119.507 55.7104 119.32C56.0464 119.133 56.3124 118.863 56.5084 118.508C56.7137 118.153 56.8164 117.738 56.8164 117.262C56.8164 116.777 56.7137 116.361 56.5084 116.016C56.3124 115.661 56.0464 115.391 55.7104 115.204C55.3837 115.017 55.0104 114.924 54.5904 114.924C54.1704 114.924 53.7924 115.017 53.4564 115.204C53.1297 115.391 52.8637 115.661 52.6584 116.016C52.4624 116.361 52.3644 116.777 52.3644 117.262C52.3644 117.738 52.4624 118.153 52.6584 118.508C52.8637 118.863 53.1297 119.133 53.4564 119.32C53.7924 119.507 54.1704 119.6 54.5904 119.6ZM56.8584 121V119.236L56.9284 117.248L56.7884 115.26V110.612H58.5244V121H56.8584ZM60.8277 121V113.524H62.5777V121H60.8277ZM61.7097 112.292C61.383 112.292 61.1124 112.189 60.8977 111.984C60.6924 111.779 60.5897 111.531 60.5897 111.242C60.5897 110.943 60.6924 110.696 60.8977 110.5C61.1124 110.295 61.383 110.192 61.7097 110.192C62.0364 110.192 62.3024 110.29 62.5077 110.486C62.7224 110.673 62.8297 110.911 62.8297 111.2C62.8297 111.508 62.727 111.769 62.5217 111.984C62.3164 112.189 62.0457 112.292 61.7097 112.292ZM68.3046 121.098C67.5206 121.098 66.8206 120.935 66.2046 120.608C65.5979 120.272 65.1219 119.815 64.7766 119.236C64.4312 118.657 64.2586 117.999 64.2586 117.262C64.2586 116.515 64.4312 115.857 64.7766 115.288C65.1219 114.709 65.5979 114.257 66.2046 113.93C66.8206 113.603 67.5206 113.44 68.3046 113.44C69.0326 113.44 69.6719 113.589 70.2226 113.888C70.7826 114.177 71.2072 114.607 71.4966 115.176L70.1526 115.96C69.9286 115.605 69.6532 115.344 69.3266 115.176C69.0092 115.008 68.6639 114.924 68.2906 114.924C67.8612 114.924 67.4739 115.017 67.1286 115.204C66.7832 115.391 66.5126 115.661 66.3166 116.016C66.1206 116.361 66.0226 116.777 66.0226 117.262C66.0226 117.747 66.1206 118.167 66.3166 118.522C66.5126 118.867 66.7832 119.133 67.1286 119.32C67.4739 119.507 67.8612 119.6 68.2906 119.6C68.6639 119.6 69.0092 119.516 69.3266 119.348C69.6532 119.18 69.9286 118.919 70.1526 118.564L71.4966 119.348C71.2072 119.908 70.7826 120.342 70.2226 120.65C69.6719 120.949 69.0326 121.098 68.3046 121.098ZM76.414 121.098C75.5833 121.098 74.8553 120.935 74.23 120.608C73.614 120.272 73.1333 119.815 72.788 119.236C72.452 118.657 72.284 117.999 72.284 117.262C72.284 116.515 72.4473 115.857 72.774 115.288C73.11 114.709 73.5673 114.257 74.146 113.93C74.734 113.603 75.4013 113.44 76.148 113.44C76.876 113.44 77.5246 113.599 78.094 113.916C78.6633 114.233 79.1113 114.681 79.438 115.26C79.7646 115.839 79.928 116.52 79.928 117.304C79.928 117.379 79.9233 117.463 79.914 117.556C79.914 117.649 79.9093 117.738 79.9 117.822H73.67V116.66H78.976L78.29 117.024C78.2993 116.595 78.2106 116.217 78.024 115.89C77.8373 115.563 77.5806 115.307 77.254 115.12C76.9366 114.933 76.568 114.84 76.148 114.84C75.7186 114.84 75.3406 114.933 75.014 115.12C74.6966 115.307 74.4446 115.568 74.258 115.904C74.0806 116.231 73.992 116.618 73.992 117.066V117.346C73.992 117.794 74.0946 118.191 74.3 118.536C74.5053 118.881 74.7946 119.147 75.168 119.334C75.5413 119.521 75.9706 119.614 76.456 119.614C76.876 119.614 77.254 119.549 77.59 119.418C77.926 119.287 78.2246 119.082 78.486 118.802L79.424 119.88C79.088 120.272 78.6633 120.575 78.15 120.79C77.646 120.995 77.0673 121.098 76.414 121.098ZM88.6421 121.098C87.9234 121.098 87.2747 120.939 86.6961 120.622C86.1267 120.295 85.6787 119.847 85.3521 119.278C85.0254 118.709 84.8621 118.037 84.8621 117.262C84.8621 116.487 85.0254 115.815 85.3521 115.246C85.6787 114.677 86.1267 114.233 86.6961 113.916C87.2747 113.599 87.9234 113.44 88.6421 113.44C89.2674 113.44 89.8274 113.58 90.3221 113.86C90.8167 114.131 91.2087 114.546 91.4981 115.106C91.7874 115.666 91.9321 116.385 91.9321 117.262C91.9321 118.13 91.7921 118.849 91.5121 119.418C91.2321 119.978 90.8447 120.398 90.3501 120.678C89.8554 120.958 89.2861 121.098 88.6421 121.098ZM88.8521 119.6C89.2721 119.6 89.6454 119.507 89.9721 119.32C90.3081 119.133 90.5741 118.863 90.7701 118.508C90.9754 118.153 91.0781 117.738 91.0781 117.262C91.0781 116.777 90.9754 116.361 90.7701 116.016C90.5741 115.661 90.3081 115.391 89.9721 115.204C89.6454 115.017 89.2721 114.924 88.8521 114.924C88.4321 114.924 88.0541 115.017 87.7181 115.204C87.3914 115.391 87.1254 115.661 86.9201 116.016C86.7241 116.361 86.6261 116.777 86.6261 117.262C86.6261 117.738 86.7241 118.153 86.9201 118.508C87.1254 118.863 87.3914 119.133 87.7181 119.32C88.0541 119.507 88.4321 119.6 88.8521 119.6ZM91.1201 121V119.236L91.1901 117.248L91.0501 115.26V110.612H92.7861V121H91.1201ZM98.6034 121.098C97.7727 121.098 97.0447 120.935 96.4194 120.608C95.8034 120.272 95.3227 119.815 94.9774 119.236C94.6414 118.657 94.4734 117.999 94.4734 117.262C94.4734 116.515 94.6367 115.857 94.9634 115.288C95.2994 114.709 95.7567 114.257 96.3354 113.93C96.9234 113.603 97.5907 113.44 98.3374 113.44C99.0654 113.44 99.7141 113.599 100.283 113.916C100.853 114.233 101.301 114.681 101.627 115.26C101.954 115.839 102.117 116.52 102.117 117.304C102.117 117.379 102.113 117.463 102.103 117.556C102.103 117.649 102.099 117.738 102.089 117.822H95.8594V116.66H101.165L100.479 117.024C100.489 116.595 100.4 116.217 100.213 115.89C100.027 115.563 99.7701 115.307 99.4434 115.12C99.1261 114.933 98.7574 114.84 98.3374 114.84C97.9081 114.84 97.5301 114.933 97.2034 115.12C96.8861 115.307 96.6341 115.568 96.4474 115.904C96.2701 116.231 96.1814 116.618 96.1814 117.066V117.346C96.1814 117.794 96.2841 118.191 96.4894 118.536C96.6947 118.881 96.9841 119.147 97.3574 119.334C97.7307 119.521 98.1601 119.614 98.6454 119.614C99.0654 119.614 99.4434 119.549 99.7794 119.418C100.115 119.287 100.414 119.082 100.675 118.802L101.613 119.88C101.277 120.272 100.853 120.575 100.339 120.79C99.8354 120.995 99.2567 121.098 98.6034 121.098ZM112.428 121.14C111.662 121.14 110.958 121.014 110.314 120.762C109.67 120.51 109.11 120.16 108.634 119.712C108.158 119.255 107.789 118.723 107.528 118.116C107.266 117.5 107.136 116.828 107.136 116.1C107.136 115.372 107.266 114.705 107.528 114.098C107.789 113.482 108.158 112.95 108.634 112.502C109.11 112.045 109.67 111.69 110.314 111.438C110.958 111.186 111.658 111.06 112.414 111.06C113.179 111.06 113.879 111.186 114.514 111.438C115.158 111.69 115.718 112.045 116.194 112.502C116.67 112.95 117.038 113.482 117.3 114.098C117.561 114.705 117.692 115.372 117.692 116.1C117.692 116.828 117.561 117.5 117.3 118.116C117.038 118.732 116.67 119.264 116.194 119.712C115.718 120.16 115.158 120.51 114.514 120.762C113.879 121.014 113.184 121.14 112.428 121.14ZM112.414 119.544C112.908 119.544 113.366 119.46 113.786 119.292C114.206 119.124 114.57 118.886 114.878 118.578C115.186 118.261 115.424 117.897 115.592 117.486C115.769 117.066 115.858 116.604 115.858 116.1C115.858 115.596 115.769 115.139 115.592 114.728C115.424 114.308 115.186 113.944 114.878 113.636C114.57 113.319 114.206 113.076 113.786 112.908C113.366 112.74 112.908 112.656 112.414 112.656C111.919 112.656 111.462 112.74 111.042 112.908C110.631 113.076 110.267 113.319 109.95 113.636C109.642 113.944 109.399 114.308 109.222 114.728C109.054 115.139 108.97 115.596 108.97 116.1C108.97 116.595 109.054 117.052 109.222 117.472C109.399 117.892 109.642 118.261 109.95 118.578C110.258 118.886 110.622 119.124 111.042 119.292C111.462 119.46 111.919 119.544 112.414 119.544ZM122.883 121.098C122.099 121.098 121.399 120.935 120.783 120.608C120.176 120.272 119.7 119.815 119.355 119.236C119.009 118.657 118.837 117.999 118.837 117.262C118.837 116.515 119.009 115.857 119.355 115.288C119.7 114.709 120.176 114.257 120.783 113.93C121.399 113.603 122.099 113.44 122.883 113.44C123.611 113.44 124.25 113.589 124.801 113.888C125.361 114.177 125.785 114.607 126.075 115.176L124.731 115.96C124.507 115.605 124.231 115.344 123.905 115.176C123.587 115.008 123.242 114.924 122.869 114.924C122.439 114.924 122.052 115.017 121.707 115.204C121.361 115.391 121.091 115.661 120.895 116.016C120.699 116.361 120.601 116.777 120.601 117.262C120.601 117.747 120.699 118.167 120.895 118.522C121.091 118.867 121.361 119.133 121.707 119.32C122.052 119.507 122.439 119.6 122.869 119.6C123.242 119.6 123.587 119.516 123.905 119.348C124.231 119.18 124.507 118.919 124.731 118.564L126.075 119.348C125.785 119.908 125.361 120.342 124.801 120.65C124.25 120.949 123.611 121.098 122.883 121.098ZM130.838 121.098C130.073 121.098 129.391 120.935 128.794 120.608C128.197 120.272 127.725 119.815 127.38 119.236C127.035 118.657 126.862 117.999 126.862 117.262C126.862 116.515 127.035 115.857 127.38 115.288C127.725 114.709 128.197 114.257 128.794 113.93C129.391 113.603 130.073 113.44 130.838 113.44C131.613 113.44 132.299 113.603 132.896 113.93C133.503 114.257 133.974 114.705 134.31 115.274C134.655 115.843 134.828 116.506 134.828 117.262C134.828 117.999 134.655 118.657 134.31 119.236C133.974 119.815 133.503 120.272 132.896 120.608C132.299 120.935 131.613 121.098 130.838 121.098ZM130.838 119.6C131.267 119.6 131.65 119.507 131.986 119.32C132.322 119.133 132.583 118.863 132.77 118.508C132.966 118.153 133.064 117.738 133.064 117.262C133.064 116.777 132.966 116.361 132.77 116.016C132.583 115.661 132.322 115.391 131.986 115.204C131.65 115.017 131.272 114.924 130.852 114.924C130.423 114.924 130.04 115.017 129.704 115.204C129.377 115.391 129.116 115.661 128.92 116.016C128.724 116.361 128.626 116.777 128.626 117.262C128.626 117.738 128.724 118.153 128.92 118.508C129.116 118.863 129.377 119.133 129.704 119.32C130.04 119.507 130.418 119.6 130.838 119.6ZM136.502 121V113.524H138.168V115.582L137.972 114.98C138.196 114.476 138.546 114.093 139.022 113.832C139.507 113.571 140.109 113.44 140.828 113.44V115.106C140.753 115.087 140.683 115.078 140.618 115.078C140.552 115.069 140.487 115.064 140.422 115.064C139.759 115.064 139.232 115.26 138.84 115.652C138.448 116.035 138.252 116.609 138.252 117.374V121H136.502ZM142.312 121V113.524H143.978V115.582L143.782 114.98C144.006 114.476 144.356 114.093 144.832 113.832C145.317 113.571 145.919 113.44 146.638 113.44V115.106C146.563 115.087 146.493 115.078 146.428 115.078C146.363 115.069 146.297 115.064 146.232 115.064C145.569 115.064 145.042 115.26 144.65 115.652C144.258 116.035 144.062 116.609 144.062 117.374V121H142.312ZM151.568 121.098C150.738 121.098 150.01 120.935 149.384 120.608C148.768 120.272 148.288 119.815 147.942 119.236C147.606 118.657 147.438 117.999 147.438 117.262C147.438 116.515 147.602 115.857 147.928 115.288C148.264 114.709 148.722 114.257 149.3 113.93C149.888 113.603 150.556 113.44 151.302 113.44C152.03 113.44 152.679 113.599 153.248 113.916C153.818 114.233 154.266 114.681 154.592 115.26C154.919 115.839 155.082 116.52 155.082 117.304C155.082 117.379 155.078 117.463 155.068 117.556C155.068 117.649 155.064 117.738 155.054 117.822H148.824V116.66H154.13L153.444 117.024C153.454 116.595 153.365 116.217 153.178 115.89C152.992 115.563 152.735 115.307 152.408 115.12C152.091 114.933 151.722 114.84 151.302 114.84C150.873 114.84 150.495 114.933 150.168 115.12C149.851 115.307 149.599 115.568 149.412 115.904C149.235 116.231 149.146 116.618 149.146 117.066V117.346C149.146 117.794 149.249 118.191 149.454 118.536C149.66 118.881 149.949 119.147 150.322 119.334C150.696 119.521 151.125 119.614 151.61 119.614C152.03 119.614 152.408 119.549 152.744 119.418C153.08 119.287 153.379 119.082 153.64 118.802L154.578 119.88C154.242 120.272 153.818 120.575 153.304 120.79C152.8 120.995 152.222 121.098 151.568 121.098ZM148.586 112.502L150.462 110.584H152.058L153.934 112.502H152.492L150.588 110.892H151.932L150.028 112.502H148.586ZM161.005 113.44C161.603 113.44 162.135 113.557 162.601 113.79C163.077 114.023 163.451 114.383 163.721 114.868C163.992 115.344 164.127 115.96 164.127 116.716V121H162.377V116.94C162.377 116.277 162.219 115.783 161.901 115.456C161.593 115.129 161.159 114.966 160.599 114.966C160.189 114.966 159.825 115.05 159.507 115.218C159.19 115.386 158.943 115.638 158.765 115.974C158.597 116.301 158.513 116.716 158.513 117.22V121H156.763V113.524H158.429V115.54L158.135 114.924C158.397 114.448 158.775 114.084 159.269 113.832C159.773 113.571 160.352 113.44 161.005 113.44ZM169.791 121.098C169.007 121.098 168.307 120.935 167.691 120.608C167.084 120.272 166.608 119.815 166.263 119.236C165.918 118.657 165.745 117.999 165.745 117.262C165.745 116.515 165.918 115.857 166.263 115.288C166.608 114.709 167.084 114.257 167.691 113.93C168.307 113.603 169.007 113.44 169.791 113.44C170.519 113.44 171.158 113.589 171.709 113.888C172.269 114.177 172.694 114.607 172.983 115.176L171.639 115.96C171.415 115.605 171.14 115.344 170.813 115.176C170.496 115.008 170.15 114.924 169.777 114.924C169.348 114.924 168.96 115.017 168.615 115.204C168.27 115.391 167.999 115.661 167.803 116.016C167.607 116.361 167.509 116.777 167.509 117.262C167.509 117.747 167.607 118.167 167.803 118.522C167.999 118.867 168.27 119.133 168.615 119.32C168.96 119.507 169.348 119.6 169.777 119.6C170.15 119.6 170.496 119.516 170.813 119.348C171.14 119.18 171.415 118.919 171.639 118.564L172.983 119.348C172.694 119.908 172.269 120.342 171.709 120.65C171.158 120.949 170.519 121.098 169.791 121.098ZM174.427 121V113.524H176.177V121H174.427ZM175.309 112.292C174.983 112.292 174.712 112.189 174.497 111.984C174.292 111.779 174.189 111.531 174.189 111.242C174.189 110.943 174.292 110.696 174.497 110.5C174.712 110.295 174.983 110.192 175.309 110.192C175.636 110.192 175.902 110.29 176.107 110.486C176.322 110.673 176.429 110.911 176.429 111.2C176.429 111.508 176.327 111.769 176.121 111.984C175.916 112.189 175.645 112.292 175.309 112.292ZM183.08 121V119.488L182.982 119.166V116.52C182.982 116.007 182.828 115.61 182.52 115.33C182.212 115.041 181.746 114.896 181.12 114.896C180.7 114.896 180.285 114.961 179.874 115.092C179.473 115.223 179.132 115.405 178.852 115.638L178.166 114.364C178.568 114.056 179.044 113.827 179.594 113.678C180.154 113.519 180.733 113.44 181.33 113.44C182.413 113.44 183.248 113.701 183.836 114.224C184.434 114.737 184.732 115.535 184.732 116.618V121H183.08ZM180.728 121.098C180.168 121.098 179.678 121.005 179.258 120.818C178.838 120.622 178.512 120.356 178.278 120.02C178.054 119.675 177.942 119.287 177.942 118.858C177.942 118.438 178.04 118.06 178.236 117.724C178.442 117.388 178.773 117.122 179.23 116.926C179.688 116.73 180.294 116.632 181.05 116.632H183.22V117.794H181.176C180.579 117.794 180.178 117.892 179.972 118.088C179.767 118.275 179.664 118.508 179.664 118.788C179.664 119.105 179.79 119.357 180.042 119.544C180.294 119.731 180.644 119.824 181.092 119.824C181.522 119.824 181.904 119.726 182.24 119.53C182.586 119.334 182.833 119.045 182.982 118.662L183.276 119.712C183.108 120.151 182.805 120.491 182.366 120.734C181.937 120.977 181.391 121.098 180.728 121.098ZM194.011 121.098C193.293 121.098 192.644 120.939 192.065 120.622C191.496 120.295 191.048 119.847 190.721 119.278C190.395 118.709 190.231 118.037 190.231 117.262C190.231 116.487 190.395 115.815 190.721 115.246C191.048 114.677 191.496 114.233 192.065 113.916C192.644 113.599 193.293 113.44 194.011 113.44C194.637 113.44 195.197 113.58 195.691 113.86C196.186 114.131 196.578 114.546 196.867 115.106C197.157 115.666 197.301 116.385 197.301 117.262C197.301 118.13 197.161 118.849 196.881 119.418C196.601 119.978 196.214 120.398 195.719 120.678C195.225 120.958 194.655 121.098 194.011 121.098ZM194.221 119.6C194.641 119.6 195.015 119.507 195.341 119.32C195.677 119.133 195.943 118.863 196.139 118.508C196.345 118.153 196.447 117.738 196.447 117.262C196.447 116.777 196.345 116.361 196.139 116.016C195.943 115.661 195.677 115.391 195.341 115.204C195.015 115.017 194.641 114.924 194.221 114.924C193.801 114.924 193.423 115.017 193.087 115.204C192.761 115.391 192.495 115.661 192.289 116.016C192.093 116.361 191.995 116.777 191.995 117.262C191.995 117.738 192.093 118.153 192.289 118.508C192.495 118.863 192.761 119.133 193.087 119.32C193.423 119.507 193.801 119.6 194.221 119.6ZM196.489 121V119.236L196.559 117.248L196.419 115.26V110.612H198.155V121H196.489ZM205.065 121V119.488L204.967 119.166V116.52C204.967 116.007 204.813 115.61 204.505 115.33C204.197 115.041 203.73 114.896 203.105 114.896C202.685 114.896 202.269 114.961 201.859 115.092C201.457 115.223 201.117 115.405 200.837 115.638L200.151 114.364C200.552 114.056 201.028 113.827 201.579 113.678C202.139 113.519 202.717 113.44 203.315 113.44C204.397 113.44 205.233 113.701 205.821 114.224C206.418 114.737 206.717 115.535 206.717 116.618V121H205.065ZM202.713 121.098C202.153 121.098 201.663 121.005 201.243 120.818C200.823 120.622 200.496 120.356 200.263 120.02C200.039 119.675 199.927 119.287 199.927 118.858C199.927 118.438 200.025 118.06 200.221 117.724C200.426 117.388 200.757 117.122 201.215 116.926C201.672 116.73 202.279 116.632 203.035 116.632H205.205V117.794H203.161C202.563 117.794 202.162 117.892 201.957 118.088C201.751 118.275 201.649 118.508 201.649 118.788C201.649 119.105 201.775 119.357 202.027 119.544C202.279 119.731 202.629 119.824 203.077 119.824C203.506 119.824 203.889 119.726 204.225 119.53C204.57 119.334 204.817 119.045 204.967 118.662L205.261 119.712C205.093 120.151 204.789 120.491 204.351 120.734C203.921 120.977 203.375 121.098 202.713 121.098ZM35.93 141L40.34 131.2H42.132L46.556 141H44.652L40.858 132.166H41.586L37.806 141H35.93ZM37.96 138.732L38.45 137.304H43.742L44.232 138.732H37.96ZM51.8763 133.44C52.4737 133.44 53.0057 133.557 53.4723 133.79C53.9483 134.023 54.3217 134.383 54.5923 134.868C54.863 135.344 54.9983 135.96 54.9983 136.716V141H53.2483V136.94C53.2483 136.277 53.0897 135.783 52.7723 135.456C52.4643 135.129 52.0303 134.966 51.4703 134.966C51.0597 134.966 50.6957 135.05 50.3783 135.218C50.061 135.386 49.8137 135.638 49.6363 135.974C49.4683 136.301 49.3843 136.716 49.3843 137.22V141H47.6343V133.524H49.3003V135.54L49.0063 134.924C49.2677 134.448 49.6457 134.084 50.1403 133.832C50.6443 133.571 51.223 133.44 51.8763 133.44ZM60.0323 141.098C59.211 141.098 58.5763 140.888 58.1283 140.468C57.6803 140.039 57.4563 139.409 57.4563 138.578V131.872H59.2063V138.536C59.2063 138.891 59.295 139.166 59.4723 139.362C59.659 139.558 59.9156 139.656 60.2423 139.656C60.6343 139.656 60.961 139.553 61.2223 139.348L61.7123 140.594C61.507 140.762 61.255 140.888 60.9563 140.972C60.6576 141.056 60.3496 141.098 60.0323 141.098ZM56.2243 134.98V133.58H61.2083V134.98H56.2243ZM63.1519 141V133.524H64.8179V135.582L64.6219 134.98C64.8459 134.476 65.1959 134.093 65.6719 133.832C66.1572 133.571 66.7592 133.44 67.4779 133.44V135.106C67.4032 135.087 67.3332 135.078 67.2679 135.078C67.2026 135.069 67.1372 135.064 67.0719 135.064C66.4092 135.064 65.8819 135.26 65.4899 135.652C65.0979 136.035 64.9019 136.609 64.9019 137.374V141H63.1519ZM73.0353 141V139.488L72.9373 139.166V136.52C72.9373 136.007 72.7833 135.61 72.4753 135.33C72.1673 135.041 71.7006 134.896 71.0753 134.896C70.6553 134.896 70.2399 134.961 69.8293 135.092C69.4279 135.223 69.0873 135.405 68.8073 135.638L68.1213 134.364C68.5226 134.056 68.9986 133.827 69.5493 133.678C70.1093 133.519 70.6879 133.44 71.2853 133.44C72.3679 133.44 73.2033 133.701 73.7913 134.224C74.3886 134.737 74.6873 135.535 74.6873 136.618V141H73.0353ZM70.6833 141.098C70.1233 141.098 69.6333 141.005 69.2133 140.818C68.7933 140.622 68.4666 140.356 68.2333 140.02C68.0093 139.675 67.8973 139.287 67.8973 138.858C67.8973 138.438 67.9953 138.06 68.1913 137.724C68.3966 137.388 68.7279 137.122 69.1853 136.926C69.6426 136.73 70.2493 136.632 71.0053 136.632H73.1753V137.794H71.1313C70.5339 137.794 70.1326 137.892 69.9273 138.088C69.7219 138.275 69.6193 138.508 69.6193 138.788C69.6193 139.105 69.7453 139.357 69.9973 139.544C70.2493 139.731 70.5993 139.824 71.0473 139.824C71.4766 139.824 71.8593 139.726 72.1953 139.53C72.5406 139.334 72.7879 139.045 72.9373 138.662L73.2313 139.712C73.0633 140.151 72.7599 140.491 72.3213 140.734C71.8919 140.977 71.3459 141.098 70.6833 141.098ZM80.3768 141.098C79.5928 141.098 78.8928 140.935 78.2768 140.608C77.6702 140.272 77.1942 139.815 76.8488 139.236C76.5035 138.657 76.3308 137.999 76.3308 137.262C76.3308 136.515 76.5035 135.857 76.8488 135.288C77.1942 134.709 77.6702 134.257 78.2768 133.93C78.8928 133.603 79.5928 133.44 80.3768 133.44C81.1048 133.44 81.7442 133.589 82.2948 133.888C82.8548 134.177 83.2795 134.607 83.5688 135.176L82.2248 135.96C82.0008 135.605 81.7255 135.344 81.3988 135.176C81.0815 135.008 80.7362 134.924 80.3628 134.924C79.9335 134.924 79.5462 135.017 79.2008 135.204C78.8555 135.391 78.5848 135.661 78.3888 136.016C78.1928 136.361 78.0948 136.777 78.0948 137.262C78.0948 137.747 78.1928 138.167 78.3888 138.522C78.5848 138.867 78.8555 139.133 79.2008 139.32C79.5462 139.507 79.9335 139.6 80.3628 139.6C80.7362 139.6 81.0815 139.516 81.3988 139.348C81.7255 139.18 82.0008 138.919 82.2248 138.564L83.5688 139.348C83.2795 139.908 82.8548 140.342 82.2948 140.65C81.7442 140.949 81.1048 141.098 80.3768 141.098ZM89.3236 133.44C89.9209 133.44 90.4529 133.557 90.9196 133.79C91.3956 134.023 91.7689 134.383 92.0396 134.868C92.3103 135.344 92.4456 135.96 92.4456 136.716V141H90.6956V136.94C90.6956 136.277 90.5369 135.783 90.2196 135.456C89.9116 135.129 89.4776 134.966 88.9176 134.966C88.5069 134.966 88.1429 135.05 87.8256 135.218C87.5083 135.386 87.2609 135.638 87.0836 135.974C86.9156 136.301 86.8316 136.716 86.8316 137.22V141H85.0816V133.524H86.7476V135.54L86.4536 134.924C86.7149 134.448 87.0929 134.084 87.5876 133.832C88.0916 133.571 88.6703 133.44 89.3236 133.44ZM98.0393 141.098C97.2739 141.098 96.5926 140.935 95.9953 140.608C95.3979 140.272 94.9266 139.815 94.5813 139.236C94.2359 138.657 94.0633 137.999 94.0633 137.262C94.0633 136.515 94.2359 135.857 94.5813 135.288C94.9266 134.709 95.3979 134.257 95.9953 133.93C96.5926 133.603 97.2739 133.44 98.0393 133.44C98.8139 133.44 99.4999 133.603 100.097 133.93C100.704 134.257 101.175 134.705 101.511 135.274C101.857 135.843 102.029 136.506 102.029 137.262C102.029 137.999 101.857 138.657 101.511 139.236C101.175 139.815 100.704 140.272 100.097 140.608C99.4999 140.935 98.8139 141.098 98.0393 141.098ZM98.0393 139.6C98.4686 139.6 98.8513 139.507 99.1873 139.32C99.5233 139.133 99.7846 138.863 99.9713 138.508C100.167 138.153 100.265 137.738 100.265 137.262C100.265 136.777 100.167 136.361 99.9713 136.016C99.7846 135.661 99.5233 135.391 99.1873 135.204C98.8513 135.017 98.4733 134.924 98.0533 134.924C97.6239 134.924 97.2413 135.017 96.9053 135.204C96.5786 135.391 96.3173 135.661 96.1213 136.016C95.9253 136.361 95.8273 136.777 95.8273 137.262C95.8273 137.738 95.9253 138.153 96.1213 138.508C96.3173 138.863 96.5786 139.133 96.9053 139.32C97.2413 139.507 97.6193 139.6 98.0393 139.6ZM106.013 141.098C105.387 141.098 104.785 141.019 104.207 140.86C103.637 140.692 103.185 140.491 102.849 140.258L103.521 138.928C103.857 139.143 104.258 139.32 104.725 139.46C105.191 139.6 105.658 139.67 106.125 139.67C106.675 139.67 107.072 139.595 107.315 139.446C107.567 139.297 107.693 139.096 107.693 138.844C107.693 138.639 107.609 138.485 107.441 138.382C107.273 138.27 107.053 138.186 106.783 138.13C106.512 138.074 106.209 138.023 105.873 137.976C105.546 137.929 105.215 137.869 104.879 137.794C104.552 137.71 104.253 137.593 103.983 137.444C103.712 137.285 103.493 137.075 103.325 136.814C103.157 136.553 103.073 136.207 103.073 135.778C103.073 135.302 103.208 134.891 103.479 134.546C103.749 134.191 104.127 133.921 104.613 133.734C105.107 133.538 105.691 133.44 106.363 133.44C106.867 133.44 107.375 133.496 107.889 133.608C108.402 133.72 108.827 133.879 109.163 134.084L108.491 135.414C108.136 135.199 107.777 135.055 107.413 134.98C107.058 134.896 106.703 134.854 106.349 134.854C105.817 134.854 105.42 134.933 105.159 135.092C104.907 135.251 104.781 135.451 104.781 135.694C104.781 135.918 104.865 136.086 105.033 136.198C105.201 136.31 105.42 136.399 105.691 136.464C105.961 136.529 106.26 136.585 106.587 136.632C106.923 136.669 107.254 136.73 107.581 136.814C107.907 136.898 108.206 137.015 108.477 137.164C108.757 137.304 108.981 137.505 109.149 137.766C109.317 138.027 109.401 138.368 109.401 138.788C109.401 139.255 109.261 139.661 108.981 140.006C108.71 140.351 108.323 140.622 107.819 140.818C107.315 141.005 106.713 141.098 106.013 141.098ZM114.422 141.098C113.591 141.098 112.863 140.935 112.238 140.608C111.622 140.272 111.141 139.815 110.796 139.236C110.46 138.657 110.292 137.999 110.292 137.262C110.292 136.515 110.455 135.857 110.782 135.288C111.118 134.709 111.575 134.257 112.154 133.93C112.742 133.603 113.409 133.44 114.156 133.44C114.884 133.44 115.532 133.599 116.102 133.916C116.671 134.233 117.119 134.681 117.446 135.26C117.772 135.839 117.936 136.52 117.936 137.304C117.936 137.379 117.931 137.463 117.922 137.556C117.922 137.649 117.917 137.738 117.908 137.822H111.678V136.66H116.984L116.298 137.024C116.307 136.595 116.218 136.217 116.032 135.89C115.845 135.563 115.588 135.307 115.262 135.12C114.944 134.933 114.576 134.84 114.156 134.84C113.726 134.84 113.348 134.933 113.022 135.12C112.704 135.307 112.452 135.568 112.266 135.904C112.088 136.231 112 136.618 112 137.066V137.346C112 137.794 112.102 138.191 112.308 138.536C112.513 138.881 112.802 139.147 113.176 139.334C113.549 139.521 113.978 139.614 114.464 139.614C114.884 139.614 115.262 139.549 115.598 139.418C115.934 139.287 116.232 139.082 116.494 138.802L117.432 139.88C117.096 140.272 116.671 140.575 116.158 140.79C115.654 140.995 115.075 141.098 114.422 141.098ZM123.108 137.836V136.38H126.958V137.836H123.108ZM132.91 141V131.2H136.942C137.81 131.2 138.552 131.34 139.168 131.62C139.793 131.9 140.274 132.301 140.61 132.824C140.946 133.347 141.114 133.967 141.114 134.686C141.114 135.405 140.946 136.025 140.61 136.548C140.274 137.071 139.793 137.472 139.168 137.752C138.552 138.032 137.81 138.172 136.942 138.172H133.918L134.73 137.318V141H132.91ZM134.73 137.514L133.918 136.632H136.858C137.66 136.632 138.262 136.464 138.664 136.128C139.074 135.783 139.28 135.302 139.28 134.686C139.28 134.061 139.074 133.58 138.664 133.244C138.262 132.908 137.66 132.74 136.858 132.74H133.918L134.73 131.844V137.514ZM146.096 141.098C145.331 141.098 144.649 140.935 144.052 140.608C143.455 140.272 142.983 139.815 142.638 139.236C142.293 138.657 142.12 137.999 142.12 137.262C142.12 136.515 142.293 135.857 142.638 135.288C142.983 134.709 143.455 134.257 144.052 133.93C144.649 133.603 145.331 133.44 146.096 133.44C146.871 133.44 147.557 133.603 148.154 133.93C148.761 134.257 149.232 134.705 149.568 135.274C149.913 135.843 150.086 136.506 150.086 137.262C150.086 137.999 149.913 138.657 149.568 139.236C149.232 139.815 148.761 140.272 148.154 140.608C147.557 140.935 146.871 141.098 146.096 141.098ZM146.096 139.6C146.525 139.6 146.908 139.507 147.244 139.32C147.58 139.133 147.841 138.863 148.028 138.508C148.224 138.153 148.322 137.738 148.322 137.262C148.322 136.777 148.224 136.361 148.028 136.016C147.841 135.661 147.58 135.391 147.244 135.204C146.908 135.017 146.53 134.924 146.11 134.924C145.681 134.924 145.298 135.017 144.962 135.204C144.635 135.391 144.374 135.661 144.178 136.016C143.982 136.361 143.884 136.777 143.884 137.262C143.884 137.738 143.982 138.153 144.178 138.508C144.374 138.863 144.635 139.133 144.962 139.32C145.298 139.507 145.676 139.6 146.096 139.6ZM151.759 141V133.524H153.425V135.582L153.229 134.98C153.453 134.476 153.803 134.093 154.279 133.832C154.765 133.571 155.367 133.44 156.085 133.44V135.106C156.011 135.087 155.941 135.078 155.875 135.078C155.81 135.069 155.745 135.064 155.679 135.064C155.017 135.064 154.489 135.26 154.097 135.652C153.705 136.035 153.509 136.609 153.509 137.374V141H151.759ZM161.675 141V131.2H165.707C166.575 131.2 167.317 131.34 167.933 131.62C168.559 131.9 169.039 132.301 169.375 132.824C169.711 133.347 169.879 133.967 169.879 134.686C169.879 135.405 169.711 136.025 169.375 136.548C169.039 137.071 168.559 137.472 167.933 137.752C167.317 138.032 166.575 138.172 165.707 138.172H162.683L163.495 137.318V141H161.675ZM163.495 137.514L162.683 136.632H165.623C166.426 136.632 167.028 136.464 167.429 136.128C167.84 135.783 168.045 135.302 168.045 134.686C168.045 134.061 167.84 133.58 167.429 133.244C167.028 132.908 166.426 132.74 165.623 132.74H162.683L163.495 131.844V137.514ZM171.666 141V130.612H173.416V141H171.666ZM180.318 141V139.488L180.22 139.166V136.52C180.22 136.007 180.066 135.61 179.758 135.33C179.45 135.041 178.984 134.896 178.358 134.896C177.938 134.896 177.523 134.961 177.112 135.092C176.711 135.223 176.37 135.405 176.09 135.638L175.404 134.364C175.806 134.056 176.282 133.827 176.832 133.678C177.392 133.519 177.971 133.44 178.568 133.44C179.651 133.44 180.486 133.701 181.074 134.224C181.672 134.737 181.97 135.535 181.97 136.618V141H180.318ZM177.966 141.098C177.406 141.098 176.916 141.005 176.496 140.818C176.076 140.622 175.75 140.356 175.516 140.02C175.292 139.675 175.18 139.287 175.18 138.858C175.18 138.438 175.278 138.06 175.474 137.724C175.68 137.388 176.011 137.122 176.468 136.926C176.926 136.73 177.532 136.632 178.288 136.632H180.458V137.794H178.414C177.817 137.794 177.416 137.892 177.21 138.088C177.005 138.275 176.902 138.508 176.902 138.788C176.902 139.105 177.028 139.357 177.28 139.544C177.532 139.731 177.882 139.824 178.33 139.824C178.76 139.824 179.142 139.726 179.478 139.53C179.824 139.334 180.071 139.045 180.22 138.662L180.514 139.712C180.346 140.151 180.043 140.491 179.604 140.734C179.175 140.977 178.629 141.098 177.966 141.098ZM188.458 133.44C189.056 133.44 189.588 133.557 190.054 133.79C190.53 134.023 190.904 134.383 191.174 134.868C191.445 135.344 191.58 135.96 191.58 136.716V141H189.83V136.94C189.83 136.277 189.672 135.783 189.354 135.456C189.046 135.129 188.612 134.966 188.052 134.966C187.642 134.966 187.278 135.05 186.96 135.218C186.643 135.386 186.396 135.638 186.218 135.974C186.05 136.301 185.966 136.716 185.966 137.22V141H184.216V133.524H185.882V135.54L185.588 134.924C185.85 134.448 186.228 134.084 186.722 133.832C187.226 133.571 187.805 133.44 188.458 133.44ZM196.614 141.098C195.793 141.098 195.158 140.888 194.71 140.468C194.262 140.039 194.038 139.409 194.038 138.578V131.872H195.788V138.536C195.788 138.891 195.877 139.166 196.054 139.362C196.241 139.558 196.498 139.656 196.824 139.656C197.216 139.656 197.543 139.553 197.804 139.348L198.294 140.594C198.089 140.762 197.837 140.888 197.538 140.972C197.24 141.056 196.932 141.098 196.614 141.098ZM192.806 134.98V133.58H197.79V134.98H192.806ZM204.34 141V139.488L204.242 139.166V136.52C204.242 136.007 204.088 135.61 203.78 135.33C203.472 135.041 203.005 134.896 202.38 134.896C201.96 134.896 201.545 134.961 201.134 135.092C200.733 135.223 200.392 135.405 200.112 135.638L199.426 134.364C199.827 134.056 200.303 133.827 200.854 133.678C201.414 133.519 201.993 133.44 202.59 133.44C203.673 133.44 204.508 133.701 205.096 134.224C205.693 134.737 205.992 135.535 205.992 136.618V141H204.34ZM201.988 141.098C201.428 141.098 200.938 141.005 200.518 140.818C200.098 140.622 199.771 140.356 199.538 140.02C199.314 139.675 199.202 139.287 199.202 138.858C199.202 138.438 199.3 138.06 199.496 137.724C199.701 137.388 200.033 137.122 200.49 136.926C200.947 136.73 201.554 136.632 202.31 136.632H204.48V137.794H202.436C201.839 137.794 201.437 137.892 201.232 138.088C201.027 138.275 200.924 138.508 200.924 138.788C200.924 139.105 201.05 139.357 201.302 139.544C201.554 139.731 201.904 139.824 202.352 139.824C202.781 139.824 203.164 139.726 203.5 139.53C203.845 139.334 204.093 139.045 204.242 138.662L204.536 139.712C204.368 140.151 204.065 140.491 203.626 140.734C203.197 140.977 202.651 141.098 201.988 141.098ZM211.682 141.098C210.898 141.098 210.198 140.935 209.582 140.608C208.975 140.272 208.499 139.815 208.154 139.236C207.808 138.657 207.636 137.999 207.636 137.262C207.636 136.515 207.808 135.857 208.154 135.288C208.499 134.709 208.975 134.257 209.582 133.93C210.198 133.603 210.898 133.44 211.682 133.44C212.41 133.44 213.049 133.589 213.6 133.888C214.16 134.177 214.584 134.607 214.874 135.176L213.53 135.96C213.306 135.605 213.03 135.344 212.704 135.176C212.386 135.008 212.041 134.924 211.668 134.924C211.238 134.924 210.851 135.017 210.506 135.204C210.16 135.391 209.89 135.661 209.694 136.016C209.498 136.361 209.4 136.777 209.4 137.262C209.4 137.747 209.498 138.167 209.694 138.522C209.89 138.867 210.16 139.133 210.506 139.32C210.851 139.507 211.238 139.6 211.668 139.6C212.041 139.6 212.386 139.516 212.704 139.348C213.03 139.18 213.306 138.919 213.53 138.564L214.874 139.348C214.584 139.908 214.16 140.342 213.6 140.65C213.049 140.949 212.41 141.098 211.682 141.098ZM210.954 144.192C210.702 144.192 210.468 144.164 210.254 144.108C210.039 144.061 209.843 143.991 209.666 143.898L209.988 143.072C210.137 143.147 210.286 143.203 210.436 143.24C210.594 143.277 210.762 143.296 210.94 143.296C211.21 143.296 211.402 143.249 211.514 143.156C211.626 143.063 211.682 142.941 211.682 142.792C211.682 142.652 211.621 142.54 211.5 142.456C211.388 142.372 211.201 142.33 210.94 142.33H210.506L210.884 140.902H211.836L211.64 141.686C212.05 141.733 212.354 141.863 212.55 142.078C212.755 142.302 212.858 142.563 212.858 142.862C212.858 143.273 212.685 143.595 212.34 143.828C211.994 144.071 211.532 144.192 210.954 144.192ZM219.637 141.098C218.872 141.098 218.19 140.935 217.593 140.608C216.996 140.272 216.524 139.815 216.179 139.236C215.834 138.657 215.661 137.999 215.661 137.262C215.661 136.515 215.834 135.857 216.179 135.288C216.524 134.709 216.996 134.257 217.593 133.93C218.19 133.603 218.872 133.44 219.637 133.44C220.412 133.44 221.098 133.603 221.695 133.93C222.302 134.257 222.773 134.705 223.109 135.274C223.454 135.843 223.627 136.506 223.627 137.262C223.627 137.999 223.454 138.657 223.109 139.236C222.773 139.815 222.302 140.272 221.695 140.608C221.098 140.935 220.412 141.098 219.637 141.098ZM219.637 139.6C220.066 139.6 220.449 139.507 220.785 139.32C221.121 139.133 221.382 138.863 221.569 138.508C221.765 138.153 221.863 137.738 221.863 137.262C221.863 136.777 221.765 136.361 221.569 136.016C221.382 135.661 221.121 135.391 220.785 135.204C220.449 135.017 220.071 134.924 219.651 134.924C219.222 134.924 218.839 135.017 218.503 135.204C218.176 135.391 217.915 135.661 217.719 136.016C217.523 136.361 217.425 136.777 217.425 137.262C217.425 137.738 217.523 138.153 217.719 138.508C217.915 138.863 218.176 139.133 218.503 139.32C218.839 139.507 219.217 139.6 219.637 139.6ZM220.631 132.502C220.407 132.502 220.202 132.46 220.015 132.376C219.838 132.283 219.674 132.175 219.525 132.054C219.385 131.923 219.25 131.811 219.119 131.718C218.988 131.625 218.858 131.578 218.727 131.578C218.531 131.578 218.372 131.653 218.251 131.802C218.13 131.951 218.06 132.157 218.041 132.418H217.103C217.122 131.839 217.262 131.382 217.523 131.046C217.794 130.71 218.158 130.542 218.615 130.542C218.839 130.542 219.044 130.589 219.231 130.682C219.418 130.775 219.581 130.883 219.721 131.004C219.87 131.125 220.01 131.233 220.141 131.326C220.272 131.419 220.398 131.466 220.519 131.466C220.715 131.466 220.874 131.396 220.995 131.256C221.126 131.116 221.196 130.92 221.205 130.668H222.143C222.134 131.209 221.994 131.653 221.723 131.998C221.452 132.334 221.088 132.502 220.631 132.502ZM228.814 141.098C227.984 141.098 227.256 140.935 226.63 140.608C226.014 140.272 225.534 139.815 225.188 139.236C224.852 138.657 224.684 137.999 224.684 137.262C224.684 136.515 224.848 135.857 225.174 135.288C225.51 134.709 225.968 134.257 226.546 133.93C227.134 133.603 227.802 133.44 228.548 133.44C229.276 133.44 229.925 133.599 230.494 133.916C231.064 134.233 231.512 134.681 231.838 135.26C232.165 135.839 232.328 136.52 232.328 137.304C232.328 137.379 232.324 137.463 232.314 137.556C232.314 137.649 232.31 137.738 232.3 137.822H226.07V136.66H231.376L230.69 137.024C230.7 136.595 230.611 136.217 230.424 135.89C230.238 135.563 229.981 135.307 229.654 135.12C229.337 134.933 228.968 134.84 228.548 134.84C228.119 134.84 227.741 134.933 227.414 135.12C227.097 135.307 226.845 135.568 226.658 135.904C226.481 136.231 226.392 136.618 226.392 137.066V137.346C226.392 137.794 226.495 138.191 226.7 138.536C226.906 138.881 227.195 139.147 227.568 139.334C227.942 139.521 228.371 139.614 228.856 139.614C229.276 139.614 229.654 139.549 229.99 139.418C230.326 139.287 230.625 139.082 230.886 138.802L231.824 139.88C231.488 140.272 231.064 140.575 230.55 140.79C230.046 140.995 229.468 141.098 228.814 141.098ZM236.319 141.098C235.694 141.098 235.092 141.019 234.513 140.86C233.944 140.692 233.491 140.491 233.155 140.258L233.827 138.928C234.163 139.143 234.565 139.32 235.031 139.46C235.498 139.6 235.965 139.67 236.431 139.67C236.982 139.67 237.379 139.595 237.621 139.446C237.873 139.297 237.999 139.096 237.999 138.844C237.999 138.639 237.915 138.485 237.747 138.382C237.579 138.27 237.36 138.186 237.089 138.13C236.819 138.074 236.515 138.023 236.179 137.976C235.853 137.929 235.521 137.869 235.185 137.794C234.859 137.71 234.56 137.593 234.289 137.444C234.019 137.285 233.799 137.075 233.631 136.814C233.463 136.553 233.379 136.207 233.379 135.778C233.379 135.302 233.515 134.891 233.785 134.546C234.056 134.191 234.434 133.921 234.919 133.734C235.414 133.538 235.997 133.44 236.669 133.44C237.173 133.44 237.682 133.496 238.195 133.608C238.709 133.72 239.133 133.879 239.469 134.084L238.797 135.414C238.443 135.199 238.083 135.055 237.719 134.98C237.365 134.896 237.01 134.854 236.655 134.854C236.123 134.854 235.727 134.933 235.465 135.092C235.213 135.251 235.087 135.451 235.087 135.694C235.087 135.918 235.171 136.086 235.339 136.198C235.507 136.31 235.727 136.399 235.997 136.464C236.268 136.529 236.567 136.585 236.893 136.632C237.229 136.669 237.561 136.73 237.887 136.814C238.214 136.898 238.513 137.015 238.783 137.164C239.063 137.304 239.287 137.505 239.455 137.766C239.623 138.027 239.707 138.368 239.707 138.788C239.707 139.255 239.567 139.661 239.287 140.006C239.017 140.351 238.629 140.622 238.125 140.818C237.621 141.005 237.019 141.098 236.319 141.098Z" fill="#3F4A3F" fill-opacity="0.6"/>
<path d="M50.08 92.48C47.52 92.48 45.2933 91.9467 43.4 90.88C41.5333 89.8133 40.0933 88.2533 39.08 86.2C38.0667 84.1467 37.56 81.6133 37.56 78.6C37.56 75.3733 38.16 72.64 39.36 70.4C40.5867 68.16 42.2667 66.4533 44.4 65.28C46.56 64.1067 49.04 63.52 51.84 63.52C53.3333 63.52 54.76 63.68 56.12 64C57.48 64.32 58.6533 64.8 59.64 65.44L57.24 70.2C56.4667 69.6667 55.64 69.3067 54.76 69.12C53.88 68.9067 52.96 68.8 52 68.8C49.5733 68.8 47.6533 69.5333 46.24 71C44.8267 72.4667 44.12 74.64 44.12 77.52C44.12 78 44.12 78.5333 44.12 79.12C44.1467 79.7067 44.2267 80.2933 44.36 80.88L42.56 79.2C43.0667 78.16 43.72 77.2933 44.52 76.6C45.32 75.88 46.2667 75.3467 47.36 75C48.48 74.6267 49.7067 74.44 51.04 74.44C52.8533 74.44 54.48 74.8 55.92 75.52C57.36 76.24 58.5067 77.2533 59.36 78.56C60.24 79.8667 60.68 81.4 60.68 83.16C60.68 85.0533 60.2 86.7067 59.24 88.12C58.3067 89.5067 57.04 90.5867 55.44 91.36C53.8667 92.1067 52.08 92.48 50.08 92.48ZM49.72 87.64C50.6267 87.64 51.4267 87.48 52.12 87.16C52.84 86.8133 53.4 86.32 53.8 85.68C54.2 85.04 54.4 84.3067 54.4 83.48C54.4 82.2 53.96 81.1867 53.08 80.44C52.2267 79.6667 51.08 79.28 49.64 79.28C48.68 79.28 47.84 79.4667 47.12 79.84C46.4 80.1867 45.8267 80.68 45.4 81.32C45 81.9333 44.8 82.6533 44.8 83.48C44.8 84.28 45 85 45.4 85.64C45.8 86.2533 46.36 86.7467 47.08 87.12C47.8 87.4667 48.68 87.64 49.72 87.64ZM72.5488 92.48C70.6021 92.48 68.6688 92.2267 66.7487 91.72C64.8554 91.1867 63.2288 90.44 61.8688 89.48L64.4288 84.52C65.4954 85.2933 66.7221 85.9067 68.1088 86.36C69.5221 86.8133 70.9488 87.04 72.3888 87.04C74.0154 87.04 75.2954 86.72 76.2288 86.08C77.1621 85.44 77.6288 84.5467 77.6288 83.4C77.6288 82.68 77.4421 82.04 77.0688 81.48C76.6954 80.92 76.0288 80.4933 75.0688 80.2C74.1354 79.9067 72.8154 79.76 71.1088 79.76H63.9488L65.3888 64H82.4688V69.2H67.7088L71.0688 66.24L70.0688 77.48L66.7088 74.52H72.6288C75.4021 74.52 77.6288 74.9067 79.3088 75.68C81.0154 76.4267 82.2554 77.4533 83.0288 78.76C83.8021 80.0667 84.1888 81.5467 84.1888 83.2C84.1888 84.8533 83.7754 86.3867 82.9488 87.8C82.1221 89.1867 80.8421 90.32 79.1088 91.2C77.4021 92.0533 75.2154 92.48 72.5488 92.48ZM90.4672 92L109.587 64H114.347L95.2272 92H90.4672ZM92.9072 79.12C91.5472 79.12 90.3472 78.8133 89.3072 78.2C88.2672 77.56 87.4405 76.6667 86.8272 75.52C86.2405 74.3467 85.9472 72.9733 85.9472 71.4C85.9472 69.8267 86.2405 68.4667 86.8272 67.32C87.4405 66.1733 88.2672 65.28 89.3072 64.64C90.3472 64 91.5472 63.68 92.9072 63.68C94.2672 63.68 95.4672 64 96.5072 64.64C97.5472 65.28 98.3605 66.1733 98.9472 67.32C99.5339 68.4667 99.8272 69.8267 99.8272 71.4C99.8272 72.9733 99.5339 74.3467 98.9472 75.52C98.3605 76.6667 97.5472 77.56 96.5072 78.2C95.4672 78.8133 94.2672 79.12 92.9072 79.12ZM92.9072 75.84C93.7872 75.84 94.4939 75.48 95.0272 74.76C95.5605 74.0133 95.8272 72.8933 95.8272 71.4C95.8272 69.9067 95.5605 68.8 95.0272 68.08C94.4939 67.3333 93.7872 66.96 92.9072 66.96C92.0539 66.96 91.3472 67.3333 90.7872 68.08C90.2539 68.8 89.9872 69.9067 89.9872 71.4C89.9872 72.8667 90.2539 73.9733 90.7872 74.72C91.3472 75.4667 92.0539 75.84 92.9072 75.84ZM111.907 92.32C110.574 92.32 109.374 92.0133 108.307 91.4C107.267 90.76 106.454 89.8667 105.867 88.72C105.281 87.5467 104.987 86.1733 104.987 84.6C104.987 83.0267 105.281 81.6667 105.867 80.52C106.454 79.3733 107.267 78.48 108.307 77.84C109.374 77.2 110.574 76.88 111.907 76.88C113.294 76.88 114.507 77.2 115.547 77.84C116.587 78.48 117.401 79.3733 117.987 80.52C118.574 81.6667 118.867 83.0267 118.867 84.6C118.867 86.1733 118.574 87.5467 117.987 88.72C117.401 89.8667 116.587 90.76 115.547 91.4C114.507 92.0133 113.294 92.32 111.907 92.32ZM111.907 89.04C112.787 89.04 113.494 88.68 114.027 87.96C114.561 87.2133 114.827 86.0933 114.827 84.6C114.827 83.1333 114.561 82.0267 114.027 81.28C113.494 80.5333 112.787 80.16 111.907 80.16C111.054 80.16 110.347 80.5333 109.787 81.28C109.254 82 108.987 83.1067 108.987 84.6C108.987 86.0933 109.254 87.2133 109.787 87.96C110.347 88.68 111.054 89.04 111.907 89.04Z" fill="#586F55"/>
<defs>
<filter id="filter0_d_218_177" x="0" y="0" width="291" height="396" filterUnits="userSpaceOnUse" color-interpolation-filters="sRGB">
<feFlood flood-opacity="0" result="BackgroundImageFix"/>
<feColorMatrix in="SourceAlpha" type="matrix" values="0 0 0 0 0 0 0 0 0 0 0 0 0 0 0 0 0 0 127 0" result="hardAlpha"/>
<feOffset dy="1"/>
<feGaussianBlur stdDeviation="4"/>
<feColorMatrix type="matrix" values="0 0 0 0 0.431373 0 0 0 0 0.431373 0 0 0 0 0.431373 0 0 0 0.1 0"/>
<feBlend mode="normal" in2="BackgroundImageFix" result="effect1_dropShadow_218_177"/>
<feBlend mode="normal" in="SourceGraphic" in2="effect1_dropShadow_218_177" result="shape"/>
</filter>
</defs>
</svg>
