<svg width="867" height="529" viewBox="0 0 867 529" fill="none" xmlns="http://www.w3.org/2000/svg">
<g clip-path="url(#clip0_220_213)">
<path d="M859 0H8C3.58172 0 0 3.58172 0 8V521C0 525.418 3.58172 529 8 529H859C863.418 529 867 525.418 867 521V8C867 3.58172 863.418 0 859 0Z" fill="#D4FFD0"/>
<path d="M133.5 48.4854V61H130.653V48.4854H133.5ZM148.035 48.4854V61H145.188L139.893 52.6963V61H137.046V48.4854H139.893L145.188 56.7891V48.4854H148.035ZM157.489 48.4854V61H154.643V48.4854H157.489ZM161.614 48.4854V50.7305H150.593V48.4854H161.614ZM173.249 58.7656V61H166.073V58.7656H173.249ZM167.029 48.4854V61H164.183V48.4854H167.029ZM172.325 53.416V55.6504H166.073V53.416H172.325ZM173.249 48.4854V50.7305H166.073V48.4854H173.249ZM186.807 48.4854V61H183.96L178.664 52.6963V61H175.817V48.4854H178.664L183.96 56.7891V48.4854H186.807ZM197.174 57.6914C197.174 57.4694 197.131 57.2689 197.045 57.0898C196.966 56.9108 196.834 56.7497 196.647 56.6064C196.461 56.4632 196.203 56.3271 195.874 56.1982C195.552 56.0693 195.147 55.9476 194.66 55.833C193.894 55.6468 193.224 55.4427 192.651 55.2207C192.078 54.9987 191.599 54.7373 191.212 54.4365C190.832 54.1357 190.546 53.7812 190.353 53.373C190.166 52.9577 190.073 52.4743 190.073 51.9229C190.073 51.3929 190.188 50.9095 190.417 50.4727C190.653 50.0286 190.983 49.6455 191.405 49.3232C191.835 49.001 192.34 48.7539 192.92 48.582C193.507 48.403 194.148 48.3135 194.843 48.3135C195.853 48.3135 196.737 48.4746 197.496 48.7969C198.262 49.1191 198.857 49.5703 199.279 50.1504C199.702 50.7233 199.913 51.4036 199.913 52.1914H197.066C197.066 51.862 196.98 51.5648 196.809 51.2998C196.644 51.0277 196.397 50.8092 196.067 50.6445C195.738 50.4798 195.33 50.3975 194.843 50.3975C194.377 50.3975 193.991 50.4691 193.683 50.6123C193.382 50.7484 193.156 50.9274 193.006 51.1494C192.863 51.3643 192.791 51.5934 192.791 51.8369C192.791 52.0374 192.834 52.2201 192.92 52.3848C193.013 52.5423 193.156 52.6891 193.35 52.8252C193.55 52.9541 193.812 53.0794 194.134 53.2012C194.456 53.3158 194.846 53.4339 195.305 53.5557C196.064 53.7275 196.73 53.9316 197.303 54.168C197.883 54.3971 198.363 54.6729 198.742 54.9951C199.129 55.3174 199.419 55.6934 199.612 56.123C199.806 56.5527 199.902 57.0505 199.902 57.6162C199.902 58.1748 199.788 58.6761 199.559 59.1201C199.329 59.557 198.996 59.9294 198.56 60.2373C198.13 60.5381 197.614 60.7708 197.013 60.9355C196.418 61.0931 195.752 61.1719 195.015 61.1719C194.356 61.1719 193.708 61.0931 193.07 60.9355C192.433 60.778 191.856 60.5345 191.341 60.2051C190.825 59.8685 190.413 59.4424 190.105 58.9268C189.798 58.4111 189.644 57.7952 189.644 57.0791H192.501C192.501 57.4372 192.558 57.7451 192.673 58.0029C192.795 58.2607 192.966 58.472 193.188 58.6367C193.418 58.7943 193.697 58.9124 194.026 58.9912C194.356 59.0628 194.728 59.0986 195.144 59.0986C195.631 59.0986 196.024 59.0306 196.325 58.8945C196.626 58.7585 196.841 58.583 196.97 58.3682C197.106 58.1533 197.174 57.9277 197.174 57.6914ZM205.908 48.4854V61H203.062V48.4854H205.908ZM213.633 61H210.689L210.7 58.7656H213.633C214.413 58.7656 215.047 58.626 215.534 58.3467C216.021 58.0602 216.376 57.6377 216.598 57.0791C216.827 56.5205 216.941 55.8366 216.941 55.0273V54.4473C216.941 53.8457 216.877 53.3122 216.748 52.8467C216.626 52.3812 216.433 51.9945 216.168 51.6865C215.903 51.3714 215.559 51.1351 215.137 50.9775C214.721 50.8128 214.22 50.7305 213.633 50.7305H210.625V48.4854H213.633C214.542 48.4854 215.373 48.6322 216.125 48.9258C216.877 49.2122 217.525 49.6204 218.069 50.1504C218.621 50.6803 219.047 51.3105 219.348 52.041C219.648 52.7715 219.799 53.5807 219.799 54.4688V55.0273C219.799 56.2018 219.534 57.2402 219.004 58.1426C218.481 59.0378 217.758 59.7396 216.834 60.248C215.91 60.7493 214.843 61 213.633 61ZM212.301 48.4854V61H209.454V48.4854H212.301ZM228.028 51.3965L224.483 61H221.604L226.6 48.4854H228.533L228.028 51.3965ZM231.401 61L227.813 51.3857L227.309 48.4854H229.264L234.27 61H231.401ZM231.283 56.3486V58.4219H224.247V56.3486H231.283ZM240.662 61H237.719L237.729 58.7656H240.662C241.443 58.7656 242.076 58.626 242.563 58.3467C243.05 58.0602 243.405 57.6377 243.627 57.0791C243.856 56.5205 243.971 55.8366 243.971 55.0273V54.4473C243.971 53.8457 243.906 53.3122 243.777 52.8467C243.656 52.3812 243.462 51.9945 243.197 51.6865C242.932 51.3714 242.589 51.1351 242.166 50.9775C241.751 50.8128 241.249 50.7305 240.662 50.7305H237.654V48.4854H240.662C241.572 48.4854 242.402 48.6322 243.154 48.9258C243.906 49.2122 244.554 49.6204 245.099 50.1504C245.65 50.6803 246.076 51.3105 246.377 52.041C246.678 52.7715 246.828 53.5807 246.828 54.4688V55.0273C246.828 56.2018 246.563 57.2402 246.033 58.1426C245.51 59.0378 244.787 59.7396 243.863 60.248C242.939 60.7493 241.872 61 240.662 61ZM239.33 48.4854V61H236.483V48.4854H239.33ZM258.839 58.7656V61H251.663V58.7656H258.839ZM252.619 48.4854V61H249.772V48.4854H252.619ZM257.915 53.416V55.6504H251.663V53.416H257.915ZM258.839 48.4854V50.7305H251.663V48.4854H258.839ZM272.064 61H269.121L269.132 58.7656H272.064C272.845 58.7656 273.479 58.626 273.966 58.3467C274.453 58.0602 274.807 57.6377 275.029 57.0791C275.258 56.5205 275.373 55.8366 275.373 55.0273V54.4473C275.373 53.8457 275.309 53.3122 275.18 52.8467C275.058 52.3812 274.865 51.9945 274.6 51.6865C274.335 51.3714 273.991 51.1351 273.568 50.9775C273.153 50.8128 272.652 50.7305 272.064 50.7305H269.057V48.4854H272.064C272.974 48.4854 273.805 48.6322 274.557 48.9258C275.309 49.2122 275.957 49.6204 276.501 50.1504C277.052 50.6803 277.479 51.3105 277.779 52.041C278.08 52.7715 278.23 53.5807 278.23 54.4688V55.0273C278.23 56.2018 277.965 57.2402 277.436 58.1426C276.913 59.0378 276.189 59.7396 275.266 60.248C274.342 60.7493 273.275 61 272.064 61ZM270.732 48.4854V61H267.886V48.4854H270.732ZM286.46 51.3965L282.915 61H280.036L285.031 48.4854H286.965L286.46 51.3965ZM289.833 61L286.245 51.3857L285.74 48.4854H287.695L292.701 61H289.833ZM289.715 56.3486V58.4219H282.679V56.3486H289.715ZM306.679 51.3965L303.134 61H300.255L305.25 48.4854H307.184L306.679 51.3965ZM310.052 61L306.464 51.3857L305.959 48.4854H307.914L312.92 61H310.052ZM309.934 56.3486V58.4219H302.897V56.3486H309.934ZM326.123 48.4854V61H323.276L317.98 52.6963V61H315.134V48.4854H317.98L323.276 56.7891V48.4854H326.123ZM335.577 48.4854V61H332.73V48.4854H335.577ZM339.702 48.4854V50.7305H328.681V48.4854H339.702ZM342.26 48.4854H347.341C348.107 48.4854 348.798 48.5677 349.414 48.7324C350.037 48.89 350.563 49.1299 350.993 49.4521C351.43 49.7673 351.763 50.1611 351.992 50.6338C352.221 51.0993 352.336 51.64 352.336 52.2559C352.336 52.9577 352.214 53.5521 351.971 54.0391C351.727 54.526 351.387 54.9271 350.95 55.2422C350.513 55.5501 350.001 55.8044 349.414 56.0049L348.49 56.5312H344.097L344.075 54.2861H347.373C347.839 54.2861 348.229 54.2145 348.544 54.0713C348.859 53.9281 349.095 53.724 349.253 53.459C349.41 53.194 349.489 52.8825 349.489 52.5244C349.489 52.152 349.407 51.8333 349.242 51.5684C349.085 51.2962 348.845 51.0885 348.522 50.9453C348.207 50.8021 347.813 50.7305 347.341 50.7305H345.117V61H342.26V48.4854ZM349.769 61L346.718 55.4678L349.726 55.4463L352.83 60.8711V61H349.769ZM360.759 51.3965L357.214 61H354.335L359.33 48.4854H361.264L360.759 51.3965ZM364.132 61L360.544 51.3857L360.039 48.4854H361.994L367 61H364.132ZM364.014 56.3486V58.4219H356.978V56.3486H364.014ZM376.83 56.7783H379.688C379.623 57.652 379.369 58.4183 378.925 59.0771C378.481 59.736 377.861 60.2516 377.066 60.624C376.279 60.9893 375.337 61.1719 374.241 61.1719C373.368 61.1719 372.587 61.0322 371.899 60.7529C371.212 60.4736 370.625 60.0726 370.138 59.5498C369.658 59.0199 369.289 58.3825 369.031 57.6377C368.781 56.8929 368.655 56.0514 368.655 55.1133V54.3828C368.655 53.4447 368.788 52.6032 369.053 51.8584C369.318 51.1064 369.694 50.4691 370.181 49.9463C370.668 49.4163 371.251 49.0117 371.932 48.7324C372.619 48.446 373.389 48.3027 374.241 48.3027C375.373 48.3027 376.325 48.4961 377.099 48.8828C377.879 49.2695 378.484 49.8031 378.914 50.4834C379.351 51.1566 379.612 51.9229 379.698 52.7822H376.852C376.816 52.3525 376.708 51.9694 376.529 51.6328C376.35 51.2962 376.075 51.0312 375.702 50.8379C375.337 50.6445 374.85 50.5479 374.241 50.5479C373.79 50.5479 373.393 50.6302 373.049 50.7949C372.705 50.9525 372.419 51.1924 372.189 51.5146C371.96 51.8298 371.788 52.2272 371.674 52.707C371.559 53.1797 371.502 53.7347 371.502 54.3721V55.1133C371.502 55.7435 371.552 56.2985 371.652 56.7783C371.76 57.251 371.924 57.6484 372.146 57.9707C372.368 58.293 372.651 58.5365 372.995 58.7012C373.346 58.8659 373.761 58.9482 374.241 58.9482C374.807 58.9482 375.272 58.8695 375.638 58.7119C376.003 58.5544 376.282 58.3145 376.476 57.9922C376.676 57.6628 376.794 57.2581 376.83 56.7783ZM393.449 48.4854V61H390.603L385.307 52.6963V61H382.46V48.4854H385.307L390.603 56.7891V48.4854H393.449ZM407.898 54.4688V55.0273C407.898 55.9798 407.759 56.8356 407.479 57.5947C407.207 58.3467 406.817 58.9912 406.309 59.5283C405.8 60.0583 405.195 60.4665 404.493 60.7529C403.791 61.0322 403.014 61.1719 402.162 61.1719C401.31 61.1719 400.533 61.0322 399.831 60.7529C399.129 60.4665 398.521 60.0583 398.005 59.5283C397.489 58.9912 397.092 58.3467 396.812 57.5947C396.533 56.8356 396.394 55.9798 396.394 55.0273V54.4688C396.394 53.5163 396.533 52.6641 396.812 51.9121C397.092 51.153 397.486 50.5049 397.994 49.9678C398.503 49.4307 399.108 49.0225 399.81 48.7432C400.511 48.4567 401.288 48.3135 402.141 48.3135C402.993 48.3135 403.77 48.4567 404.472 48.7432C405.174 49.0225 405.779 49.4307 406.287 49.9678C406.803 50.5049 407.2 51.153 407.479 51.9121C407.759 52.6641 407.898 53.5163 407.898 54.4688ZM405.052 55.0273V54.4473C405.052 53.8242 404.984 53.2728 404.848 52.793C404.719 52.306 404.529 51.8978 404.278 51.5684C404.035 51.2389 403.73 50.9883 403.365 50.8164C403.007 50.6374 402.599 50.5479 402.141 50.5479C401.682 50.5479 401.271 50.6374 400.905 50.8164C400.547 50.9883 400.243 51.2389 399.992 51.5684C399.749 51.8978 399.562 52.306 399.434 52.793C399.305 53.2728 399.24 53.8242 399.24 54.4473V55.0273C399.24 55.6504 399.305 56.2054 399.434 56.6924C399.562 57.1722 399.752 57.5804 400.003 57.917C400.261 58.2536 400.569 58.5114 400.927 58.6904C401.292 58.8623 401.704 58.9482 402.162 58.9482C402.62 58.9482 403.029 58.8623 403.387 58.6904C403.745 58.5114 404.046 58.2536 404.289 57.917C404.54 57.5804 404.729 57.1722 404.858 56.6924C404.987 56.2054 405.052 55.6504 405.052 55.0273ZM417.857 57.6914C417.857 57.4694 417.814 57.2689 417.729 57.0898C417.65 56.9108 417.517 56.7497 417.331 56.6064C417.145 56.4632 416.887 56.3271 416.558 56.1982C416.235 56.0693 415.831 55.9476 415.344 55.833C414.577 55.6468 413.908 55.4427 413.335 55.2207C412.762 54.9987 412.282 54.7373 411.896 54.4365C411.516 54.1357 411.229 53.7812 411.036 53.373C410.85 52.9577 410.757 52.4743 410.757 51.9229C410.757 51.3929 410.871 50.9095 411.101 50.4727C411.337 50.0286 411.666 49.6455 412.089 49.3232C412.519 49.001 413.023 48.7539 413.604 48.582C414.191 48.403 414.832 48.3135 415.526 48.3135C416.536 48.3135 417.421 48.4746 418.18 48.7969C418.946 49.1191 419.54 49.5703 419.963 50.1504C420.385 50.7233 420.597 51.4036 420.597 52.1914H417.75C417.75 51.862 417.664 51.5648 417.492 51.2998C417.327 51.0277 417.08 50.8092 416.751 50.6445C416.422 50.4798 416.013 50.3975 415.526 50.3975C415.061 50.3975 414.674 50.4691 414.366 50.6123C414.065 50.7484 413.84 50.9274 413.689 51.1494C413.546 51.3643 413.475 51.5934 413.475 51.8369C413.475 52.0374 413.518 52.2201 413.604 52.3848C413.697 52.5423 413.84 52.6891 414.033 52.8252C414.234 52.9541 414.495 53.0794 414.817 53.2012C415.14 53.3158 415.53 53.4339 415.988 53.5557C416.747 53.7275 417.413 53.9316 417.986 54.168C418.566 54.3971 419.046 54.6729 419.426 54.9951C419.812 55.3174 420.103 55.6934 420.296 56.123C420.489 56.5527 420.586 57.0505 420.586 57.6162C420.586 58.1748 420.471 58.6761 420.242 59.1201C420.013 59.557 419.68 59.9294 419.243 60.2373C418.813 60.5381 418.298 60.7708 417.696 60.9355C417.102 61.0931 416.436 61.1719 415.698 61.1719C415.039 61.1719 414.391 61.0931 413.754 60.9355C413.117 60.778 412.54 60.5345 412.024 60.2051C411.509 59.8685 411.097 59.4424 410.789 58.9268C410.481 58.4111 410.327 57.7952 410.327 57.0791H413.185C413.185 57.4372 413.242 57.7451 413.356 58.0029C413.478 58.2607 413.65 58.472 413.872 58.6367C414.101 58.7943 414.381 58.9124 414.71 58.9912C415.039 59.0628 415.412 59.0986 415.827 59.0986C416.314 59.0986 416.708 59.0306 417.009 58.8945C417.31 58.7585 417.524 58.583 417.653 58.3682C417.789 58.1533 417.857 57.9277 417.857 57.6914ZM432.618 58.7656V61H425.442V58.7656H432.618ZM426.398 48.4854V61H423.552V48.4854H426.398ZM431.694 53.416V55.6504H425.442V53.416H431.694ZM432.618 48.4854V50.7305H425.442V48.4854H432.618ZM452.654 48.4854V61H449.808L444.512 52.6963V61H441.665V48.4854H444.512L449.808 56.7891V48.4854H452.654ZM461.292 51.3965L457.747 61H454.868L459.863 48.4854H461.797L461.292 51.3965ZM464.665 61L461.077 51.3857L460.572 48.4854H462.527L467.533 61H464.665ZM464.547 56.3486V58.4219H457.511V56.3486H464.547ZM476.762 57.6914C476.762 57.4694 476.719 57.2689 476.633 57.0898C476.554 56.9108 476.422 56.7497 476.235 56.6064C476.049 56.4632 475.791 56.3271 475.462 56.1982C475.14 56.0693 474.735 55.9476 474.248 55.833C473.482 55.6468 472.812 55.4427 472.239 55.2207C471.666 54.9987 471.187 54.7373 470.8 54.4365C470.42 54.1357 470.134 53.7812 469.94 53.373C469.754 52.9577 469.661 52.4743 469.661 51.9229C469.661 51.3929 469.776 50.9095 470.005 50.4727C470.241 50.0286 470.571 49.6455 470.993 49.3232C471.423 49.001 471.928 48.7539 472.508 48.582C473.095 48.403 473.736 48.3135 474.431 48.3135C475.44 48.3135 476.325 48.4746 477.084 48.7969C477.85 49.1191 478.445 49.5703 478.867 50.1504C479.29 50.7233 479.501 51.4036 479.501 52.1914H476.654C476.654 51.862 476.568 51.5648 476.396 51.2998C476.232 51.0277 475.985 50.8092 475.655 50.6445C475.326 50.4798 474.918 50.3975 474.431 50.3975C473.965 50.3975 473.578 50.4691 473.271 50.6123C472.97 50.7484 472.744 50.9274 472.594 51.1494C472.451 51.3643 472.379 51.5934 472.379 51.8369C472.379 52.0374 472.422 52.2201 472.508 52.3848C472.601 52.5423 472.744 52.6891 472.938 52.8252C473.138 52.9541 473.399 53.0794 473.722 53.2012C474.044 53.3158 474.434 53.4339 474.893 53.5557C475.652 53.7275 476.318 53.9316 476.891 54.168C477.471 54.3971 477.951 54.6729 478.33 54.9951C478.717 55.3174 479.007 55.6934 479.2 56.123C479.394 56.5527 479.49 57.0505 479.49 57.6162C479.49 58.1748 479.376 58.6761 479.146 59.1201C478.917 59.557 478.584 59.9294 478.147 60.2373C477.718 60.5381 477.202 60.7708 476.601 60.9355C476.006 61.0931 475.34 61.1719 474.603 61.1719C473.944 61.1719 473.296 61.0931 472.658 60.9355C472.021 60.778 471.444 60.5345 470.929 60.2051C470.413 59.8685 470.001 59.4424 469.693 58.9268C469.385 58.4111 469.231 57.7952 469.231 57.0791H472.089C472.089 57.4372 472.146 57.7451 472.261 58.0029C472.382 58.2607 472.554 58.472 472.776 58.6367C473.006 58.7943 473.285 58.9124 473.614 58.9912C473.944 59.0628 474.316 59.0986 474.731 59.0986C475.218 59.0986 475.612 59.0306 475.913 58.8945C476.214 58.7585 476.429 58.583 476.558 58.3682C476.694 58.1533 476.762 57.9277 476.762 57.6914ZM494.188 56.7031H490.761V54.458H494.188C494.703 54.458 495.126 54.3828 495.455 54.2324C495.785 54.082 496.028 53.8779 496.186 53.6201C496.343 53.3551 496.422 53.0579 496.422 52.7285C496.422 52.3704 496.343 52.041 496.186 51.7402C496.028 51.4395 495.785 51.196 495.455 51.0098C495.126 50.8236 494.703 50.7305 494.188 50.7305H491.781V61H488.935V48.4854H494.188C495.247 48.4854 496.153 48.668 496.905 49.0332C497.664 49.3984 498.244 49.8997 498.646 50.5371C499.054 51.1673 499.258 51.8906 499.258 52.707C499.258 53.3086 499.143 53.8564 498.914 54.3506C498.685 54.8376 498.352 55.2565 497.915 55.6074C497.478 55.9583 496.945 56.2305 496.314 56.4238C495.691 56.61 494.982 56.7031 494.188 56.7031ZM509.571 48.4854H512.429V56.6816C512.429 57.6484 512.207 58.4684 511.763 59.1416C511.326 59.8076 510.717 60.3125 509.937 60.6562C509.163 61 508.268 61.1719 507.251 61.1719C506.234 61.1719 505.335 61 504.555 60.6562C503.774 60.3125 503.162 59.8076 502.718 59.1416C502.281 58.4684 502.062 57.6484 502.062 56.6816V48.4854H504.898V56.6816C504.898 57.2044 504.992 57.6341 505.178 57.9707C505.371 58.3073 505.643 58.5544 505.994 58.7119C506.345 58.8695 506.764 58.9482 507.251 58.9482C507.745 58.9482 508.164 58.8695 508.508 58.7119C508.852 58.5544 509.113 58.3073 509.292 57.9707C509.478 57.6341 509.571 57.2044 509.571 56.6816V48.4854ZM520.938 56.7031H517.511V54.458H520.938C521.453 54.458 521.876 54.3828 522.205 54.2324C522.535 54.082 522.778 53.8779 522.936 53.6201C523.093 53.3551 523.172 53.0579 523.172 52.7285C523.172 52.3704 523.093 52.041 522.936 51.7402C522.778 51.4395 522.535 51.196 522.205 51.0098C521.876 50.8236 521.453 50.7305 520.938 50.7305H518.531V61H515.685V48.4854H520.938C521.997 48.4854 522.903 48.668 523.655 49.0332C524.414 49.3984 524.994 49.8997 525.396 50.5371C525.804 51.1673 526.008 51.8906 526.008 52.707C526.008 53.3086 525.893 53.8564 525.664 54.3506C525.435 54.8376 525.102 55.2565 524.665 55.6074C524.228 55.9583 523.695 56.2305 523.064 56.4238C522.441 56.61 521.732 56.7031 520.938 56.7031ZM536.321 48.4854H539.179V56.6816C539.179 57.6484 538.957 58.4684 538.513 59.1416C538.076 59.8076 537.467 60.3125 536.687 60.6562C535.913 61 535.018 61.1719 534.001 61.1719C532.984 61.1719 532.085 61 531.305 60.6562C530.524 60.3125 529.912 59.8076 529.468 59.1416C529.031 58.4684 528.812 57.6484 528.812 56.6816V48.4854H531.648V56.6816C531.648 57.2044 531.742 57.6341 531.928 57.9707C532.121 58.3073 532.393 58.5544 532.744 58.7119C533.095 58.8695 533.514 58.9482 534.001 58.9482C534.495 58.9482 534.914 58.8695 535.258 58.7119C535.602 58.5544 535.863 58.3073 536.042 57.9707C536.228 57.6341 536.321 57.2044 536.321 56.6816V48.4854ZM553.424 48.4854V61H550.577L545.281 52.6963V61H542.435V48.4854H545.281L550.577 56.7891V48.4854H553.424ZM565.778 53.7275V55.9727H558.742V53.7275H565.778ZM559.623 48.4854V61H556.776V48.4854H559.623ZM567.776 48.4854V61H564.94V48.4854H567.776ZM580.185 58.7656V61H573.009V58.7656H580.185ZM573.965 48.4854V61H571.118V48.4854H573.965ZM579.261 53.416V55.6504H573.009V53.416H579.261ZM580.185 48.4854V50.7305H573.009V48.4854H580.185ZM585.793 48.4854V61H582.946V48.4854H585.793ZM589.328 48.4854H594.409C595.175 48.4854 595.867 48.5677 596.482 48.7324C597.105 48.89 597.632 49.1299 598.062 49.4521C598.498 49.7673 598.831 50.1611 599.061 50.6338C599.29 51.0993 599.404 51.64 599.404 52.2559C599.404 52.9577 599.283 53.5521 599.039 54.0391C598.796 54.526 598.455 54.9271 598.019 55.2422C597.582 55.5501 597.07 55.8044 596.482 56.0049L595.559 56.5312H591.165L591.144 54.2861H594.441C594.907 54.2861 595.297 54.2145 595.612 54.0713C595.927 53.9281 596.164 53.724 596.321 53.459C596.479 53.194 596.558 52.8825 596.558 52.5244C596.558 52.152 596.475 51.8333 596.311 51.5684C596.153 51.2962 595.913 51.0885 595.591 50.9453C595.276 50.8021 594.882 50.7305 594.409 50.7305H592.186V61H589.328V48.4854ZM596.837 61L593.786 55.4678L596.794 55.4463L599.898 60.8711V61H596.837ZM607.827 51.3965L604.282 61H601.403L606.398 48.4854H608.332L607.827 51.3965ZM611.2 61L607.612 51.3857L607.107 48.4854H609.062L614.068 61H611.2ZM611.082 56.3486V58.4219H604.046V56.3486H611.082ZM623.297 57.6914C623.297 57.4694 623.254 57.2689 623.168 57.0898C623.089 56.9108 622.957 56.7497 622.771 56.6064C622.584 56.4632 622.326 56.3271 621.997 56.1982C621.675 56.0693 621.27 55.9476 620.783 55.833C620.017 55.6468 619.347 55.4427 618.774 55.2207C618.201 54.9987 617.722 54.7373 617.335 54.4365C616.955 54.1357 616.669 53.7812 616.476 53.373C616.289 52.9577 616.196 52.4743 616.196 51.9229C616.196 51.3929 616.311 50.9095 616.54 50.4727C616.776 50.0286 617.106 49.6455 617.528 49.3232C617.958 49.001 618.463 48.7539 619.043 48.582C619.63 48.403 620.271 48.3135 620.966 48.3135C621.976 48.3135 622.86 48.4746 623.619 48.7969C624.385 49.1191 624.98 49.5703 625.402 50.1504C625.825 50.7233 626.036 51.4036 626.036 52.1914H623.189C623.189 51.862 623.104 51.5648 622.932 51.2998C622.767 51.0277 622.52 50.8092 622.19 50.6445C621.861 50.4798 621.453 50.3975 620.966 50.3975C620.5 50.3975 620.114 50.4691 619.806 50.6123C619.505 50.7484 619.279 50.9274 619.129 51.1494C618.986 51.3643 618.914 51.5934 618.914 51.8369C618.914 52.0374 618.957 52.2201 619.043 52.3848C619.136 52.5423 619.279 52.6891 619.473 52.8252C619.673 52.9541 619.935 53.0794 620.257 53.2012C620.579 53.3158 620.969 53.4339 621.428 53.5557C622.187 53.7275 622.853 53.9316 623.426 54.168C624.006 54.3971 624.486 54.6729 624.865 54.9951C625.252 55.3174 625.542 55.6934 625.735 56.123C625.929 56.5527 626.025 57.0505 626.025 57.6162C626.025 58.1748 625.911 58.6761 625.682 59.1201C625.452 59.557 625.119 59.9294 624.683 60.2373C624.253 60.5381 623.737 60.7708 623.136 60.9355C622.541 61.0931 621.875 61.1719 621.138 61.1719C620.479 61.1719 619.831 61.0931 619.193 60.9355C618.556 60.778 617.979 60.5345 617.464 60.2051C616.948 59.8685 616.536 59.4424 616.229 58.9268C615.921 58.4111 615.767 57.7952 615.767 57.0791H618.624C618.624 57.4372 618.681 57.7451 618.796 58.0029C618.918 58.2607 619.09 58.472 619.312 58.6367C619.541 58.7943 619.82 58.9124 620.149 58.9912C620.479 59.0628 620.851 59.0986 621.267 59.0986C621.754 59.0986 622.147 59.0306 622.448 58.8945C622.749 58.7585 622.964 58.583 623.093 58.3682C623.229 58.1533 623.297 57.9277 623.297 57.6914ZM641.228 53.1797V55.4248H635.352V53.1797H641.228ZM656.279 56.7031H652.853V54.458H656.279C656.795 54.458 657.217 54.3828 657.547 54.2324C657.876 54.082 658.12 53.8779 658.277 53.6201C658.435 53.3551 658.514 53.0579 658.514 52.7285C658.514 52.3704 658.435 52.041 658.277 51.7402C658.12 51.4395 657.876 51.196 657.547 51.0098C657.217 50.8236 656.795 50.7305 656.279 50.7305H653.873V61H651.026V48.4854H656.279C657.339 48.4854 658.245 48.668 658.997 49.0332C659.756 49.3984 660.336 49.8997 660.737 50.5371C661.146 51.1673 661.35 51.8906 661.35 52.707C661.35 53.3086 661.235 53.8564 661.006 54.3506C660.777 54.8376 660.444 55.2565 660.007 55.6074C659.57 55.9583 659.036 56.2305 658.406 56.4238C657.783 56.61 657.074 56.7031 656.279 56.7031ZM675.348 54.4688V55.0273C675.348 55.9798 675.208 56.8356 674.929 57.5947C674.657 58.3467 674.266 58.9912 673.758 59.5283C673.249 60.0583 672.644 60.4665 671.942 60.7529C671.241 61.0322 670.464 61.1719 669.611 61.1719C668.759 61.1719 667.982 61.0322 667.28 60.7529C666.578 60.4665 665.97 60.0583 665.454 59.5283C664.938 58.9912 664.541 58.3467 664.262 57.5947C663.982 56.8356 663.843 55.9798 663.843 55.0273V54.4688C663.843 53.5163 663.982 52.6641 664.262 51.9121C664.541 51.153 664.935 50.5049 665.443 49.9678C665.952 49.4307 666.557 49.0225 667.259 48.7432C667.961 48.4567 668.738 48.3135 669.59 48.3135C670.442 48.3135 671.219 48.4567 671.921 48.7432C672.623 49.0225 673.228 49.4307 673.736 49.9678C674.252 50.5049 674.649 51.153 674.929 51.9121C675.208 52.6641 675.348 53.5163 675.348 54.4688ZM672.501 55.0273V54.4473C672.501 53.8242 672.433 53.2728 672.297 52.793C672.168 52.306 671.978 51.8978 671.728 51.5684C671.484 51.2389 671.18 50.9883 670.814 50.8164C670.456 50.6374 670.048 50.5479 669.59 50.5479C669.132 50.5479 668.72 50.6374 668.354 50.8164C667.996 50.9883 667.692 51.2389 667.441 51.5684C667.198 51.8978 667.012 52.306 666.883 52.793C666.754 53.2728 666.689 53.8242 666.689 54.4473V55.0273C666.689 55.6504 666.754 56.2054 666.883 56.6924C667.012 57.1722 667.201 57.5804 667.452 57.917C667.71 58.2536 668.018 58.5114 668.376 58.6904C668.741 58.8623 669.153 58.9482 669.611 58.9482C670.07 58.9482 670.478 58.8623 670.836 58.6904C671.194 58.5114 671.495 58.2536 671.738 57.917C671.989 57.5804 672.179 57.1722 672.308 56.6924C672.437 56.2054 672.501 55.6504 672.501 55.0273ZM678.281 48.4854H683.362C684.129 48.4854 684.82 48.5677 685.436 48.7324C686.059 48.89 686.585 49.1299 687.015 49.4521C687.451 49.7673 687.785 50.1611 688.014 50.6338C688.243 51.0993 688.357 51.64 688.357 52.2559C688.357 52.9577 688.236 53.5521 687.992 54.0391C687.749 54.526 687.409 54.9271 686.972 55.2422C686.535 55.5501 686.023 55.8044 685.436 56.0049L684.512 56.5312H680.118L680.097 54.2861H683.395C683.86 54.2861 684.25 54.2145 684.565 54.0713C684.881 53.9281 685.117 53.724 685.274 53.459C685.432 53.194 685.511 52.8825 685.511 52.5244C685.511 52.152 685.428 51.8333 685.264 51.5684C685.106 51.2962 684.866 51.0885 684.544 50.9453C684.229 50.8021 683.835 50.7305 683.362 50.7305H681.139V61H678.281V48.4854ZM685.79 61L682.739 55.4678L685.747 55.4463L688.852 60.8711V61H685.79ZM699.306 48.4854H701.701L705.074 57.3262L708.437 48.4854H710.832L706.03 61H704.118L699.306 48.4854ZM697.974 48.4854H700.38L700.82 57.9277V61H697.974V48.4854ZM709.779 48.4854H712.196V61H709.339V57.9277L709.779 48.4854ZM724.604 58.7656V61H717.429V58.7656H724.604ZM718.385 48.4854V61H715.538V48.4854H718.385ZM723.681 53.416V55.6504H717.429V53.416H723.681ZM724.604 48.4854V50.7305H717.429V48.4854H724.604ZM721.113 44.1777L724.229 47.1533V47.2822H721.951L720.286 45.6494L718.632 47.2822H716.387V47.1318L719.459 44.1777H721.113ZM734.188 57.6914C734.188 57.4694 734.145 57.2689 734.059 57.0898C733.98 56.9108 733.847 56.7497 733.661 56.6064C733.475 56.4632 733.217 56.3271 732.888 56.1982C732.565 56.0693 732.161 55.9476 731.674 55.833C730.908 55.6468 730.238 55.4427 729.665 55.2207C729.092 54.9987 728.612 54.7373 728.226 54.4365C727.846 54.1357 727.56 53.7812 727.366 53.373C727.18 52.9577 727.087 52.4743 727.087 51.9229C727.087 51.3929 727.201 50.9095 727.431 50.4727C727.667 50.0286 727.996 49.6455 728.419 49.3232C728.849 49.001 729.354 48.7539 729.934 48.582C730.521 48.403 731.162 48.3135 731.856 48.3135C732.866 48.3135 733.751 48.4746 734.51 48.7969C735.276 49.1191 735.87 49.5703 736.293 50.1504C736.715 50.7233 736.927 51.4036 736.927 52.1914H734.08C734.08 51.862 733.994 51.5648 733.822 51.2998C733.658 51.0277 733.41 50.8092 733.081 50.6445C732.752 50.4798 732.343 50.3975 731.856 50.3975C731.391 50.3975 731.004 50.4691 730.696 50.6123C730.396 50.7484 730.17 50.9274 730.02 51.1494C729.876 51.3643 729.805 51.5934 729.805 51.8369C729.805 52.0374 729.848 52.2201 729.934 52.3848C730.027 52.5423 730.17 52.6891 730.363 52.8252C730.564 52.9541 730.825 53.0794 731.147 53.2012C731.47 53.3158 731.86 53.4339 732.318 53.5557C733.077 53.7275 733.743 53.9316 734.316 54.168C734.896 54.3971 735.376 54.6729 735.756 54.9951C736.143 55.3174 736.433 55.6934 736.626 56.123C736.819 56.5527 736.916 57.0505 736.916 57.6162C736.916 58.1748 736.801 58.6761 736.572 59.1201C736.343 59.557 736.01 59.9294 735.573 60.2373C735.144 60.5381 734.628 60.7708 734.026 60.9355C733.432 61.0931 732.766 61.1719 732.028 61.1719C731.369 61.1719 730.721 61.0931 730.084 60.9355C729.447 60.778 728.87 60.5345 728.354 60.2051C727.839 59.8685 727.427 59.4424 727.119 58.9268C726.811 58.4111 726.657 57.7952 726.657 57.0791H729.515C729.515 57.4372 729.572 57.7451 729.687 58.0029C729.808 58.2607 729.98 58.472 730.202 58.6367C730.431 58.7943 730.711 58.9124 731.04 58.9912C731.369 59.0628 731.742 59.0986 732.157 59.0986C732.644 59.0986 733.038 59.0306 733.339 58.8945C733.64 58.7585 733.854 58.583 733.983 58.3682C734.119 58.1533 734.188 57.9277 734.188 57.6914Z" fill="#586F55"/>
<path d="M797 106H70C53.4315 106 40 119.431 40 136V459C40 475.569 53.4315 489 70 489H797C813.569 489 827 475.569 827 459V136C827 119.431 813.569 106 797 106Z" fill="#586F55"/>
<path d="M79.7188 146.323V147.917H71.8828L71.7998 146.663L76.3984 140.33H77.9673L76.2407 143.144L73.8086 146.323H79.7188ZM78.4321 140.33V150H76.4316V140.33H78.4321ZM89.1274 144.314V146.016C89.1274 146.718 89.0389 147.33 88.8618 147.85C88.6903 148.365 88.444 148.791 88.123 149.128C87.8076 149.466 87.4258 149.718 86.9775 149.884C86.5348 150.05 86.0423 150.133 85.5 150.133C84.9577 150.133 84.4624 150.05 84.0142 149.884C83.5715 149.718 83.1896 149.466 82.8687 149.128C82.5477 148.791 82.2987 148.365 82.1216 147.85C81.9445 147.33 81.856 146.718 81.856 146.016V144.314C81.856 143.611 81.9417 143.002 82.1133 142.488C82.2904 141.973 82.5394 141.547 82.8604 141.209C83.1813 140.866 83.5632 140.612 84.0059 140.446C84.4486 140.28 84.9411 140.197 85.4834 140.197C86.0257 140.197 86.521 140.28 86.9692 140.446C87.4175 140.612 87.8021 140.866 88.123 141.209C88.444 141.547 88.6903 141.973 88.8618 142.488C89.0389 143.002 89.1274 143.611 89.1274 144.314ZM87.1187 146.173V144.14C87.1187 143.736 87.0827 143.387 87.0107 143.094C86.9388 142.795 86.8337 142.549 86.6953 142.355C86.557 142.161 86.3854 142.02 86.1807 141.932C85.9814 141.838 85.749 141.791 85.4834 141.791C85.2288 141.791 84.9992 141.838 84.7944 141.932C84.5952 142.02 84.4264 142.161 84.2881 142.355C84.1497 142.549 84.0446 142.795 83.9727 143.094C83.9007 143.387 83.8647 143.736 83.8647 144.14V146.173C83.8647 146.583 83.9007 146.937 83.9727 147.236C84.0446 147.535 84.1497 147.781 84.2881 147.975C84.432 148.168 84.6063 148.312 84.811 148.406C85.0158 148.5 85.2454 148.547 85.5 148.547C85.7601 148.547 85.9897 148.5 86.189 148.406C86.3937 148.312 86.5653 148.168 86.7036 147.975C86.842 147.781 86.9443 147.535 87.0107 147.236C87.0827 146.937 87.1187 146.583 87.1187 146.173ZM98.8765 144.314V146.016C98.8765 146.718 98.7879 147.33 98.6108 147.85C98.4393 148.365 98.193 148.791 97.8721 149.128C97.5566 149.466 97.1748 149.718 96.7266 149.884C96.2839 150.05 95.7913 150.133 95.249 150.133C94.7067 150.133 94.2114 150.05 93.7632 149.884C93.3205 149.718 92.9386 149.466 92.6177 149.128C92.2967 148.791 92.0477 148.365 91.8706 147.85C91.6935 147.33 91.605 146.718 91.605 146.016V144.314C91.605 143.611 91.6908 143.002 91.8623 142.488C92.0394 141.973 92.2884 141.547 92.6094 141.209C92.9303 140.866 93.3122 140.612 93.7549 140.446C94.1976 140.28 94.6901 140.197 95.2324 140.197C95.7747 140.197 96.27 140.28 96.7183 140.446C97.1665 140.612 97.5511 140.866 97.8721 141.209C98.193 141.547 98.4393 141.973 98.6108 142.488C98.7879 143.002 98.8765 143.611 98.8765 144.314ZM96.8677 146.173V144.14C96.8677 143.736 96.8317 143.387 96.7598 143.094C96.6878 142.795 96.5827 142.549 96.4443 142.355C96.306 142.161 96.1344 142.02 95.9297 141.932C95.7305 141.838 95.498 141.791 95.2324 141.791C94.9779 141.791 94.7482 141.838 94.5435 141.932C94.3442 142.02 94.1755 142.161 94.0371 142.355C93.8988 142.549 93.7936 142.795 93.7217 143.094C93.6497 143.387 93.6138 143.736 93.6138 144.14V146.173C93.6138 146.583 93.6497 146.937 93.7217 147.236C93.7936 147.535 93.8988 147.781 94.0371 147.975C94.181 148.168 94.3553 148.312 94.5601 148.406C94.7648 148.5 94.9945 148.547 95.249 148.547C95.5091 148.547 95.7388 148.5 95.938 148.406C96.1427 148.312 96.3143 148.168 96.4526 147.975C96.591 147.781 96.6934 147.535 96.7598 147.236C96.8317 146.937 96.8677 146.583 96.8677 146.173Z" fill="white"/>
<path d="M117 144H105" stroke="white"/>
<path d="M74.3896 211.614H75.4355C75.8285 211.614 76.1522 211.558 76.4067 211.448C76.6613 211.332 76.8494 211.174 76.9712 210.975C77.0985 210.775 77.1621 210.546 77.1621 210.286C77.1621 210.048 77.1068 209.835 76.9961 209.646C76.891 209.458 76.7222 209.309 76.4897 209.198C76.2629 209.088 75.964 209.032 75.5933 209.032C75.2944 209.032 75.026 209.076 74.7881 209.165C74.5557 209.254 74.3703 209.381 74.2319 209.547C74.0936 209.713 74.0244 209.912 74.0244 210.145H72.0156C72.0156 209.586 72.1733 209.107 72.4888 208.708C72.8097 208.305 73.2358 207.995 73.7671 207.779C74.3039 207.557 74.8988 207.447 75.5518 207.447C76.0885 207.447 76.5783 207.505 77.021 207.621C77.4637 207.737 77.8455 207.912 78.1665 208.144C78.493 208.376 78.742 208.664 78.9136 209.007C79.0851 209.35 79.1709 209.746 79.1709 210.194C79.1709 210.521 79.0962 210.828 78.9468 211.116C78.7974 211.398 78.576 211.65 78.2827 211.871C77.9894 212.092 77.6325 212.267 77.2119 212.394C76.7913 212.516 76.3154 212.577 75.7842 212.577H74.3896V211.614ZM74.3896 213.033V212.079H75.7842C76.3874 212.079 76.9131 212.134 77.3613 212.245C77.8096 212.355 78.1803 212.516 78.4736 212.726C78.7669 212.936 78.9855 213.196 79.1294 213.506C79.2733 213.811 79.3452 214.157 79.3452 214.544C79.3452 214.998 79.2511 215.402 79.063 215.756C78.8748 216.104 78.6064 216.401 78.2578 216.644C77.9147 216.888 77.5135 217.073 77.0542 217.2C76.5949 217.322 76.0968 217.383 75.5601 217.383C75.0952 217.383 74.6442 217.327 74.207 217.217C73.7754 217.106 73.3825 216.935 73.0283 216.702C72.6797 216.464 72.4002 216.165 72.1899 215.806C71.9852 215.446 71.8828 215.017 71.8828 214.519H73.8916C73.8916 214.763 73.9635 214.981 74.1074 215.175C74.2513 215.368 74.4533 215.521 74.7134 215.631C74.9735 215.742 75.2806 215.797 75.6348 215.797C76.0055 215.797 76.3182 215.742 76.5728 215.631C76.8273 215.515 77.0182 215.357 77.1455 215.158C77.2728 214.953 77.3364 214.715 77.3364 214.444C77.3364 214.195 77.2922 213.982 77.2036 213.805C77.1151 213.623 76.9878 213.476 76.8218 213.365C76.6613 213.249 76.4621 213.166 76.2241 213.116C75.9917 213.061 75.7288 213.033 75.4355 213.033H74.3896ZM83.8232 212.884L82.2295 212.502L82.8438 207.58H88.7373V209.198H84.5039L84.2134 211.273C84.3628 211.207 84.5897 211.13 84.894 211.041C85.2039 210.952 85.547 210.908 85.9233 210.908C86.6151 210.908 87.2072 211.035 87.6997 211.29C88.1922 211.539 88.5685 211.902 88.8286 212.377C89.0942 212.848 89.2271 213.418 89.2271 214.087C89.2271 214.668 89.097 215.211 88.8369 215.714C88.5768 216.212 88.1784 216.616 87.6416 216.926C87.1104 217.231 86.4325 217.383 85.6079 217.383C84.9937 217.383 84.4154 217.275 83.873 217.059C83.3307 216.843 82.8853 216.528 82.5366 216.113C82.1935 215.698 82.0054 215.191 81.9722 214.594H83.9478C83.992 215.009 84.1636 215.313 84.4624 215.507C84.7612 215.701 85.1431 215.797 85.6079 215.797C85.9953 215.797 86.3079 215.723 86.5459 215.573C86.7839 215.418 86.9554 215.211 87.0605 214.951C87.1712 214.685 87.2266 214.386 87.2266 214.054C87.2266 213.722 87.1574 213.429 87.019 213.174C86.8807 212.914 86.6759 212.712 86.4048 212.568C86.1336 212.424 85.8044 212.353 85.417 212.353C84.9743 212.353 84.6395 212.411 84.4126 212.527C84.1912 212.638 83.9948 212.757 83.8232 212.884ZM98.8765 211.564V213.266C98.8765 213.968 98.7879 214.58 98.6108 215.1C98.4393 215.615 98.193 216.041 97.8721 216.378C97.5566 216.716 97.1748 216.968 96.7266 217.134C96.2839 217.3 95.7913 217.383 95.249 217.383C94.7067 217.383 94.2114 217.3 93.7632 217.134C93.3205 216.968 92.9386 216.716 92.6177 216.378C92.2967 216.041 92.0477 215.615 91.8706 215.1C91.6935 214.58 91.605 213.968 91.605 213.266V211.564C91.605 210.861 91.6908 210.252 91.8623 209.738C92.0394 209.223 92.2884 208.797 92.6094 208.459C92.9303 208.116 93.3122 207.862 93.7549 207.696C94.1976 207.53 94.6901 207.447 95.2324 207.447C95.7747 207.447 96.27 207.53 96.7183 207.696C97.1665 207.862 97.5511 208.116 97.8721 208.459C98.193 208.797 98.4393 209.223 98.6108 209.738C98.7879 210.252 98.8765 210.861 98.8765 211.564ZM96.8677 213.423V211.39C96.8677 210.986 96.8317 210.637 96.7598 210.344C96.6878 210.045 96.5827 209.799 96.4443 209.605C96.306 209.411 96.1344 209.27 95.9297 209.182C95.7305 209.088 95.498 209.041 95.2324 209.041C94.9779 209.041 94.7482 209.088 94.5435 209.182C94.3442 209.27 94.1755 209.411 94.0371 209.605C93.8988 209.799 93.7936 210.045 93.7217 210.344C93.6497 210.637 93.6138 210.986 93.6138 211.39V213.423C93.6138 213.833 93.6497 214.187 93.7217 214.486C93.7936 214.785 93.8988 215.031 94.0371 215.225C94.181 215.418 94.3553 215.562 94.5601 215.656C94.7648 215.75 94.9945 215.797 95.249 215.797C95.5091 215.797 95.7388 215.75 95.938 215.656C96.1427 215.562 96.3143 215.418 96.4526 215.225C96.591 215.031 96.6934 214.785 96.7598 214.486C96.8317 214.187 96.8677 213.833 96.8677 213.423Z" fill="white"/>
<path d="M117 211.25H105" stroke="white"/>
<path d="M74.3896 278.864H75.4355C75.8285 278.864 76.1522 278.808 76.4067 278.698C76.6613 278.582 76.8494 278.424 76.9712 278.225C77.0985 278.025 77.1621 277.796 77.1621 277.536C77.1621 277.298 77.1068 277.085 76.9961 276.896C76.891 276.708 76.7222 276.559 76.4897 276.448C76.2629 276.338 75.964 276.282 75.5933 276.282C75.2944 276.282 75.026 276.326 74.7881 276.415C74.5557 276.504 74.3703 276.631 74.2319 276.797C74.0936 276.963 74.0244 277.162 74.0244 277.395H72.0156C72.0156 276.836 72.1733 276.357 72.4888 275.958C72.8097 275.555 73.2358 275.245 73.7671 275.029C74.3039 274.807 74.8988 274.697 75.5518 274.697C76.0885 274.697 76.5783 274.755 77.021 274.871C77.4637 274.987 77.8455 275.162 78.1665 275.394C78.493 275.626 78.742 275.914 78.9136 276.257C79.0851 276.6 79.1709 276.996 79.1709 277.444C79.1709 277.771 79.0962 278.078 78.9468 278.366C78.7974 278.648 78.576 278.9 78.2827 279.121C77.9894 279.342 77.6325 279.517 77.2119 279.644C76.7913 279.766 76.3154 279.827 75.7842 279.827H74.3896V278.864ZM74.3896 280.283V279.329H75.7842C76.3874 279.329 76.9131 279.384 77.3613 279.495C77.8096 279.605 78.1803 279.766 78.4736 279.976C78.7669 280.186 78.9855 280.446 79.1294 280.756C79.2733 281.061 79.3452 281.407 79.3452 281.794C79.3452 282.248 79.2511 282.652 79.063 283.006C78.8748 283.354 78.6064 283.651 78.2578 283.894C77.9147 284.138 77.5135 284.323 77.0542 284.45C76.5949 284.572 76.0968 284.633 75.5601 284.633C75.0952 284.633 74.6442 284.577 74.207 284.467C73.7754 284.356 73.3825 284.185 73.0283 283.952C72.6797 283.714 72.4002 283.415 72.1899 283.056C71.9852 282.696 71.8828 282.267 71.8828 281.769H73.8916C73.8916 282.013 73.9635 282.231 74.1074 282.425C74.2513 282.618 74.4533 282.771 74.7134 282.881C74.9735 282.992 75.2806 283.047 75.6348 283.047C76.0055 283.047 76.3182 282.992 76.5728 282.881C76.8273 282.765 77.0182 282.607 77.1455 282.408C77.2728 282.203 77.3364 281.965 77.3364 281.694C77.3364 281.445 77.2922 281.232 77.2036 281.055C77.1151 280.873 76.9878 280.726 76.8218 280.615C76.6613 280.499 76.4621 280.416 76.2241 280.366C75.9917 280.311 75.7288 280.283 75.4355 280.283H74.3896ZM89.1274 278.814V280.516C89.1274 281.218 89.0389 281.83 88.8618 282.35C88.6903 282.865 88.444 283.291 88.123 283.628C87.8076 283.966 87.4258 284.218 86.9775 284.384C86.5348 284.55 86.0423 284.633 85.5 284.633C84.9577 284.633 84.4624 284.55 84.0142 284.384C83.5715 284.218 83.1896 283.966 82.8687 283.628C82.5477 283.291 82.2987 282.865 82.1216 282.35C81.9445 281.83 81.856 281.218 81.856 280.516V278.814C81.856 278.111 81.9417 277.502 82.1133 276.988C82.2904 276.473 82.5394 276.047 82.8604 275.709C83.1813 275.366 83.5632 275.112 84.0059 274.946C84.4486 274.78 84.9411 274.697 85.4834 274.697C86.0257 274.697 86.521 274.78 86.9692 274.946C87.4175 275.112 87.8021 275.366 88.123 275.709C88.444 276.047 88.6903 276.473 88.8618 276.988C89.0389 277.502 89.1274 278.111 89.1274 278.814ZM87.1187 280.673V278.64C87.1187 278.236 87.0827 277.887 87.0107 277.594C86.9388 277.295 86.8337 277.049 86.6953 276.855C86.557 276.661 86.3854 276.52 86.1807 276.432C85.9814 276.338 85.749 276.291 85.4834 276.291C85.2288 276.291 84.9992 276.338 84.7944 276.432C84.5952 276.52 84.4264 276.661 84.2881 276.855C84.1497 277.049 84.0446 277.295 83.9727 277.594C83.9007 277.887 83.8647 278.236 83.8647 278.64V280.673C83.8647 281.083 83.9007 281.437 83.9727 281.736C84.0446 282.035 84.1497 282.281 84.2881 282.475C84.432 282.668 84.6063 282.812 84.811 282.906C85.0158 283 85.2454 283.047 85.5 283.047C85.7601 283.047 85.9897 283 86.189 282.906C86.3937 282.812 86.5653 282.668 86.7036 282.475C86.842 282.281 86.9443 282.035 87.0107 281.736C87.0827 281.437 87.1187 281.083 87.1187 280.673ZM98.8765 278.814V280.516C98.8765 281.218 98.7879 281.83 98.6108 282.35C98.4393 282.865 98.193 283.291 97.8721 283.628C97.5566 283.966 97.1748 284.218 96.7266 284.384C96.2839 284.55 95.7913 284.633 95.249 284.633C94.7067 284.633 94.2114 284.55 93.7632 284.384C93.3205 284.218 92.9386 283.966 92.6177 283.628C92.2967 283.291 92.0477 282.865 91.8706 282.35C91.6935 281.83 91.605 281.218 91.605 280.516V278.814C91.605 278.111 91.6908 277.502 91.8623 276.988C92.0394 276.473 92.2884 276.047 92.6094 275.709C92.9303 275.366 93.3122 275.112 93.7549 274.946C94.1976 274.78 94.6901 274.697 95.2324 274.697C95.7747 274.697 96.27 274.78 96.7183 274.946C97.1665 275.112 97.5511 275.366 97.8721 275.709C98.193 276.047 98.4393 276.473 98.6108 276.988C98.7879 277.502 98.8765 278.111 98.8765 278.814ZM96.8677 280.673V278.64C96.8677 278.236 96.8317 277.887 96.7598 277.594C96.6878 277.295 96.5827 277.049 96.4443 276.855C96.306 276.661 96.1344 276.52 95.9297 276.432C95.7305 276.338 95.498 276.291 95.2324 276.291C94.9779 276.291 94.7482 276.338 94.5435 276.432C94.3442 276.52 94.1755 276.661 94.0371 276.855C93.8988 277.049 93.7936 277.295 93.7217 277.594C93.6497 277.887 93.6138 278.236 93.6138 278.64V280.673C93.6138 281.083 93.6497 281.437 93.7217 281.736C93.7936 282.035 93.8988 282.281 94.0371 282.475C94.181 282.668 94.3553 282.812 94.5601 282.906C94.7648 283 94.9945 283.047 95.249 283.047C95.5091 283.047 95.7388 283 95.938 282.906C96.1427 282.812 96.3143 282.668 96.4526 282.475C96.591 282.281 96.6934 282.035 96.7598 281.736C96.8317 281.437 96.8677 281.083 96.8677 280.673Z" fill="white"/>
<path d="M117 278.5H105" stroke="white"/>
<path d="M79.5278 350.165V351.75H72.1484V350.397L75.6763 347.093C76.0415 346.756 76.3293 346.454 76.5396 346.188C76.7554 345.917 76.9103 345.674 77.0044 345.458C77.0985 345.237 77.1455 345.037 77.1455 344.86C77.1455 344.473 77.0182 344.155 76.7637 343.906C76.5091 343.657 76.1439 343.532 75.668 343.532C75.2751 343.532 74.9486 343.604 74.6885 343.748C74.4339 343.886 74.2458 344.077 74.124 344.321C74.0023 344.564 73.9414 344.841 73.9414 345.151H71.9326C71.9326 344.564 72.0793 344.028 72.3726 343.541C72.6659 343.054 73.0864 342.666 73.6343 342.378C74.1877 342.091 74.849 341.947 75.6182 341.947C76.3597 341.947 76.9933 342.063 77.519 342.295C78.0503 342.528 78.4543 342.863 78.731 343.3C79.0076 343.731 79.146 344.243 79.146 344.835C79.146 345.162 79.0907 345.472 78.98 345.765C78.8748 346.058 78.7199 346.343 78.5151 346.62C78.3104 346.897 78.0614 347.179 77.7681 347.467C77.4748 347.755 77.1427 348.062 76.772 348.388L74.7134 350.165H79.5278ZM89.1274 346.064V347.766C89.1274 348.468 89.0389 349.08 88.8618 349.6C88.6903 350.115 88.444 350.541 88.123 350.878C87.8076 351.216 87.4258 351.468 86.9775 351.634C86.5348 351.8 86.0423 351.883 85.5 351.883C84.9577 351.883 84.4624 351.8 84.0142 351.634C83.5715 351.468 83.1896 351.216 82.8687 350.878C82.5477 350.541 82.2987 350.115 82.1216 349.6C81.9445 349.08 81.856 348.468 81.856 347.766V346.064C81.856 345.361 81.9417 344.752 82.1133 344.238C82.2904 343.723 82.5394 343.297 82.8604 342.959C83.1813 342.616 83.5632 342.362 84.0059 342.196C84.4486 342.03 84.9411 341.947 85.4834 341.947C86.0257 341.947 86.521 342.03 86.9692 342.196C87.4175 342.362 87.8021 342.616 88.123 342.959C88.444 343.297 88.6903 343.723 88.8618 344.238C89.0389 344.752 89.1274 345.361 89.1274 346.064ZM87.1187 347.923V345.89C87.1187 345.486 87.0827 345.137 87.0107 344.844C86.9388 344.545 86.8337 344.299 86.6953 344.105C86.557 343.911 86.3854 343.77 86.1807 343.682C85.9814 343.588 85.749 343.541 85.4834 343.541C85.2288 343.541 84.9992 343.588 84.7944 343.682C84.5952 343.77 84.4264 343.911 84.2881 344.105C84.1497 344.299 84.0446 344.545 83.9727 344.844C83.9007 345.137 83.8647 345.486 83.8647 345.89V347.923C83.8647 348.333 83.9007 348.687 83.9727 348.986C84.0446 349.285 84.1497 349.531 84.2881 349.725C84.432 349.918 84.6063 350.062 84.811 350.156C85.0158 350.25 85.2454 350.297 85.5 350.297C85.7601 350.297 85.9897 350.25 86.189 350.156C86.3937 350.062 86.5653 349.918 86.7036 349.725C86.842 349.531 86.9443 349.285 87.0107 348.986C87.0827 348.687 87.1187 348.333 87.1187 347.923ZM98.8765 346.064V347.766C98.8765 348.468 98.7879 349.08 98.6108 349.6C98.4393 350.115 98.193 350.541 97.8721 350.878C97.5566 351.216 97.1748 351.468 96.7266 351.634C96.2839 351.8 95.7913 351.883 95.249 351.883C94.7067 351.883 94.2114 351.8 93.7632 351.634C93.3205 351.468 92.9386 351.216 92.6177 350.878C92.2967 350.541 92.0477 350.115 91.8706 349.6C91.6935 349.08 91.605 348.468 91.605 347.766V346.064C91.605 345.361 91.6908 344.752 91.8623 344.238C92.0394 343.723 92.2884 343.297 92.6094 342.959C92.9303 342.616 93.3122 342.362 93.7549 342.196C94.1976 342.03 94.6901 341.947 95.2324 341.947C95.7747 341.947 96.27 342.03 96.7183 342.196C97.1665 342.362 97.5511 342.616 97.8721 342.959C98.193 343.297 98.4393 343.723 98.6108 344.238C98.7879 344.752 98.8765 345.361 98.8765 346.064ZM96.8677 347.923V345.89C96.8677 345.486 96.8317 345.137 96.7598 344.844C96.6878 344.545 96.5827 344.299 96.4443 344.105C96.306 343.911 96.1344 343.77 95.9297 343.682C95.7305 343.588 95.498 343.541 95.2324 343.541C94.9779 343.541 94.7482 343.588 94.5435 343.682C94.3442 343.77 94.1755 343.911 94.0371 344.105C93.8988 344.299 93.7936 344.545 93.7217 344.844C93.6497 345.137 93.6138 345.486 93.6138 345.89V347.923C93.6138 348.333 93.6497 348.687 93.7217 348.986C93.7936 349.285 93.8988 349.531 94.0371 349.725C94.181 349.918 94.3553 350.062 94.5601 350.156C94.7648 350.25 94.9945 350.297 95.249 350.297C95.5091 350.297 95.7388 350.25 95.938 350.156C96.1427 350.062 96.3143 349.918 96.4526 349.725C96.591 349.531 96.6934 349.285 96.7598 348.986C96.8317 348.687 96.8677 348.333 96.8677 347.923Z" fill="white"/>
<path d="M117 345.75H105" stroke="white"/>
<path d="M77.2617 409.33V419H75.2612V411.654L72.6382 412.343V410.766L77.0376 409.33H77.2617ZM89.1274 413.314V415.016C89.1274 415.718 89.0389 416.33 88.8618 416.85C88.6903 417.365 88.444 417.791 88.123 418.128C87.8076 418.466 87.4258 418.718 86.9775 418.884C86.5348 419.05 86.0423 419.133 85.5 419.133C84.9577 419.133 84.4624 419.05 84.0142 418.884C83.5715 418.718 83.1896 418.466 82.8687 418.128C82.5477 417.791 82.2987 417.365 82.1216 416.85C81.9445 416.33 81.856 415.718 81.856 415.016V413.314C81.856 412.611 81.9417 412.002 82.1133 411.488C82.2904 410.973 82.5394 410.547 82.8604 410.209C83.1813 409.866 83.5632 409.612 84.0059 409.446C84.4486 409.28 84.9411 409.197 85.4834 409.197C86.0257 409.197 86.521 409.28 86.9692 409.446C87.4175 409.612 87.8021 409.866 88.123 410.209C88.444 410.547 88.6903 410.973 88.8618 411.488C89.0389 412.002 89.1274 412.611 89.1274 413.314ZM87.1187 415.173V413.14C87.1187 412.736 87.0827 412.387 87.0107 412.094C86.9388 411.795 86.8337 411.549 86.6953 411.355C86.557 411.161 86.3854 411.02 86.1807 410.932C85.9814 410.838 85.749 410.791 85.4834 410.791C85.2288 410.791 84.9992 410.838 84.7944 410.932C84.5952 411.02 84.4264 411.161 84.2881 411.355C84.1497 411.549 84.0446 411.795 83.9727 412.094C83.9007 412.387 83.8647 412.736 83.8647 413.14V415.173C83.8647 415.583 83.9007 415.937 83.9727 416.236C84.0446 416.535 84.1497 416.781 84.2881 416.975C84.432 417.168 84.6063 417.312 84.811 417.406C85.0158 417.5 85.2454 417.547 85.5 417.547C85.7601 417.547 85.9897 417.5 86.189 417.406C86.3937 417.312 86.5653 417.168 86.7036 416.975C86.842 416.781 86.9443 416.535 87.0107 416.236C87.0827 415.937 87.1187 415.583 87.1187 415.173ZM98.8765 413.314V415.016C98.8765 415.718 98.7879 416.33 98.6108 416.85C98.4393 417.365 98.193 417.791 97.8721 418.128C97.5566 418.466 97.1748 418.718 96.7266 418.884C96.2839 419.05 95.7913 419.133 95.249 419.133C94.7067 419.133 94.2114 419.05 93.7632 418.884C93.3205 418.718 92.9386 418.466 92.6177 418.128C92.2967 417.791 92.0477 417.365 91.8706 416.85C91.6935 416.33 91.605 415.718 91.605 415.016V413.314C91.605 412.611 91.6908 412.002 91.8623 411.488C92.0394 410.973 92.2884 410.547 92.6094 410.209C92.9303 409.866 93.3122 409.612 93.7549 409.446C94.1976 409.28 94.6901 409.197 95.2324 409.197C95.7747 409.197 96.27 409.28 96.7183 409.446C97.1665 409.612 97.5511 409.866 97.8721 410.209C98.193 410.547 98.4393 410.973 98.6108 411.488C98.7879 412.002 98.8765 412.611 98.8765 413.314ZM96.8677 415.173V413.14C96.8677 412.736 96.8317 412.387 96.7598 412.094C96.6878 411.795 96.5827 411.549 96.4443 411.355C96.306 411.161 96.1344 411.02 95.9297 410.932C95.7305 410.838 95.498 410.791 95.2324 410.791C94.9779 410.791 94.7482 410.838 94.5435 410.932C94.3442 411.02 94.1755 411.161 94.0371 411.355C93.8988 411.549 93.7936 411.795 93.7217 412.094C93.6497 412.387 93.6138 412.736 93.6138 413.14V415.173C93.6138 415.583 93.6497 415.937 93.7217 416.236C93.7936 416.535 93.8988 416.781 94.0371 416.975C94.181 417.168 94.3553 417.312 94.5601 417.406C94.7648 417.5 94.9945 417.547 95.249 417.547C95.5091 417.547 95.7388 417.5 95.938 417.406C96.1427 417.312 96.3143 417.168 96.4526 416.975C96.591 416.781 96.6934 416.535 96.7598 416.236C96.8317 415.937 96.8677 415.583 96.8677 415.173Z" fill="white"/>
<path d="M117 413H105" stroke="white"/>
<path d="M117 134V433" stroke="white"/>
<path d="M127 413L237.821 377.458L364.05 154L475.464 377.458L582.137 285.56L672.216 194.551L786 264.569" stroke="white" stroke-width="2"/>
<path d="M117 433.5H796" stroke="white"/>
<path d="M133 434V444" stroke="white"/>
<path d="M122.552 462.774V455.761H124.679V462.774C124.679 463.483 124.521 464.09 124.204 464.594C123.888 465.092 123.46 465.476 122.921 465.745C122.388 466.009 121.787 466.141 121.119 466.141C120.387 466.141 119.739 466.026 119.177 465.798C118.614 465.563 118.172 465.209 117.85 464.734C117.533 464.254 117.375 463.645 117.375 462.906H119.502C119.502 463.27 119.566 463.568 119.695 463.803C119.824 464.031 120.009 464.198 120.249 464.304C120.495 464.409 120.785 464.462 121.119 464.462C121.418 464.462 121.673 464.397 121.884 464.269C122.101 464.14 122.265 463.952 122.376 463.706C122.493 463.454 122.552 463.144 122.552 462.774ZM131.963 457.861L128.887 466H126.742L130.864 455.761H132.288L131.963 457.861ZM134.802 466L131.708 457.844L131.383 455.761H132.833L136.946 466H134.802ZM134.67 462.203V463.794H128.816V462.203H134.67ZM147.931 455.761V466H145.804L141.181 458.942V466H139.062V455.761H141.181L145.804 462.818V455.761H147.931Z" fill="white"/>
<path d="M239.833 434V444" stroke="white"/>
<path d="M228.339 455.761V466H226.221V455.761H228.339ZM232.778 460.111V461.799H227.768V460.111H232.778ZM233.349 455.761V457.448H227.768V455.761H233.349ZM243.041 464.321V466H237.179V464.321H243.041ZM237.847 455.761V466H235.729V455.761H237.847ZM242.286 459.865V461.544H237.179V459.865H242.286ZM243.024 455.761V457.448H237.179V455.761H243.024ZM249.587 463.346L252.162 455.761H254.404L250.536 466H248.963L249.587 463.346ZM246.731 455.761L249.28 463.328L249.921 466H248.339L244.481 455.761H246.731Z" fill="white"/>
<path d="M348.667 434V444" stroke="white"/>
<path d="M332.752 455.761H334.58L337.542 463.223L340.495 455.761H342.323L338.262 466H336.812L332.752 455.761ZM331.811 455.761H333.604L333.929 463.188V466H331.811V455.761ZM341.479 455.761H343.281V466H341.163V463.188L341.479 455.761ZM350.618 457.861L347.542 466H345.397L349.519 455.761H350.943L350.618 457.861ZM353.457 466L350.363 457.844L350.038 455.761H351.488L355.601 466H353.457ZM353.325 462.203V463.794H347.471V462.203H353.325ZM357.709 455.761H361.743C362.37 455.761 362.932 455.828 363.43 455.963C363.928 456.098 364.35 456.297 364.696 456.561C365.048 456.818 365.314 457.141 365.496 457.527C365.683 457.908 365.777 458.351 365.777 458.854C365.777 459.411 365.677 459.889 365.478 460.287C365.279 460.68 364.998 461.005 364.634 461.263C364.271 461.521 363.843 461.729 363.351 461.887L362.674 462.256H359.115L359.097 460.568H361.769C362.191 460.568 362.54 460.504 362.815 460.375C363.091 460.246 363.299 460.067 363.439 459.839C363.58 459.604 363.65 459.335 363.65 459.03C363.65 458.708 363.58 458.43 363.439 458.195C363.304 457.955 363.093 457.771 362.806 457.642C362.525 457.513 362.171 457.448 361.743 457.448H359.836V466H357.709V455.761ZM363.914 466L361.383 461.465L363.624 461.447L366.199 465.903V466H363.914Z" fill="white"/>
<path d="M459 434V444" stroke="white"/>
<path d="M448.253 457.861L445.177 466H443.032L447.154 455.761H448.578L448.253 457.861ZM451.092 466L447.998 457.844L447.673 455.761H449.123L453.236 466H451.092ZM450.96 462.203V463.794H445.106V462.203H450.96ZM459.589 461.526H456.759L456.741 460.067H459.264C459.645 460.067 459.967 460.018 460.23 459.918C460.494 459.818 460.693 459.675 460.828 459.487C460.969 459.294 461.039 459.06 461.039 458.784C461.039 458.474 460.972 458.219 460.837 458.02C460.702 457.82 460.5 457.677 460.23 457.589C459.961 457.495 459.627 457.448 459.229 457.448H457.471V466H455.353V455.761H459.114C459.747 455.761 460.31 455.819 460.802 455.937C461.3 456.048 461.725 456.218 462.076 456.446C462.428 456.675 462.694 456.968 462.876 457.325C463.063 457.677 463.157 458.093 463.157 458.573C463.157 458.989 463.052 459.376 462.841 459.733C462.636 460.091 462.319 460.381 461.892 460.604C461.464 460.826 460.91 460.949 460.23 460.973L459.589 461.526ZM459.492 466H456.161L457.022 464.321H459.492C459.902 464.321 460.239 464.263 460.503 464.146C460.772 464.028 460.972 463.87 461.101 463.671C461.229 463.466 461.294 463.231 461.294 462.968C461.294 462.675 461.235 462.423 461.118 462.212C461.007 461.995 460.825 461.828 460.573 461.711C460.321 461.588 459.993 461.526 459.589 461.526H457.427L457.436 460.067H460.178L460.661 460.639C461.312 460.627 461.839 460.741 462.243 460.981C462.647 461.216 462.943 461.521 463.131 461.896C463.324 462.271 463.421 462.66 463.421 463.064C463.421 463.562 463.333 463.996 463.157 464.365C462.981 464.729 462.727 465.033 462.393 465.279C462.059 465.52 461.648 465.701 461.162 465.824C460.676 465.941 460.119 466 459.492 466ZM466.188 455.761H470.222C470.849 455.761 471.411 455.828 471.909 455.963C472.407 456.098 472.829 456.297 473.175 456.561C473.526 456.818 473.793 457.141 473.975 457.527C474.162 457.908 474.256 458.351 474.256 458.854C474.256 459.411 474.156 459.889 473.957 460.287C473.758 460.68 473.477 461.005 473.113 461.263C472.75 461.521 472.322 461.729 471.83 461.887L471.153 462.256H467.594L467.576 460.568H470.248C470.67 460.568 471.019 460.504 471.294 460.375C471.569 460.246 471.777 460.067 471.918 459.839C472.059 459.604 472.129 459.335 472.129 459.03C472.129 458.708 472.059 458.43 471.918 458.195C471.783 457.955 471.572 457.771 471.285 457.642C471.004 457.513 470.649 457.448 470.222 457.448H468.314V466H466.188V455.761ZM472.393 466L469.861 461.465L472.103 461.447L474.678 465.903V466H472.393Z" fill="white"/>
<path d="M566.833 434V444" stroke="white"/>
<path d="M553.617 455.761H555.445L558.407 463.223L561.36 455.761H563.188L559.127 466H557.677L553.617 455.761ZM552.676 455.761H554.469L554.794 463.188V466H552.676V455.761ZM562.344 455.761H564.146V466H562.028V463.188L562.344 455.761ZM571.483 457.861L568.407 466H566.262L570.384 455.761H571.808L571.483 457.861ZM574.322 466L571.228 457.844L570.903 455.761H572.353L576.466 466H574.322ZM574.19 462.203V463.794H568.336V462.203H574.19ZM580.85 455.761V466H578.723V455.761H580.85Z" fill="white"/>
<path d="M674.167 434V444" stroke="white"/>
<path d="M663.798 462.774V455.761H665.924V462.774C665.924 463.483 665.766 464.09 665.45 464.594C665.133 465.092 664.706 465.476 664.167 465.745C663.633 466.009 663.033 466.141 662.365 466.141C661.633 466.141 660.985 466.026 660.423 465.798C659.86 465.563 659.418 465.209 659.095 464.734C658.779 464.254 658.621 463.645 658.621 462.906H660.748C660.748 463.27 660.812 463.568 660.941 463.803C661.07 464.031 661.255 464.198 661.495 464.304C661.741 464.409 662.031 464.462 662.365 464.462C662.664 464.462 662.919 464.397 663.13 464.269C663.346 464.14 663.51 463.952 663.622 463.706C663.739 463.454 663.798 463.144 663.798 462.774ZM675.072 455.761H677.199V462.511C677.199 463.296 677.017 463.961 676.654 464.506C676.291 465.045 675.796 465.452 675.169 465.728C674.542 466.003 673.827 466.141 673.024 466.141C672.21 466.141 671.486 466.003 670.853 465.728C670.226 465.452 669.734 465.045 669.377 464.506C669.019 463.961 668.841 463.296 668.841 462.511V455.761H670.95V462.511C670.95 462.962 671.032 463.334 671.196 463.627C671.366 463.914 671.606 464.125 671.917 464.26C672.227 464.395 672.596 464.462 673.024 464.462C673.452 464.462 673.818 464.395 674.123 464.26C674.427 464.125 674.662 463.914 674.826 463.627C674.99 463.334 675.072 462.962 675.072 462.511V455.761ZM689.018 455.761V466H686.891L682.268 458.942V466H680.15V455.761H682.268L686.891 462.818V455.761H689.018Z" fill="white"/>
<path d="M781 434V444" stroke="white"/>
<path d="M771.914 462.774V455.761H774.041V462.774C774.041 463.483 773.883 464.09 773.566 464.594C773.25 465.092 772.822 465.476 772.283 465.745C771.75 466.009 771.149 466.141 770.481 466.141C769.749 466.141 769.102 466.026 768.539 465.798C767.977 465.563 767.534 465.209 767.212 464.734C766.896 464.254 766.737 463.645 766.737 462.906H768.864C768.864 463.27 768.929 463.568 769.058 463.803C769.187 464.031 769.371 464.198 769.611 464.304C769.857 464.409 770.147 464.462 770.481 464.462C770.78 464.462 771.035 464.397 771.246 464.269C771.463 464.14 771.627 463.952 771.738 463.706C771.855 463.454 771.914 463.144 771.914 462.774ZM783.188 455.761H785.315V462.511C785.315 463.296 785.134 463.961 784.771 464.506C784.407 465.045 783.912 465.452 783.285 465.728C782.658 466.003 781.943 466.141 781.141 466.141C780.326 466.141 779.603 466.003 778.97 465.728C778.343 465.452 777.851 465.045 777.493 464.506C777.136 463.961 776.957 463.296 776.957 462.511V455.761H779.066V462.511C779.066 462.962 779.148 463.334 779.312 463.627C779.482 463.914 779.723 464.125 780.033 464.26C780.344 464.395 780.713 464.462 781.141 464.462C781.568 464.462 781.935 464.395 782.239 464.26C782.544 464.125 782.778 463.914 782.942 463.627C783.106 463.334 783.188 462.962 783.188 462.511V455.761ZM795.263 464.321V466H789.717V464.321H795.263ZM790.385 455.761V466H788.267V455.761H790.385Z" fill="white"/>
</g>
<defs>
<clipPath id="clip0_220_213">
<rect width="867" height="529" rx="20" fill="white"/>
</clipPath>
</defs>
</svg>
