<svg width="159" height="159" viewBox="0 0 159 159" fill="none" xmlns="http://www.w3.org/2000/svg">
<path d="M75.8141 158.521L74.3472 158.463L74.3245 156.209C74.3132 154.97 74.3019 148.75 74.2905 142.388L74.2679 130.82L72.5235 129.409C64.1415 122.632 55.7141 117.084 47.1506 112.707C41.6198 109.879 36.7374 107.828 31.1425 105.981C29.3069 105.375 29.0117 105.226 28.3542 104.568C25.6343 101.848 27.572 97.2618 31.4396 97.263C32.0029 97.2632 33.0816 97.5458 35.0357 98.2057C49.178 102.982 62.8442 110.706 76.9393 121.89L78.6592 123.255L80.1903 122.065C82.6666 120.141 87.1357 116.907 89.9995 114.966C97.0483 110.188 102.972 106.92 112.882 102.339C115.368 101.19 118.806 99.5722 120.522 98.7435C123.239 97.4309 123.75 97.2357 124.486 97.2301C125.692 97.2207 126.59 97.5398 127.425 98.2753C129.18 99.8206 129.402 102.403 127.938 104.251C127.37 104.968 124.302 106.569 117.322 109.788C106.636 114.718 100.869 117.919 93.5046 123.01C90.8282 124.859 86.1306 128.328 83.9807 130.042L82.9099 130.895V140.731V150.567L84.2182 150.462C90.3172 149.985 96.3093 148.784 101.907 146.915C116.886 141.913 129.905 131.933 138.653 118.747C148.134 104.458 152.171 87.2093 149.997 70.2799C146.368 42.0124 126.259 18.5731 98.9266 10.7518C96.4016 10.029 91.4534 8.93092 90.72 8.93034L90.3628 8.93V4.87126V0.812642L91.195 0.917409C95.845 1.52731 103.123 3.49132 108.361 5.55112C110.986 6.58353 116.212 9.09343 118.669 10.5032C132.49 18.431 143.751 30.5276 150.633 44.839C163.083 70.7311 160.664 101.07 144.27 124.643C138.701 132.651 131.231 139.967 123.216 145.263C120.14 147.296 117.844 148.604 114.229 150.384C105.289 154.787 96.5072 157.273 86.5566 158.219C83.9492 158.467 78.2599 158.629 75.8141 158.521ZM63.8016 157.046C50.5794 154.373 38.6988 148.663 28.2 139.938C25.7898 137.934 20.5885 132.722 18.5338 130.251C4.32529 113.161 -2.10446 91.3849 0.60818 69.5399C3.48334 46.3861 16.348 25.7466 35.8599 12.9836C43.3439 8.08814 51.6226 4.48463 60.2981 2.34649C66.4173 0.838273 71.3026 0.220339 78.1127 0.0931243L82.9088 0L82.9553 14.2142L82.9894 28.4285L84.5752 27.4519C88.0166 25.3318 92.8001 23.3932 94.9836 23.2336C95.8682 23.1638 96.1714 23.2219 96.8876 23.5467C99.4488 24.7193 100.283 27.6002 98.7365 29.9346C98.1208 30.8646 97.3953 31.2753 94.9624 32.0724C90.9916 33.3733 87.5137 35.4929 82.5929 39.6115C80.5782 41.2977 80.0026 41.5846 78.6284 41.5872C77.2561 41.5897 76.3627 41.1495 74.7463 39.6769C72.2729 37.4229 69.3724 35.4905 66.1798 33.9695C64.5383 33.1873 63.2773 32.6841 59.9741 31.4921C59.0464 31.1568 58.315 30.5016 57.7697 29.5171C57.3635 28.785 57.2995 28.5045 57.3029 27.4785C57.3057 26.566 57.3846 26.1367 57.6533 25.6334C58.4052 24.2128 59.6931 23.3586 61.2588 23.2419C62.0898 23.1837 62.4923 23.2653 64.3344 23.903C67.0135 24.8283 70.4962 26.374 72.5147 27.5332C73.3737 28.0267 74.1372 28.4306 74.2115 28.4306C74.2814 28.4306 74.3464 23.8577 74.3464 18.2688V8.10699L73.2756 8.21176C57.0003 9.78202 43.0087 15.9293 31.0239 26.7755C23.8335 33.2828 17.6886 41.9414 13.789 51.0607C5.45673 70.5457 6.05976 92.285 15.4542 111.089C19.1671 118.522 23.5481 124.522 29.5096 130.34C35.0254 135.723 40.8637 139.846 47.7836 143.245C53.5625 146.083 59.0678 147.975 65.0454 149.176L66.8134 149.531L66.8598 153.524L66.9063 157.517L66.4675 157.506C66.2268 157.5 65.0296 157.293 63.8086 157.045L63.8016 157.046ZM90.3886 141.119C89.0119 140.773 87.2641 139.788 86.0779 138.689C83.9445 136.714 83.5182 134.917 84.6233 132.558C85.9129 129.806 90.0176 127.294 92.7089 127.61C94.3703 127.806 95.3184 128.457 96.3101 130.085C97.4905 132.023 97.9964 134.482 97.6026 136.367C97.1475 138.549 96.1871 139.839 94.339 140.752C93.1516 141.339 91.7737 141.467 90.3886 141.119ZM62.8998 140.412C60.4057 139.405 59.1761 137.643 59.0114 134.841C58.8871 132.72 59.4933 130.742 60.894 128.699C61.8472 127.309 63.7512 126.691 65.6914 127.141C68.0282 127.683 70.8857 129.689 71.8449 131.461C72.4571 132.593 72.8144 133.971 72.6923 134.732C72.3559 136.836 69.9226 139.249 67.1207 140.258C65.7927 140.736 63.875 140.806 62.8998 140.412ZM77.2507 110.6C76.2986 110.271 76.3183 110.286 72.8637 107.229C58.5116 94.5303 43.2763 85.8253 27.3483 81.2232C26.1258 80.8705 24.8719 80.4504 24.5616 80.2898C23.2439 79.61 22.342 78.1268 22.3361 76.6295C22.3285 74.8753 23.0775 73.5792 24.5756 72.7514C26.1706 71.8704 27.8467 72.1648 34.8605 74.5574C49.447 79.5342 64.0326 88.1291 77.0805 99.4365L78.6243 100.774L80.4107 99.2839C92.7433 88.9936 106.626 80.974 124.855 73.6101C127.918 72.3731 128.462 72.2008 129.31 72.2007C130.588 72.2007 132.003 72.8816 132.703 73.8336C134.057 75.6745 133.911 77.871 132.33 79.4259C131.608 80.1382 131.21 80.3512 128.819 81.3142C110.193 88.8153 97.6056 96.0983 85.2394 106.53C83.6861 107.84 82.009 109.253 81.5127 109.67C80.1044 110.852 78.8036 111.137 77.2507 110.6ZM77.5171 86.0081C76.6767 85.7521 75.9983 85.2842 73.9779 83.5669C66.4646 77.1801 58.8462 72.1388 49.8458 67.5982C45.02 65.1637 41.3327 63.5593 36.14 61.6349C32.2958 60.2104 31.7278 59.8618 31.0228 58.4953C29.952 56.4201 30.9646 53.6401 33.1491 52.6921C34.5175 52.0961 35.4651 52.1939 38.2693 53.2205C52.9076 58.5785 64.8745 65.2182 76.3334 74.3397L78.5581 76.1107L80.0601 74.8621C82.2943 73.0047 87.4526 69.144 89.8875 67.5068C97.4553 62.4182 104.775 58.6513 116.358 53.8851C118.4 53.0447 120.404 52.3174 120.811 52.2692C122.471 52.0725 124.349 53.141 125.11 54.7145C125.65 55.8296 125.625 57.256 125.04 58.4406C124.795 58.9399 124.336 59.5615 124.021 59.8214C123.705 60.0809 122.123 60.8386 120.503 61.5045C114.454 63.9914 111.414 65.351 107.17 67.4689C98.0009 72.0443 90.614 77.0267 82.6692 83.9948C81.4586 85.0563 80.6683 85.6212 80.0863 85.8403C79.2343 86.1615 78.2356 86.2269 77.5171 86.0081ZM77.6335 63.7893C76.6267 63.5403 76.1804 63.2283 74.318 61.4781C64.7543 52.4901 56.4661 47.6836 47.0029 45.6376C44.9109 45.1849 44.4523 44.9905 43.6948 44.2331C42.1841 42.7225 42.0641 40.1413 43.425 38.4235C43.9441 37.7682 45.1798 37.081 46.1452 36.9104C46.8633 36.7835 49.5677 37.2863 52.1985 38.0359C60.5913 40.4287 68.3092 44.8088 76.4893 51.8217L78.5509 53.589L80.6879 51.7073C87.6938 45.5381 94.9134 41.1786 102.338 38.6342C104.272 37.9707 108.042 37.0213 109.253 36.8918C111.541 36.6473 113.71 38.413 113.947 40.7148C114.119 42.3666 113.291 44.0142 111.881 44.8344C111.517 45.0462 110.362 45.4094 109.316 45.6422C102.354 47.1887 95.4513 50.7271 88.7829 56.1682C86.569 57.9746 86.1382 58.3565 83.3061 61.0237C82.0839 62.1748 80.7919 63.2657 80.4351 63.4477C79.6541 63.8458 78.4533 63.993 77.6335 63.7893Z" fill="#465741"/>
</svg>
