<svg width="159" height="160" viewBox="0 0 159 160" fill="none" xmlns="http://www.w3.org/2000/svg">
<path d="M76.0202 159.245L74.5533 159.187L74.5306 156.933C74.5193 155.693 74.5004 149.474 74.491 143.111L74.4721 131.543L72.7277 130.133C64.3457 123.355 55.9183 117.808 47.3547 113.43C41.8241 110.603 36.9415 108.552 31.3466 106.705C29.5111 106.098 29.2159 105.949 28.5584 105.292C25.8386 102.572 27.7763 97.9853 31.6438 97.9865C32.2071 97.9867 33.2858 98.2693 35.2399 98.9292C49.3822 103.705 63.0483 111.429 77.1435 122.614L78.8635 123.978L80.3945 122.789C82.871 120.865 87.3399 117.63 90.2037 115.689C97.2525 110.912 103.176 107.643 113.087 103.063C115.572 101.914 119.01 100.296 120.726 99.467C123.443 98.1544 123.954 97.9592 124.69 97.9536C125.896 97.9442 126.794 98.2633 127.629 98.9988C129.385 100.544 129.607 103.127 128.143 104.975C127.575 105.692 124.507 107.292 117.527 110.512C106.841 115.441 101.074 118.642 93.7092 123.733C91.0328 125.583 86.3352 129.052 84.1853 130.765L83.1148 131.618V141.455V151.291L84.4231 151.186C90.5221 150.709 96.5142 149.507 102.112 147.638C117.091 142.636 130.11 132.657 138.858 119.471C148.339 105.182 152.376 87.9328 150.202 71.0034C146.572 42.736 126.463 19.2967 99.1312 11.4753C96.6062 10.7525 91.6581 9.65446 90.9247 9.65387L90.5679 9.65353V5.59479V1.53617L91.4004 1.64094C96.0503 2.25084 103.328 4.21485 108.567 6.27466C111.192 7.30706 116.417 9.81696 118.875 11.2267C132.696 19.1546 143.957 31.2512 150.838 45.5626C163.289 71.4546 160.87 101.794 144.476 125.366C138.906 133.374 131.436 140.69 123.421 145.987C120.345 148.019 118.05 149.327 114.434 151.108C105.495 155.51 96.7125 157.997 86.7619 158.942C84.1547 159.19 78.466 159.352 76.0202 159.245ZM64.0077 157.769C50.7855 155.096 38.9048 149.387 28.4062 140.661C25.9958 138.658 20.7947 133.445 18.74 130.974C4.53136 113.885 -1.89841 92.1084 0.814233 70.2635C3.68947 47.1097 16.5541 26.4701 36.0659 13.7071C43.5501 8.81166 51.8287 5.20814 60.5043 3.07C66.6234 1.56178 71.5088 0.94385 78.3188 0.816635L83.115 0.723511L83.1558 14.9378L83.1966 29.152L84.7825 28.1754C88.2239 26.0554 93.0074 24.1167 95.1909 23.9571C96.0754 23.8873 96.3787 23.9454 97.0948 24.2702C99.6561 25.4428 100.49 28.3237 98.9437 30.6581C98.3278 31.5881 97.6026 31.9988 95.1697 32.7959C91.1988 34.0968 87.721 36.2164 82.8002 40.335C80.7855 42.0212 80.2099 42.3081 78.8357 42.3107C77.4634 42.3132 76.57 41.873 74.9535 40.4004C72.4801 38.1464 69.5797 36.214 66.387 34.693C64.7456 33.9108 63.4845 33.4077 60.1814 32.2156C59.2537 31.8804 58.5223 31.2251 57.977 30.2406C57.5708 29.5085 57.5068 29.228 57.5103 28.202C57.5131 27.2895 57.5919 26.8602 57.8606 26.3569C58.6125 24.9364 59.9003 24.0821 61.4661 23.9654C62.2971 23.9072 62.6997 23.9888 64.5417 24.6265C67.2208 25.5518 70.7035 27.0975 72.722 28.2567C73.581 28.7502 74.3445 29.1541 74.4187 29.1541C74.4932 29.1541 74.5537 24.5812 74.5537 18.9923V8.8305L73.4832 8.93526C57.2079 10.5055 43.2163 16.6529 31.2316 27.499C24.0411 34.0063 17.8963 42.6649 13.9966 51.7842C5.66442 71.2692 6.26741 93.0085 15.6617 111.813C19.3747 119.245 23.7557 125.245 29.7172 131.063C35.2331 136.446 41.0712 140.569 47.9913 143.968C53.77 146.807 59.2754 148.698 65.2529 149.899L67.021 150.254L67.0629 154.247L67.1049 158.241L66.6661 158.23C66.4245 158.224 65.2288 158.017 64.0077 157.769ZM90.5947 141.842C89.218 141.497 87.4702 140.511 86.2839 139.413C84.1506 137.438 83.7242 135.64 84.8294 133.282C86.119 130.529 90.2237 128.018 92.915 128.334C94.5764 128.529 95.5246 129.18 96.5162 130.809C97.6966 132.746 98.2025 135.205 97.8087 137.091C97.3534 139.272 96.3932 140.562 94.5451 141.476C93.3576 142.062 91.9798 142.19 90.5947 141.842ZM63.1059 141.136C60.6118 140.129 59.3823 138.367 59.2176 135.564C59.0932 133.443 59.6995 131.465 61.1001 129.423C62.0534 128.033 63.9573 127.414 65.8975 127.864C68.2342 128.407 71.0917 130.413 72.051 132.185C72.6633 133.316 73.0204 134.694 72.8987 135.456C72.5623 137.559 70.129 139.972 67.3272 140.981C65.9992 141.46 64.0811 141.529 63.1059 141.136ZM77.4568 111.324C76.5051 110.994 76.5241 111.009 73.0697 107.953C58.7177 95.2538 43.4825 86.5488 27.5543 81.9467C26.3319 81.5941 25.0779 81.1739 24.7677 81.0133C23.45 80.3335 22.548 78.8503 22.5422 77.3531C22.5346 75.5988 23.2836 74.3027 24.7817 73.475C26.3767 72.5939 28.0528 72.8883 35.0667 75.2809C49.653 80.2577 64.2386 88.8527 77.2865 100.16L78.8304 101.498L80.6167 100.007C92.9493 89.7171 106.832 81.6975 125.061 74.3336C128.124 73.0966 128.668 72.9243 129.516 72.9242C130.794 72.9242 132.209 73.6051 132.909 74.5571C134.263 76.398 134.117 78.5945 132.537 80.1494C131.814 80.8617 131.417 81.0747 129.026 82.0377C110.4 89.5388 97.8124 96.8218 85.4463 107.253C83.893 108.564 82.216 109.977 81.7196 110.393C80.3113 111.576 79.0097 111.86 77.4568 111.324ZM77.724 86.7316C76.8839 86.4756 76.2051 86.0077 74.1847 84.2904C66.6714 77.9036 59.0529 72.8623 50.0525 68.3217C45.2269 65.8872 41.5394 64.2828 36.3468 62.3584C32.5027 60.9339 31.9346 60.5853 31.2298 59.2188C30.1589 57.1437 31.1832 54.3636 33.356 53.4156C34.7243 52.8197 35.6719 52.9174 38.4761 53.944C53.1144 59.302 65.0813 65.9417 76.5403 75.0633L78.765 76.8342L80.2669 75.5856C82.5011 73.7282 87.6594 69.8675 90.0943 68.2303C97.6621 63.1417 104.982 59.3748 116.564 54.6086C118.607 53.7683 120.611 53.0409 121.018 52.9927C122.677 52.7961 124.555 53.8645 125.317 55.438C125.857 56.5531 125.831 57.9795 125.25 59.1641C125.004 59.6634 124.546 60.285 124.231 60.5449C123.915 60.8044 122.332 61.5621 120.712 62.228C114.663 64.7149 111.624 66.0745 107.38 68.1924C98.2105 72.7678 90.8236 77.7502 82.8788 84.7183C81.6682 85.7798 80.8779 86.3447 80.296 86.5638C79.4436 86.885 78.4424 86.9504 77.724 86.7316ZM77.8392 64.5128C76.8324 64.2638 76.3861 63.9518 74.5236 62.2016C64.9599 53.2137 56.6719 48.4071 47.2085 46.3611C45.1166 45.9084 44.658 45.714 43.9005 44.9566C42.3899 43.446 42.2699 40.8648 43.6307 39.147C44.1498 38.4917 45.3855 37.8045 46.3509 37.6339C47.069 37.507 49.7734 38.0098 52.4042 38.7594C60.7969 41.1522 68.5148 45.5323 76.695 52.5452L78.7566 54.3125L80.8935 52.4308C87.8995 46.2616 95.1192 41.9021 102.544 39.3577C104.478 38.6942 108.248 37.7448 109.459 37.6153C111.747 37.3708 113.916 39.1365 114.153 41.4383C114.324 43.0901 113.497 44.7377 112.087 45.5579C111.722 45.7698 110.568 46.1329 109.521 46.3657C102.559 47.9122 95.657 51.4506 88.9885 56.8917C86.7746 58.6981 86.3438 59.08 83.5118 61.7472C82.2896 62.8983 80.9976 63.9892 80.6407 64.1712C79.8603 64.5693 78.659 64.7165 77.8392 64.5128Z" fill="#FBFBFB"/>
</svg>
