<svg width="329" height="38" viewBox="0 0 329 38" fill="none" xmlns="http://www.w3.org/2000/svg">
<path d="M23.4232 0.0101929L23.6214 0.531049L19.6562 9.93206L14.1615 22.7706H25.1226L22.4885 16.7029L26.4538 7.30189L39.1142 37.3539H30.9571L27.9549 29.6977H11.3293L7.93046 37.3539H0L15.6627 0.0101929H23.4232Z" fill="#465741"/>
<path d="M69.4255 0.0101929V37.3539H62.0332L44.4729 12.8748V37.3539H36.939V0.0101929H44.303L61.665 24.6716V0.0101929H69.4255Z" fill="#465741"/>
<path d="M99.2998 0.0078125V6.98699H95.6178H88.1972V37.3516H80.2384V6.98699H73.016H69.334V0.0078125H99.2998Z" fill="#465741"/>
<path d="M127.024 37.3437H118.697L111.304 24.5833H106.801V37.3437H99.0405V0H113.938C117.564 0 120.651 1.17189 123.2 3.51565C125.749 5.85939 127.024 8.69793 127.024 12.0313V12.396C127.024 17.4481 124.38 21.172 119.093 23.5679L127.024 37.3437ZM113.174 17.6302C114.722 17.6302 116.063 17.092 117.196 16.0156C118.329 14.974 118.895 13.698 118.895 12.1875C118.895 10.7119 118.329 9.47918 117.196 8.48958C116.082 7.48264 114.741 6.97917 113.174 6.97917H106.801V17.6302H113.174Z" fill="#465741"/>
<path d="M148.973 0.0078125L149.171 0.528668L145.206 9.92968L139.711 22.7683H150.672L148.038 16.7005L152.004 7.29951L164.664 37.3516H156.507L153.505 29.6953H136.879L133.48 37.3516H125.55L141.212 0.0078125H148.973Z" fill="#465741"/>
<path d="M154.841 0.0078125L166.425 29.487L170.391 19.2005L162.8 0.0078125H154.841ZM183.476 0.0078125L169.258 36.8047L169.626 37.3516H177.018L191.463 0.0078125H183.476Z" fill="#465741"/>
<path d="M195.995 0.0078125H203.557V37.3516H195.995V0.0078125Z" fill="#465741"/>
<path d="M221.429 37.3516C215.991 37.3516 211.856 34.7561 209.023 29.5651L215.339 26.1016C217.19 29.296 219.286 30.8932 221.627 30.8932C222.855 30.8932 223.931 30.5634 224.856 29.9037C225.687 29.1918 226.102 28.4193 226.102 27.5859C226.102 26.7699 225.81 25.9453 225.224 25.112C224.847 24.7127 224.299 24.2179 223.581 23.6276C222.864 23.02 221.967 22.2995 220.891 21.4662C218.833 19.8863 217.124 18.4974 215.764 17.2995C214.424 16.0842 213.442 15.0512 212.819 14.2005C211.497 12.4644 210.836 10.763 210.836 9.09636C210.836 6.59635 211.856 4.45228 213.895 2.66408C216.01 0.893247 218.521 0.0078125 221.429 0.0078125C223.43 0.0078125 225.29 0.45053 227.009 1.33595C227.896 1.73527 228.812 2.30818 229.756 3.05472C230.7 3.80122 231.701 4.71269 232.758 5.7891L227.178 10.2422C225.309 7.82899 223.393 6.62242 221.429 6.62242C220.334 6.62242 219.56 6.83943 219.106 7.27347C218.502 7.70748 218.2 8.26304 218.2 8.94013C218.2 9.46095 218.379 9.99912 218.738 10.5547C219.097 10.9019 219.72 11.4488 220.608 12.1953C221.514 12.9245 222.694 13.8707 224.148 15.0339C225.847 16.3359 227.141 17.3689 228.028 18.1328C228.614 18.6189 229.048 18.9662 229.331 19.1745C231.975 21.5182 233.296 24.2092 233.296 27.2474C233.296 30.2335 232.211 32.6641 230.039 34.5391C227.887 36.4141 225.017 37.3516 221.429 37.3516Z" fill="#465741"/>
<path d="M238.083 0.0078125H245.645V37.3516H238.083V0.0078125Z" fill="#465741"/>
<path d="M271.362 30.8932C273.081 30.8932 274.667 30.5981 276.121 30.0078C277.593 29.4175 278.953 28.5495 280.199 27.4036C282.71 25.1467 283.966 22.2735 283.966 18.7839C283.966 15.4332 282.71 12.5512 280.199 10.138C277.782 7.81164 274.771 6.64846 271.164 6.64846C267.52 6.64846 264.518 7.81164 262.157 10.138C259.74 12.3776 258.532 15.2596 258.532 18.7839C258.532 22.7422 260.099 25.8932 263.234 28.237C265.594 30.0078 268.303 30.8932 271.362 30.8932ZM271.362 37.3516C265.603 37.3516 260.779 35.5286 256.889 31.8828C253.037 28.0981 251.111 23.7318 251.111 18.7839C251.111 15.2769 252.018 12.1172 253.83 9.3047C255.568 6.45748 258.022 4.19185 261.194 2.50782C264.348 0.841151 267.737 0.0078125 271.362 0.0078125C276.763 0.0078125 281.445 1.83072 285.411 5.47655C289.414 9.19183 291.415 13.6276 291.415 18.7839C291.415 24.0616 289.48 28.48 285.609 32.039C281.7 35.5807 276.951 37.3516 271.362 37.3516Z" fill="#465741"/>
<path d="M329 0.0078125V37.3516H321.607L304.047 12.8724V37.3516H296.513V0.0078125H303.877L321.239 24.6693V0.0078125H329Z" fill="#465741"/>
</svg>
