<svg width="179" height="39" viewBox="0 0 179 39" fill="none" xmlns="http://www.w3.org/2000/svg">
<path d="M21.5365 0.925781L21.7187 1.44661L18.0729 10.8476L13.0208 23.6862H23.0989L20.6771 17.6185L24.3229 8.21747L35.9635 38.2695H28.4635L25.7031 30.6133H10.4167L7.29166 38.2695H0L14.401 0.925781H21.5365Z" fill="#465741"/>
<path d="M65.8331 0.925781V38.2695H59.0363L42.8904 13.7903V38.2695H35.9634V0.925781H42.7342L58.6977 25.5872V0.925781H65.8331Z" fill="#465741"/>
<path d="M93.3851 0.925781V7.9049H89.9997H83.1768V38.2695H75.8591V7.9049H69.2184H65.833V0.925781H93.3851Z" fill="#465741"/>
<path d="M89.3853 0.925781L100.036 30.4049L103.682 20.1185L96.703 0.925781H89.3853ZM115.713 0.925781L102.64 37.7227L102.979 38.2695H109.776L123.057 0.925781H115.713Z" fill="#465741"/>
<path d="M133.962 37.5625C128.962 37.5625 125.16 34.967 122.556 29.776L128.363 26.3125C130.065 29.5069 131.992 31.1042 134.145 31.1042C135.273 31.1042 136.263 30.7743 137.113 30.1146C137.877 29.4028 138.259 28.6302 138.259 27.7969C138.259 26.9809 137.99 26.1562 137.452 25.3229C137.105 24.9236 136.601 24.4288 135.942 23.8385C135.282 23.2309 134.457 22.5104 133.468 21.6771C131.575 20.0972 130.004 18.7083 128.754 17.5104C127.521 16.2951 126.619 15.2621 126.046 14.4115C124.83 12.6754 124.223 10.974 124.223 9.3073C124.223 6.80729 125.16 4.66321 127.035 2.87502C128.98 1.10418 131.289 0.21875 133.962 0.21875C135.803 0.21875 137.513 0.661438 139.093 1.54686C139.909 1.94618 140.751 2.51915 141.619 3.26568C142.487 4.01219 143.407 4.92363 144.379 6.00004L139.249 10.4532C137.53 8.03996 135.768 6.83333 133.962 6.83333C132.955 6.83333 132.244 7.05039 131.827 7.48443C131.271 7.91845 130.994 8.47398 130.994 9.15107C130.994 9.67189 131.159 10.2101 131.488 10.7656C131.818 11.1128 132.391 11.6597 133.207 12.4062C134.041 13.1354 135.126 14.0816 136.462 15.2448C138.025 16.5469 139.214 17.5799 140.03 18.3438C140.568 18.8299 140.968 19.1771 141.228 19.3854C143.659 21.7292 144.874 24.4201 144.874 27.4583C144.874 30.4444 143.876 32.875 141.879 34.75C139.9 36.625 137.261 37.5625 133.962 37.5625Z" fill="#465741"/>
<path d="M178.249 0V37.3437H171.452L155.306 12.8646V37.3437H148.379V0H155.15L171.113 24.6615V0H178.249Z" fill="#465741"/>
</svg>
